<svg width="3468" height="707" viewBox="0 0 3468 707" fill="none" xmlns="http://www.w3.org/2000/svg"><rect width="3468" height="707" fill="white"/><path fill-rule="evenodd" clip-rule="evenodd" d="M1055.67 707C1055.67 707 1081.21 290.461 1647.23 463.269C1013.92 206.6 939 707 939 707H1055.67Z" fill="#E3E9E5"/><path d="M2528 518.5C2209 591 1312 604.5 1357.5 0H1949C2141.5 22 2583 66.5 2528 518.5Z" fill="#F7F7F7"/><path d="M2375.19 136.493C2331.46 83.6496 2146.1 14.7886 1961 0H3468V316.698C3115.5 216.317 2554.94 56.6752 2530 49.5C2395.06 8.77245 2285.64 7.05126 2375.19 136.493C2377.29 139.035 2379.07 141.54 2380.5 144C2378.66 141.45 2376.89 138.948 2375.19 136.493Z" fill="#E3E9E5"/></svg>
