<svg width="3469" height="1164" viewBox="0 0 3469 1164" fill="none" xmlns="http://www.w3.org/2000/svg"><rect width="3468" height="1164" fill="white"/><path d="M1883.5 1000.5C2028.7 974.501 2999.67 778.168 3469 691.001V1164H0V916.001C0 916.001 1133.5 1202 1199.5 1108C1265.5 1014 1059.5 881.501 973.5 721.501C1144 881.501 1702 1033 1883.5 1000.5Z" fill="#E3E9E5"/><path d="M1681 1055.5L2254 928.001C2181 424.001 1902.8 268.901 1604 204.501C1305.2 140.101 888.167 333.001 717 437.501C1030.5 901.501 1193.5 1012.5 1352 1055.5C1478.8 1089.9 1624.17 1069.83 1681 1055.5Z" fill="#F7F7F7"/><path fill-rule="evenodd" clip-rule="evenodd" d="M2314.33 0.000588465C2274.17 166.817 2149.13 333.937 1792.91 251.15C2221.18 406.059 2373.14 201.928 2424.3 0.000579427C2403.45 0.000579181 2349.06 -0.000730165 2314.33 0.000588465Z" fill="#E3E9E5"/></svg>
