<svg width="120" height="120" viewBox="0 0 120 120" fill="none" xmlns="http://www.w3.org/2000/svg">
<path d="M98.5972 73.5646H93.793V105.356H98.5972V73.5646Z" fill="white"/>
<path d="M74.5958 85.7632H69.7915V105.356H74.5958V85.7632Z" fill="white"/>
<path d="M90.3926 81.7695H85.5884V105.178H90.3926V81.7695Z" fill="white"/>
<path d="M66.5889 94.7786H61.7847V105.376H66.5889V94.7786Z" fill="white"/>
<path d="M109.392 18.5825V113.58H40.1948C43.3977 113.58 45.9876 110.971 45.9876 107.788V18.5825H109.392ZM98.5974 105.376V73.5844H93.7931V105.376H98.5974ZM90.3925 105.376V81.7695H85.5883V105.178H90.3925V105.376ZM82.3854 105.376V90.5674H77.5811V105.376H82.3854ZM74.576 105.376V85.7829H69.7717V105.376H74.576ZM66.5689 105.376V94.7786H61.7646V105.376H66.5689ZM61.3692 50.3737V42.7817H53.7773V50.3737H61.3692ZM61.3692 35.5655V27.9735H53.7773V35.5655H61.3692ZM58.5618 105.356V92.1491H53.7575V105.356H58.5618Z" fill="#669F77"/>
<path d="M82.9786 14.9644V18.5627H45.9877V39.7568H34.3823V100.947H13.7812C16.9841 100.947 19.5741 98.3373 19.5741 95.1542V5.77106H82.9786V14.9644Z" fill="#669F77"/>
<path d="M82.3853 90.5674H77.5811V105.376H82.3853V90.5674Z" fill="white"/>
<path d="M61.3888 42.7817H53.7969V50.3737H61.3888V42.7817Z" fill="white"/>
<path d="M61.3888 27.9735H53.7969V35.5654H61.3888V27.9735Z" fill="white"/>
<path d="M58.6011 92.1688H53.7969V105.376H58.6011V92.1688Z" fill="white"/>
<path d="M45.9875 39.7766V107.768C45.9875 110.971 43.3975 113.561 40.1947 113.561H39.6015C36.7941 113.165 34.4019 110.753 34.4019 107.768V39.7766H46.0072H45.9875Z" fill="white"/>
<path d="M19.5939 26.9652V94.9565C19.5939 98.1594 17.0039 100.749 13.8011 100.749H13.0102C10.0051 100.354 7.81055 97.9419 7.81055 94.9565V26.9652H19.6136H19.5939Z" fill="white"/>
<path d="M40.195 114.569H39.6019C39.2065 114.569 38.811 114.174 38.811 113.778C38.811 113.58 39.0087 113.185 39.0087 113.185C39.2064 112.79 39.4042 112.79 39.6019 112.79H39.9973C40.3927 112.79 40.7881 113.185 40.7881 113.6C40.7881 114.015 40.7881 114.589 40.195 114.589V114.569Z" fill="#2C6941"/>
<path d="M109.392 114.569H40.1951C39.7997 114.569 39.4043 114.174 39.4043 113.778C39.4043 113.383 39.7997 112.987 40.1951 112.987H108.404V19.571H82.9986C82.6032 19.571 82.2078 19.1756 82.2078 18.7604C82.2078 18.3452 82.6032 17.9695 82.9986 17.9695H109.392C109.788 17.9695 110.183 18.365 110.183 18.7604V113.758C110.183 114.154 109.788 114.549 109.392 114.549V114.569Z" fill="#2C6941"/>
<path d="M40.1949 114.569H39.4041C36.0035 114.174 33.4136 111.366 33.4136 107.966V101.164C33.4136 100.769 33.809 100.374 34.2044 100.374C34.5998 100.374 34.9952 100.769 34.9952 101.164V107.966C34.9952 110.575 36.7944 112.572 39.4041 112.968H39.7995C42.6069 112.968 44.8015 110.773 44.8015 107.966V39.9743C44.8015 39.5789 45.1969 39.1637 45.5923 39.1637C45.9877 39.1637 46.3831 39.5591 46.3831 39.9743V107.966C46.9762 111.564 43.9909 114.569 40.1751 114.569H40.1949Z" fill="#2C6941"/>
<path d="M61.3891 36.376H53.7972C53.4018 36.376 53.0063 35.9806 53.0063 35.5852V27.9933C53.0063 27.5979 53.4018 27.2025 53.7972 27.2025H61.3891C61.7845 27.2025 62.1799 27.5979 62.1799 27.9933V35.5852C62.1799 35.9806 61.7845 36.376 61.3891 36.376ZM54.7857 34.5769H60.5785V28.7841H54.7857V34.5769Z" fill="#2C6941"/>
<path d="M81.1796 31.9672H66.3714C65.976 31.9672 65.5806 31.5718 65.5806 31.1763C65.5806 30.7809 65.976 30.3658 66.3714 30.3658H81.1796C81.575 30.3658 81.9704 30.7612 81.9704 31.1763C81.9704 31.5915 81.7727 31.9672 81.1796 31.9672Z" fill="#2C6941"/>
<path d="M96.1853 35.9806H66.3909C65.9955 35.9806 65.6001 35.5852 65.6001 35.1898C65.6001 34.7944 65.9955 34.3792 66.3909 34.3792H96.1853C96.5807 34.3792 96.9761 34.7746 96.9761 35.1898C96.9761 35.605 96.5807 35.9806 96.1853 35.9806Z" fill="#2C6941"/>
<path d="M61.3891 51.1645H53.7972C53.4018 51.1645 53.0063 50.7691 53.0063 50.3737V42.7817C53.0063 42.3863 53.4018 41.9711 53.7972 41.9711H61.3891C61.7845 41.9711 62.1799 42.3665 62.1799 42.7817V50.3737C62.1799 50.7691 61.7845 51.1645 61.3891 51.1645ZM54.7857 49.3654H60.5785V43.5726H54.7857V49.3654Z" fill="#2C6941"/>
<path d="M81.1796 46.7754H66.3714C65.976 46.7754 65.5806 46.38 65.5806 45.9648C65.5806 45.5496 65.976 45.174 66.3714 45.174H81.1796C81.575 45.174 81.9704 45.5694 81.9704 45.9648C81.9704 46.3602 81.7727 46.7754 81.1796 46.7754Z" fill="#2C6941"/>
<path d="M96.1853 50.7691H66.3909C65.9955 50.7691 65.6001 50.3737 65.6001 49.9783C65.6001 49.5828 65.9955 49.1874 66.3909 49.1874H96.1853C96.5807 49.1874 96.9761 49.5828 96.9761 49.9783C96.9761 50.3737 96.5807 50.7691 96.1853 50.7691Z" fill="#2C6941"/>
<path d="M58.5814 106.166H53.7771C53.3817 106.166 52.9863 105.771 52.9863 105.356V92.1491C52.9863 91.7536 53.3817 91.3385 53.7771 91.3385H58.5814C58.9768 91.3385 59.3723 91.7339 59.3723 92.1491V105.356C59.57 105.751 59.1745 106.166 58.5814 106.166ZM54.7855 104.367H57.7906V92.9597H54.7855V104.367Z" fill="#2C6941"/>
<path d="M66.5887 106.166H61.7845C61.3891 106.166 60.9937 105.771 60.9937 105.356V94.7588C60.9937 94.3634 61.3891 93.968 61.7845 93.968H66.5887C66.9842 93.968 67.3796 94.3634 67.3796 94.7588V105.356C67.5773 105.751 67.1819 106.166 66.5887 106.166ZM62.5951 104.367H65.6002V95.5694H62.5951V104.367Z" fill="#2C6941"/>
<path d="M74.5961 106.166H69.7918C69.3964 106.166 69.001 105.771 69.001 105.356V85.7631C69.001 85.3677 69.3964 84.9525 69.7918 84.9525H74.5961C74.9915 84.9525 75.3869 85.348 75.3869 85.7631V105.356C75.3869 105.751 74.9915 106.166 74.5961 106.166ZM70.6024 104.367H73.6075V86.5737H70.6024V104.367Z" fill="#2C6941"/>
<path d="M82.3856 106.166H77.5814C77.1859 106.166 76.7905 105.771 76.7905 105.356V90.5476C76.7905 90.1522 77.1859 89.7568 77.5814 89.7568H82.3856C82.781 89.7568 83.1764 90.1522 83.1764 90.5476V105.356C83.3742 105.751 82.9787 106.166 82.3856 106.166ZM78.5897 104.367H81.5948V91.3582H78.5897V104.367Z" fill="#2C6941"/>
<path d="M90.3925 106.166H85.5882C85.1928 106.166 84.7974 105.771 84.7974 105.356V81.7497C84.7974 81.3543 85.1928 80.9589 85.5882 80.9589H90.3925C90.7879 80.9589 91.1833 81.3543 91.1833 81.7497V105.158C91.381 105.751 90.9856 106.166 90.3925 106.166ZM86.5965 104.367H89.6016V82.7778H86.5965V104.367Z" fill="#2C6941"/>
<path d="M98.5775 106.166H93.7733C93.3778 106.166 92.9824 105.771 92.9824 105.356V73.5646C92.9824 73.1692 93.3778 72.7738 93.7733 72.7738H98.5775C98.9729 72.7738 99.3684 73.1692 99.3684 73.5646V105.356C99.3684 105.751 98.9729 106.166 98.5775 106.166ZM94.5839 104.367H97.589V74.3752H94.5839V104.367Z" fill="#2C6941"/>
<path d="M112.793 79.5749C112.397 79.5749 112.002 79.1795 112.002 78.7643V15.9727H82.9983C82.6029 15.9727 82.2075 15.5773 82.2075 15.1819C82.2075 14.7865 82.6029 14.3713 82.9983 14.3713H112.793C113.188 14.3713 113.584 14.7667 113.584 15.1819V78.7841C113.781 79.1795 113.386 79.5947 112.793 79.5947V79.5749Z" fill="#2C6941"/>
<path d="M13.7814 101.777H13.1883C12.7929 101.777 12.3975 101.382 12.3975 100.987C12.3975 100.789 12.5952 100.591 12.5952 100.393C12.7929 100.196 12.9906 100.196 13.1883 100.196H13.5837C13.9791 100.196 14.3745 100.591 14.3745 101.006C14.3745 101.421 14.3745 101.797 13.7814 101.797V101.777Z" fill="#2C6941"/>
<path d="M34.3826 101.777H13.7815C13.3861 101.777 12.9907 101.382 12.9907 100.987C12.9907 100.591 13.3861 100.176 13.7815 100.176H33.572V39.7766C33.572 39.3812 33.9674 38.9858 34.3628 38.9858H45.1576V18.5824C45.1576 18.187 45.553 17.7718 45.9484 17.7718H81.9508V6.77936H20.5431V26.985C20.5431 27.3804 20.1477 27.7956 19.7523 27.7956C19.3569 27.7956 18.9615 27.4002 18.9615 26.985V5.79083C18.9615 5.39541 19.3569 5 19.7523 5H83.1568C83.5522 5 83.9476 5.39541 83.9476 5.79083V18.5824C83.9476 18.9779 83.5522 19.3733 83.1568 19.3733H47.1544V39.5789C47.1544 39.9743 46.759 40.3895 46.3636 40.3895H35.3711V100.591C35.3711 101.402 34.9757 101.797 34.3628 101.797L34.3826 101.777Z" fill="#2C6941"/>
<path d="M13.7813 101.777H12.9905C9.58996 101.382 7 98.5745 7 95.174V27.1827C7 26.7873 7.39541 26.3918 7.79083 26.3918H19.3962C19.7916 26.3918 20.187 26.7873 20.187 27.1827V95.174C20.5824 98.7722 17.5773 101.777 13.7813 101.777ZM8.77936 27.9735V95.174C8.77936 97.7639 10.5785 99.7805 13.1882 100.176H13.5836C16.3911 100.176 18.5856 97.9814 18.5856 95.174V27.9735H8.77936Z" fill="#2C6941"/>
</svg>
