<svg width="120" height="120" viewBox="0 0 120 120" fill="none" xmlns="http://www.w3.org/2000/svg">
<path d="M66.8986 62.1704C71.7029 62.1704 75.4988 65.9664 75.4988 70.7706C75.4988 75.5749 71.7029 79.3709 66.8986 79.3709C62.0943 79.3709 58.2983 75.5749 58.2983 70.7706C58.2983 65.9664 62.0943 62.1704 66.8986 62.1704Z" fill="white"/>
<path d="M72.9089 41.9846H61.1058C61.6989 37.378 61.3035 31.7829 60.3149 27.1763C63.5178 26.5832 64.3086 27.9672 66.7206 27.7695C68.3221 27.7695 69.3106 26.9589 71.3272 26.9589C72.118 26.9589 72.9286 26.9589 73.7195 27.1566C72.5134 31.7631 72.118 37.3582 72.9286 41.9648L72.9089 41.9846Z" fill="white"/>
<path d="M61.106 41.9846H74.7082C75.7165 41.9846 76.5074 42.7952 76.5074 43.7837C76.5074 44.1791 76.3097 44.792 75.9142 44.9897C75.5188 45.3851 75.1037 45.5828 74.7082 45.5828H59.1092C58.1009 45.5828 57.3101 44.792 57.3101 43.7837C57.3101 43.3883 57.5078 42.7754 57.9032 42.5777C58.2986 42.1823 58.694 41.9846 59.1092 41.9846H61.106Z" fill="white"/>
<path d="M61.8968 82.1783C61.1059 81.9806 60.2953 81.7829 59.3068 81.5852C59.1091 81.5852 58.7137 81.5852 58.516 81.3875H58.3183C57.7251 81.1898 56.9145 81.1898 56.3214 80.9921C56.1237 80.9921 55.7283 80.9921 55.5306 80.7944H54.3246C53.7315 80.7944 53.1186 80.7944 52.5255 80.5967H51.1217C49.718 77.1961 48.7295 73.4001 48.7295 70.1973C48.7295 61.2016 57.3297 56.3974 60.3349 45.2072H73.5417C76.5468 56.1997 85.1471 61.2016 85.1471 70.1973C85.1471 75.397 82.9525 82.1981 79.3542 86.1918C77.5551 86.9826 75.9537 87.7932 74.3523 88.8015H71.96V87.5955C71.96 87.5955 71.96 87.3978 71.7623 87.3978C71.7623 87.3978 71.7623 87.2001 71.5646 87.2001C71.5646 87.2001 71.5646 87.0024 71.3669 87.0024C71.3669 87.0024 71.3669 86.8047 71.1692 86.8047L70.9715 86.6069L70.7738 86.4092L70.5761 86.2115L70.3784 86.0138L70.1807 85.8161L69.983 85.6184C68.9746 84.8276 67.5907 84.017 65.9893 83.4239C64.981 83.0285 63.3993 82.6133 61.9956 82.2179L61.8968 82.1783ZM75.499 70.7706C75.499 65.9664 71.703 62.1704 66.8987 62.1704C62.0945 62.1704 58.2985 65.9664 58.2985 70.7706C58.2985 75.5749 62.0945 79.3709 66.8987 79.3709C71.703 79.3709 75.499 75.5749 75.499 70.7706Z" fill="white"/>
<path d="M33.1107 103.768C33.3084 104.776 32.5175 105.765 31.5092 105.765C30.5009 105.765 29.5124 105.172 29.5124 104.163C29.3147 103.155 30.1055 102.166 31.1138 102.166C32.1221 101.969 32.913 102.76 33.1107 103.768Z" fill="white"/>
<path d="M29.9076 88.1688C32.2999 90.5611 37.9148 99.9719 39.2987 103.372C40.1093 104.974 40.307 106.378 39.6941 107.366C38.9033 109.165 26.685 114.167 23.8974 115.769C22.6913 116.559 22.0982 116.777 21.5051 115.571C19.706 110.569 21.3074 102.364 19.9037 96.3736C19.5083 94.5745 18.6977 92.7754 19.3106 91.5694C19.9037 90.1657 24.3125 88.3665 25.7163 87.5757C26.9223 86.9826 28.1085 86.3697 29.9076 88.1688ZM31.5091 105.765C32.5174 105.567 33.3082 104.756 33.1105 103.768C32.9128 102.76 32.1022 101.969 31.1136 102.166C30.1053 102.364 29.3145 103.175 29.5122 104.163C29.5122 105.172 30.5008 105.765 31.5091 105.765Z" fill="#669F77"/>
<path d="M71.9006 90.5809C72.4937 90.1855 73.502 89.5726 74.4905 88.9794C75.8942 88.1886 77.6934 87.1803 79.2948 86.3895C82.4976 84.9858 86.0959 83.7798 88.6858 83.3843C91.0781 82.9889 94.6961 83.1866 94.8938 86.3895C95.2892 91.3915 73.3043 103.788 66.7009 104.381C55.2932 105.191 53.0987 97.7774 39.101 103.175C37.6973 99.7742 32.1022 90.3831 29.71 87.9711C33.7036 85.7766 40.7024 81.7631 45.1113 80.9723C46.3173 80.7746 48.3142 80.5769 50.7064 80.7746H52.1101C52.7032 80.7746 53.3161 80.7746 53.9093 80.9723H55.1153C55.313 80.9723 55.7084 80.9723 55.9061 81.17C56.4992 81.17 57.3098 81.3677 57.9029 81.5654H58.1006C58.2983 81.5654 58.6937 81.5654 58.9112 81.7631C61.3035 82.1586 63.7155 82.7714 65.7123 83.5623C67.3138 84.1554 68.7175 84.966 69.706 85.7568L69.9037 85.9545L70.1014 86.1522L70.2991 86.3499L70.4968 86.5476L70.6945 86.7454L70.8923 86.9431L71.09 87.1408C71.09 87.1408 71.09 87.3385 71.2877 87.3385C71.2877 87.3385 71.2877 87.5362 71.4854 87.5362C71.4854 87.5362 71.4854 87.7339 71.6831 87.7339V89.7307V90.1261C72.0785 90.1261 72.0785 90.3238 71.8808 90.5215C72.0126 90.5215 72.0126 90.5215 71.8808 90.5215L71.9006 90.5809Z" fill="#669F77"/>
<path d="M66.7011 93.7837C63.1029 93.7837 58.8917 92.7754 55.0958 91.7869C54.8981 91.7869 54.7004 91.5892 54.5026 91.5892C54.1072 91.3915 53.6921 90.9961 53.9095 90.5809C54.1072 90.1855 54.5026 89.79 54.9178 89.9877C55.1155 89.9877 55.3132 89.9877 55.5109 90.1855C67.9072 93.586 70.5169 91.7869 71.11 90.3832C71.3077 89.9877 71.7031 89.5923 72.0985 89.79C72.494 89.9878 72.9091 90.3832 72.6917 90.7786V90.9763C72.0985 92.9731 69.6865 93.7837 66.7011 93.7837Z" fill="#2C6941"/>
<path d="M72.0986 90.9763C71.5055 90.7786 71.1101 90.3831 71.3078 89.968V89.7703C71.3078 89.3748 71.7032 88.9597 72.0986 88.9597C72.494 88.9597 72.9092 89.3551 72.9092 89.7703V90.3634C72.9092 90.5611 72.5138 90.9565 72.0986 90.9565V90.9763Z" fill="#2C6941"/>
<path d="M22.5136 117.172H21.9205C21.1297 116.975 20.9122 115.966 20.7145 115.769C19.7062 112.961 19.7062 109.561 19.7062 105.765C19.7062 102.562 19.7062 99.1613 18.8956 96.3736C18.8956 95.9782 18.6979 95.5828 18.5002 95.1676C18.1047 93.5662 17.7093 92.1625 18.3025 90.9763C18.8956 89.7703 21.3076 88.3863 24.293 86.9826C24.6884 86.7849 24.8861 86.5872 25.3013 86.5872C26.3096 86.1918 28.1087 85.1835 30.3032 87.3978C30.6987 87.7932 30.6987 88.4061 30.3032 88.6038C29.9078 88.9992 29.2949 88.9992 29.0972 88.6038C27.6935 87.2001 26.9027 87.5955 26.0921 88.0107C25.8944 88.2084 25.499 88.2084 25.0838 88.4061C23.8778 88.9992 20.2795 90.6006 19.8841 91.4112C19.4887 92.0043 19.8841 93.2103 20.2795 94.4164C20.4772 94.8118 20.4772 95.227 20.6749 95.6224C21.4658 98.6275 21.4658 102.028 21.4658 105.429C21.4658 109.027 21.4658 112.23 22.2566 114.82V115.017C22.4543 115.017 22.8497 114.622 23.2649 114.622C24.2732 114.029 26.27 113.218 28.4646 112.032C31.8651 110.431 38.0731 107.623 38.6662 106.635C38.8639 106.042 38.8639 105.033 38.0731 103.432C37.8754 103.036 38.0731 102.443 38.4685 102.226C38.8639 102.028 39.4768 102.226 39.6745 102.621C40.4851 104.618 40.6828 106.022 40.07 107.228C39.4768 108.434 36.274 110.233 28.8798 113.633C26.6852 114.642 24.6884 115.63 23.8778 116.026C23.8778 116.836 23.087 117.232 22.4741 117.232L22.5136 117.172Z" fill="#2C6941"/>
<path d="M31.3117 106.575C29.908 106.575 28.702 105.567 28.5042 104.183C28.3065 102.779 29.5126 101.376 30.8965 101.178C32.4979 100.98 33.7039 102.186 33.9016 103.57C34.0993 104.974 32.8933 106.378 31.5094 106.575H31.3117ZM31.3117 102.977C30.7186 102.977 30.3034 103.57 30.3034 103.985C30.3034 104.578 30.8965 104.796 31.3117 104.796C31.7269 104.796 32.1025 104.203 32.1025 103.788C32.1025 103.372 31.7071 102.977 31.3117 102.977Z" fill="#2C6941"/>
<path d="M52.5055 81.7829H50.9041C50.5087 81.7829 50.1133 81.3875 50.1133 80.7746C50.1133 80.3792 50.5087 79.9838 51.1216 79.9838H52.723C53.1184 79.9838 53.5138 80.3792 53.5138 80.9921C53.3161 81.3875 52.9207 81.7829 52.5055 81.7829Z" fill="#2C6941"/>
<path d="M55.511 81.9806C55.3792 81.9806 55.3792 81.9806 55.511 81.9806H54.305C53.9096 81.9806 53.5142 81.5852 53.5142 80.9723C53.5142 80.5769 53.9096 80.1617 54.5225 80.1617H55.7285C56.1239 80.1617 56.5391 80.5572 56.5391 81.1701C56.3414 81.7632 55.946 81.9806 55.5308 81.9806H55.511Z" fill="#2C6941"/>
<path d="M58.2984 82.3761C57.5075 82.1783 56.8946 82.1784 56.1038 81.9806C55.7084 81.9806 55.313 81.3875 55.313 80.9723C55.313 80.5572 55.9061 80.1617 56.3213 80.1617C57.1121 80.1617 57.725 80.3595 58.5158 80.5572C58.9112 80.5572 59.3067 81.1503 59.3067 81.5655C59.109 82.1586 58.7135 82.3563 58.2984 82.3563V82.3761Z" fill="#2C6941"/>
<path d="M70.9123 87.378C70.7146 87.378 70.5169 87.1803 70.3192 86.9826L70.1215 86.7849L69.9238 86.5872C69.9238 86.5872 69.726 86.5872 69.726 86.3895C69.726 86.3895 69.5283 86.3895 69.5283 86.1918C68.52 85.4009 67.3338 84.788 65.7324 84.1949C64.5264 83.7995 63.1226 83.1866 61.541 82.9889C60.7502 82.7912 59.9396 82.5935 58.951 82.3958C58.7533 82.3958 58.3579 82.3958 58.1404 82.1981C57.745 82.1981 57.3496 81.605 57.3496 81.1898C57.3496 80.7746 57.9427 80.399 58.3579 80.399C58.5556 80.399 58.951 80.399 59.1487 80.5967C59.9593 80.7944 60.9479 80.9921 61.7585 81.1898C63.3599 81.5852 64.9613 82.0004 66.1673 82.5935C67.9665 83.1866 69.3702 83.9972 70.3587 84.788L70.5564 84.9858L70.7541 85.1835L70.9518 85.3812L71.1495 85.5789C71.5449 85.9743 71.3472 86.5872 71.1495 86.7849C71.3472 87.378 71.1495 87.378 70.9518 87.378H70.9123Z" fill="#2C6941"/>
<path d="M71.9008 88.7817C71.5054 88.7817 71.3076 88.584 71.1099 88.1886V87.9909V87.7932V87.5955C71.1099 87.5955 71.1099 87.3978 70.9122 87.3978V87.2001L70.7145 87.0024C70.3191 86.6069 70.3191 85.9941 70.7145 85.7963C71.1099 85.4009 71.7228 85.4009 71.9205 85.7963L72.1182 85.994L72.3159 86.1918L72.5137 86.3895L72.7114 86.5872L72.9091 86.7849C72.9091 86.7849 72.9091 86.9826 73.1068 86.9826C73.3045 87.378 73.1068 87.9909 72.7114 88.1886C72.1182 88.7817 71.9205 88.7817 71.9205 88.7817H71.9008Z" fill="#2C6941"/>
<path d="M71.9006 88.9794C71.5052 88.9794 71.1098 88.7817 71.1098 88.3863C70.9121 87.9909 71.1098 87.3978 71.5052 87.1803C71.9006 86.9826 72.5135 87.1803 72.7112 87.5757V87.7734C72.9089 88.1688 72.7112 88.7817 72.1181 88.9794H71.9204H71.9006Z" fill="#2C6941"/>
<path d="M72.0984 89.3749C71.703 89.3749 71.3075 89.1772 71.3075 88.584C71.1098 88.1886 71.3075 87.5757 71.9007 87.378C72.2961 87.1803 72.909 87.378 73.1067 87.9711V88.1689C73.1067 88.762 72.7113 89.1772 72.0984 89.3749Z" fill="#2C6941"/>
<path d="M65.0996 105.369C61.3036 105.369 58.6939 104.579 55.9062 103.57C51.4974 102.166 47.7014 100.98 39.5164 103.966C39.121 104.163 38.5081 103.966 38.3104 103.57C36.7089 99.9719 31.3115 90.7786 29.117 88.762C28.9193 88.5643 28.7216 88.3666 28.9193 87.9514C28.9193 87.7537 29.117 87.3583 29.3147 87.3583C36.3135 83.3646 41.5132 80.9526 44.9138 80.1617C46.3175 79.964 48.3143 79.7663 50.7066 79.964C51.102 79.964 51.4974 80.3594 51.4974 80.9723C51.4974 81.3677 51.102 81.7632 50.4891 81.7632C48.2945 81.7632 46.2977 81.7632 45.0917 81.9609C42.0866 82.554 37.2823 84.7683 30.8964 88.3666C33.4863 91.5694 37.6975 98.7659 39.2989 102.166C47.5037 99.1613 51.6951 100.565 56.104 101.969C59.1091 102.977 61.8968 103.966 66.3056 103.57C69.3108 103.373 76.1119 100.367 82.7153 96.3737C90.5247 91.5694 93.9054 87.9711 93.7077 86.5674C93.7077 85.9743 93.51 85.3614 92.9169 85.1637C92.1063 84.5706 90.3072 84.1554 88.3104 84.5706C85.9181 84.966 82.5176 85.9743 79.117 87.378C77.3179 88.1689 75.7164 88.9795 74.3127 89.7703C73.3044 90.3634 72.5136 90.9763 71.9205 91.5694C71.5251 91.7671 71.1297 91.7671 70.9122 91.5694C70.5168 91.3717 70.5168 90.9763 70.5168 90.5611V90.1657V89.968V89.1772C70.5168 88.7817 70.7145 88.1689 71.3076 88.1689C71.703 88.1689 72.3159 88.3666 72.3159 88.9597V89.1574C72.7113 88.9597 72.909 88.762 73.3242 88.5643C74.7279 87.7734 76.527 86.7651 78.3262 85.9545C81.9244 84.3531 85.325 83.3646 87.9347 82.9494C89.3384 82.7517 92.1261 82.554 93.9252 83.9577C94.7358 84.5508 95.3289 85.5591 95.3289 86.7651C95.5266 90.3634 87.9347 95.5631 83.3281 98.3705C77.7331 101.771 69.9236 105.567 66.1277 105.765C66.3254 105.369 65.7323 105.369 65.1194 105.369H65.0996Z" fill="#2C6941"/>
<path d="M74.5105 89.968H72.1182C71.7228 89.968 71.3274 89.5726 71.3274 89.1771V88.9794V88.7817V88.584V88.3863V88.1886C71.3274 88.1886 71.3274 87.9909 71.1297 87.9909C71.1297 87.9909 71.1297 87.7932 70.932 87.7932C70.932 87.7932 70.932 87.5955 70.7343 87.5955L70.5366 87.3978L70.3389 87.2001L70.1412 87.0024L69.9435 86.8047L69.7458 86.607L69.5481 86.4093C68.5398 85.5987 67.3535 85.0055 65.7521 84.4124C63.953 83.6018 61.5607 83.0087 59.1487 82.6133L58.3579 82.4156H58.1602C57.3693 82.2179 56.7564 82.2179 56.1633 82.2179C55.9656 82.2179 55.5702 82.2179 55.3725 82.0202H54.1665C53.5734 82.0202 52.9605 82.0202 52.5651 81.8225H51.1613C50.7659 81.8225 50.5682 81.6248 50.3508 81.2293C48.7493 77.8288 47.9585 73.8351 47.9585 70.4346C47.9585 65.4326 50.5682 61.4389 53.3559 57.4255C55.7481 53.8272 58.1602 50.229 59.5639 45.227C59.7616 44.8316 60.157 44.4164 60.7699 44.6339C61.1653 44.8316 61.5607 45.227 61.363 45.8399C59.9593 51.0396 57.1716 55.0332 54.7596 58.4338C51.9522 62.4275 49.5599 66.0257 49.5599 70.4346C49.5599 73.4397 50.3507 76.8403 51.5568 80.0431H52.5651C53.1582 80.0431 53.7711 80.0431 54.3642 80.2408H55.5702C55.7679 80.2408 56.1633 80.2408 56.361 80.4385C56.9541 80.4385 57.7647 80.6362 58.5556 80.8339H58.7533L59.5441 81.0316C62.1538 81.4271 64.5461 82.2377 66.5429 82.8308C68.342 83.4239 69.7458 84.2345 70.7343 85.0253C70.932 85.0253 70.932 85.223 70.932 85.223C70.932 85.223 71.1297 85.223 71.1297 85.4207C71.1297 85.4207 71.3274 85.4207 71.3274 85.6184L71.5251 85.8161C71.5251 85.8161 71.5251 86.0138 71.7228 86.0138L71.9205 86.2116L72.1182 86.4093C72.1182 86.4093 72.1182 86.607 72.3159 86.607C72.3159 86.8047 72.5137 86.8047 72.5137 86.8047C72.5137 86.8047 72.5137 87.0024 72.7114 87.0024V87.2001V87.3978H74.1151C75.5188 86.5872 77.1202 85.7964 78.7216 85.0055C81.9245 81.2096 84.119 75.0016 84.119 69.8019C84.119 65.1953 81.7268 61.7948 78.9193 57.8011C76.5271 54.4006 73.9174 50.4069 72.3159 45.2072C72.1182 44.8118 72.5137 44.1989 72.9091 44.0012C73.3045 43.8035 73.9174 44.1989 74.1151 44.5943C75.5188 49.5963 77.9111 53.1946 80.3231 56.7928C83.1305 60.9842 85.7205 64.7999 85.7205 69.8019C85.7205 75.5947 83.3282 82.3958 79.7299 86.4093C79.7299 86.4093 79.5322 86.607 79.3345 86.607C77.5354 87.4176 75.934 88.2084 74.5303 88.9992C74.9257 89.8098 74.728 90.0075 74.5303 90.0075L74.5105 89.968Z" fill="#2C6941"/>
<path d="M72.7114 42.7754C72.316 42.7754 71.9206 42.38 71.9206 41.9648C71.3275 37.7734 71.5252 32.3563 72.5137 27.9672H71.11C70.2994 27.9672 69.7063 28.1649 68.9155 28.3626C68.3223 28.5603 67.5118 28.758 66.7209 28.758C65.7126 28.758 64.9218 28.5603 64.1112 28.3626C63.3204 28.1649 62.5098 27.9672 61.5015 27.9672C62.5098 32.5737 62.7075 37.9711 62.0946 41.9648C62.0946 42.3602 61.5015 42.7754 61.0863 42.7754C60.6711 42.7754 60.2955 42.1823 60.2955 41.7671C60.8886 37.5757 60.6909 31.9608 59.4849 27.374C59.4849 27.1763 59.4849 26.9786 59.6826 26.7809C59.8803 26.5832 60.078 26.3855 60.2757 26.3855C62.4702 25.9901 63.6762 26.3855 64.6845 26.5832C65.2777 26.7809 65.8906 26.9786 66.6814 26.9786C67.2745 26.9786 67.8874 26.7809 68.4805 26.5832C69.2713 26.3855 70.0819 26.1878 71.2879 26.1878H71.4857C72.2765 26.1878 73.0871 26.1878 73.6802 26.3855C73.8779 26.3855 74.0756 26.5832 74.2733 26.7809C74.471 26.9786 74.471 27.1763 74.471 27.374C73.4825 31.9806 73.0673 37.378 73.6802 41.7671C73.6802 42.1625 73.4825 42.7754 72.6719 42.7754C72.8037 42.7754 72.8037 42.7754 72.6719 42.7754H72.7114Z" fill="#2C6941"/>
<path d="M74.7083 46.3737H59.307C57.9033 46.3737 56.6973 45.1677 56.6973 43.7837C56.6973 42.9731 56.895 42.38 57.5079 41.9846C58.101 41.3915 58.7139 41.1938 59.307 41.1938H74.7083C76.1121 41.1938 77.3181 42.3998 77.3181 43.8035C77.3181 44.5943 77.1204 45.2072 76.5075 45.6026C76.1121 46.1957 75.3015 46.3934 74.7083 46.3934V46.3737ZM59.1093 42.7754C58.9116 42.7754 58.7139 42.7754 58.5162 42.9731C58.3185 43.1708 58.3185 43.3685 58.3185 43.5662C58.3185 43.9616 58.7139 44.3571 59.1093 44.3571H74.5106C74.7083 44.3571 74.906 44.3571 75.1037 44.1594C75.3015 43.9616 75.3015 43.7639 75.3015 43.5662C75.3015 43.1708 74.906 42.7754 74.4909 42.7754H59.0895H59.1093Z" fill="#2C6941"/>
<path d="M66.8986 80.3792C61.6989 80.3792 57.29 76.1878 57.29 70.7707C57.29 65.3535 61.4814 61.1621 66.8986 61.1621C72.3157 61.1621 76.5071 65.3535 76.5071 70.7707C76.5071 76.1878 72.0983 80.3792 66.8986 80.3792ZM66.8986 62.981C62.7072 62.981 59.0892 66.3816 59.0892 70.7904C59.0892 75.1993 62.4897 78.5998 66.8986 78.5998C71.3074 78.5998 74.708 75.1993 74.708 70.7904C74.708 66.3816 71.1097 62.981 66.8986 62.981Z" fill="#2C6941"/>
<path d="M61.8969 83.1866H61.5015C55.2935 80.3792 53.2967 73.9933 53.099 73.5781C52.9013 73.1827 53.2967 72.5698 53.6921 72.3721C54.0875 72.1744 54.7004 72.5698 54.8981 72.9652C54.8981 72.9652 56.6972 78.9755 62.2923 81.3677C62.6877 81.5654 62.8854 82.1586 62.6877 82.5737C62.49 82.9691 62.0946 83.1669 61.8771 83.1669L61.8969 83.1866Z" fill="#2C6941"/>
<path d="M88.9033 22.1744C88.5079 22.1744 88.3102 21.9767 88.0927 21.779C87.895 21.3835 88.0927 20.7707 88.4881 20.5729L95.0915 16.9747C95.4869 16.777 96.0998 16.9747 96.2975 17.3701C96.4952 17.7655 96.2975 18.3784 95.9021 18.5761L89.2987 22.1744H88.9033Z" fill="#2C6941"/>
<path d="M44.3009 22.1744C44.1691 22.1744 44.0373 22.1085 43.9055 21.9767L37.3021 18.3784C36.9067 18.1807 36.709 17.5876 36.9067 17.1724C37.1044 16.777 37.7173 16.5793 38.1127 16.777L44.7161 20.3753C45.1115 20.573 45.3092 21.1661 45.1115 21.5813C44.9138 21.9767 44.5184 22.1744 44.3207 22.1744H44.3009Z" fill="#2C6941"/>
<path d="M78.8995 14.187C78.7018 14.187 78.5041 14.187 78.5041 13.9893C78.1086 13.7916 77.9109 13.1985 78.3064 12.7833L80.6986 8.98734C80.8963 8.59192 81.4894 8.39422 81.9046 8.78963C82.3 8.98734 82.4977 9.58046 82.1023 9.99564L79.7101 13.7916C79.5124 13.9893 79.3147 14.187 78.8995 14.187Z" fill="#2C6941"/>
<path d="M95.9022 34.1752H91.098C90.7025 34.1752 90.3071 33.7797 90.3071 33.3646C90.3071 32.9494 90.7025 32.5737 91.098 32.5737H95.9022C96.2976 32.5737 96.7128 32.9691 96.7128 33.3646C96.7128 33.76 96.5151 34.1752 95.9022 34.1752Z" fill="#2C6941"/>
<path d="M42.1063 34.1752H37.3021C36.9066 34.1752 36.5112 33.7797 36.5112 33.3646C36.5112 32.9494 36.9066 32.5737 37.3021 32.5737H42.1063C42.5017 32.5737 42.9169 32.9691 42.9169 33.3646C42.9169 33.76 42.5215 34.1752 42.1063 34.1752Z" fill="#2C6941"/>
<path d="M54.3046 14.187C53.9092 14.187 53.7115 13.9893 53.5138 13.7916L51.1216 9.99566C50.9239 9.60025 50.9239 9.00713 51.3193 8.78966C51.7147 8.59195 52.3276 8.59195 52.5253 8.98736L54.9175 12.7833C55.1152 13.1787 55.1152 13.7916 54.7198 13.9893C54.7198 14.187 54.5221 14.187 54.3244 14.187H54.3046Z" fill="#2C6941"/>
<path d="M66.7012 20.573C66.3058 20.573 65.8906 20.1775 65.8906 19.7624V15.571C65.8906 15.1756 66.286 14.7802 66.7012 14.7802C67.1164 14.7802 67.4921 15.1756 67.4921 15.571V19.7624C67.4921 20.1578 67.0966 20.573 66.7012 20.573Z" fill="#2C6941"/>
<path d="M66.7012 10.1736C66.3058 10.1736 65.8906 9.77817 65.8906 9.38276V1.79083C65.8906 1.39541 66.286 1 66.7012 1C67.1164 1 67.4921 1.39541 67.4921 1.79083V9.38276C67.4921 9.77817 67.0966 10.1736 66.7012 10.1736Z" fill="#2C6941"/>
<path d="M78.5043 27.3741C78.1089 27.3741 77.9112 27.1764 77.7135 26.9787C77.5158 26.5832 77.5157 25.9704 78.1089 25.7726L81.7071 23.7758C82.1025 23.5781 82.7154 23.5781 82.9131 24.1712C83.1108 24.5666 83.1108 25.1795 82.5177 25.3772L78.9195 27.3741H78.5241H78.5043Z" fill="#2C6941"/>
<path d="M54.7 27.3741C54.5023 27.3741 54.3046 27.3741 54.3046 27.1764L50.7064 25.1795C50.311 24.9818 50.1133 24.3887 50.311 23.9735C50.5087 23.5781 51.1216 23.3804 51.517 23.5781L55.1152 25.5749C55.5106 25.7727 55.7083 26.3855 55.5106 26.781C55.3129 27.1764 55.1152 27.3741 54.7 27.3741Z" fill="#2C6941"/>
<path d="M73.1067 22.985C72.909 22.985 72.7113 22.985 72.7113 22.7873C72.3158 22.5896 72.1181 21.9965 72.3158 21.5813L73.5219 19.3867C73.7196 18.9913 74.3127 18.7936 74.7279 18.9913C75.1233 19.189 75.321 19.7821 75.1233 20.1973L73.9173 22.3919C73.7196 22.7873 73.5219 22.985 73.1067 22.985Z" fill="#2C6941"/>
<path d="M60.0975 22.985C59.7021 22.985 59.5044 22.7873 59.3067 22.5896L58.1007 20.395C57.903 19.9996 57.903 19.3867 58.4961 19.189C58.8915 18.9913 59.4846 18.9913 59.7021 19.5844L60.9081 21.779C61.1058 22.1744 61.1058 22.7873 60.5127 22.985H60.1173H60.0975Z" fill="#2C6941"/>
<path d="M80.6985 114.582H41.9085C41.5131 114.582 41.1177 114.187 41.1177 113.792C41.1177 113.396 41.5131 113.001 41.9085 113.001H80.6985C81.094 113.001 81.4894 113.396 81.4894 113.792C81.4894 114.187 81.094 114.582 80.6985 114.582Z" fill="#2C6941"/>
<path d="M93.3126 118.181H61.7191C61.3236 118.181 60.9282 117.785 60.9282 117.39C60.9282 116.994 61.3236 116.579 61.7191 116.579H93.3126C93.708 116.579 94.1034 116.975 94.1034 117.39C94.1034 117.805 93.9057 118.181 93.3126 118.181Z" fill="#2C6941"/>
<path d="M100.509 118.181H96.5154C96.12 118.181 95.7246 117.785 95.7246 117.39C95.7246 116.994 96.12 116.579 96.5154 116.579H100.509C100.905 116.579 101.3 116.975 101.3 117.39C101.3 117.805 101.102 118.181 100.509 118.181Z" fill="#2C6941"/>
<path d="M48.1166 117.983H33.1107C32.7152 117.983 32.3198 117.588 32.3198 117.192C32.3198 116.797 32.7152 116.401 33.1107 116.401H48.1166C48.512 116.401 48.9074 116.797 48.9074 117.192C48.9074 117.588 48.7097 117.983 48.1166 117.983Z" fill="#2C6941"/>
<path d="M68.3025 72.3721C68.3025 72.1744 68.3025 71.9767 68.1048 71.779C67.9071 71.5813 67.7094 71.3836 67.2942 71.3836V73.5781C67.4919 73.5781 67.8873 73.3804 67.8873 73.1827C68.2827 72.985 68.2827 72.5896 68.2827 72.3721H68.3025ZM66.5033 69.5646V67.5678C66.3056 67.5678 66.1079 67.7655 65.9102 67.9632C65.7125 68.1609 65.7125 68.3586 65.7125 68.5563C65.7125 68.7541 65.7125 68.9518 65.9102 69.1495C66.1079 69.1495 66.3056 69.3472 66.5033 69.5449V69.5646ZM69.3108 70.7707C69.7062 71.1661 69.7062 71.5615 69.7062 72.1744C69.7062 72.7873 69.5085 73.3804 69.1131 73.9735C68.7177 74.3689 68.1048 74.7841 67.3139 74.7841V75.7924H66.5231V74.7841C65.93 74.7841 65.3171 74.3887 64.9217 73.9735C64.5263 73.5781 64.3286 72.9652 64.1309 72.1744L65.5346 71.9767C65.5346 72.3721 65.7323 72.5698 65.93 72.7873C66.1277 72.985 66.3254 73.1827 66.5231 73.1827V70.7904C65.7323 70.5927 65.3171 70.1973 64.9217 69.7821C64.5263 69.3867 64.3286 68.7738 64.3286 68.1807C64.3286 67.5876 64.5263 66.9747 64.9217 66.5793C65.3171 66.1839 65.93 65.9862 66.5231 65.7885H67.3139V66.3816C67.9071 66.3816 68.3222 66.5793 68.7177 66.9747C69.1131 67.3701 69.3108 67.7655 69.3108 68.3784L67.9071 68.5761C67.9071 68.1807 67.5116 67.7853 67.3139 67.5678V69.7624C68.3222 69.9601 68.9154 70.3555 69.3108 70.7707Z" fill="#2C6941"/>
</svg>
