<svg width="120" height="120" viewBox="0 0 120 120" fill="none" xmlns="http://www.w3.org/2000/svg">
<path d="M68.9831 61.2163L63.5857 65.21L65.6023 71.6157L60.1852 67.622L54.7878 71.6157L56.7846 65.21L51.3872 61.2163H58.1883L60.1852 54.8106L62.2018 61.2163H68.9831Z" fill="white"/>
<path d="M77.5835 109.813V114.617H42.7871V109.813H45.5945H45.7923H74.5981H74.7958H77.5835Z" fill="white"/>
<path d="M45.5947 105.819V99.2155H48.1847H52.7913H67.4018H72.1863H74.796V109.813H74.5983H45.7924H45.5947V105.819Z" fill="white"/>
<path d="M78.7894 44.6089V45.8149H85.7882C85.986 45.8149 86.3814 46.0127 86.3814 46.4081V59.002C86.3814 61.3942 85.5905 63.8062 84.1868 65.6054C82.7831 67.4045 80.984 68.8082 78.7894 69.4013C78.394 73.1973 76.9903 76.7956 74.5981 79.603C72.2058 82.4104 69.003 84.605 65.4047 85.6133C65.0093 87.8078 65.0093 90.0221 65.6024 92.019C65.9978 94.2135 67.0061 96.4278 68.1924 98.6224C68.3901 98.8201 68.1924 99.2155 67.9947 99.4132H53.1864C52.9887 99.4132 52.5933 99.2155 52.5933 98.8201V98.6224C53.7993 96.4278 54.5901 94.2135 55.1833 92.019C55.381 90.813 55.5787 89.6267 55.5787 88.4207C55.5787 87.4124 55.5787 86.6216 55.381 85.6133C51.7827 84.605 48.5799 82.4104 46.1876 79.603C43.7954 76.7956 42.3916 73.395 41.9962 69.4013C39.8017 68.8082 38.0026 67.4045 36.5988 65.6054C35.1951 63.8062 34.4043 61.414 34.4043 59.002V46.4081C34.4043 46.2104 34.602 45.8149 34.9974 45.8149H41.9962V40.4176C41.9962 40.2198 42.1939 39.8244 42.5893 39.8244H78.7894C78.9871 39.8244 79.3825 40.0221 79.3825 40.4176V44.6089H78.7894ZM82.5854 58.6066V49.8086H78.7894V64.8145C79.7977 64.2214 80.7863 63.4108 81.3794 62.4223C82.19 61.414 82.5854 60.0301 82.5854 58.6263V58.6066ZM63.5858 65.21L68.9832 61.2163H62.1821L60.1852 54.8106L58.1884 61.2163H51.3873L56.9824 65.21L54.7878 71.6157L60.1852 67.622L65.5826 71.6157L63.5858 65.21ZM41.581 64.8145V49.8086H37.7851V58.6066C37.7851 60.0103 38.1805 61.414 38.9911 62.6002C39.5842 63.6085 40.5925 64.3994 41.581 64.7948V64.8145Z" fill="#669F77"/>
<path d="M67.4017 100.224C67.0063 100.224 66.6108 99.8284 66.6108 99.4132C66.6108 99.2155 66.8086 98.8201 67.0063 98.6224C65.8002 96.2301 65.0094 94.2135 64.614 92.2167C64.0209 89.8244 64.0209 87.6101 64.4163 85.4156C64.4163 85.0202 64.8117 84.8225 65.0094 84.8225C68.41 83.8339 71.4151 81.8173 73.8074 79.0297C76.0019 76.2222 77.4056 73.0391 77.801 69.4211C77.801 69.0257 77.9987 68.828 78.3942 68.6303C80.391 68.0372 82.1901 66.8312 83.3961 65.2297C84.7999 63.4306 85.393 61.4338 85.393 59.2195V47.021H78.5919C78.1965 47.021 77.801 46.6255 77.801 46.2104V41.2084H42.3918V46.2104C42.3918 46.6058 41.9964 47.021 41.601 47.021H34.7999V59.2195C34.7999 61.414 35.5907 63.4108 36.7967 65.2297C38.0027 66.8312 39.8018 68.0372 41.7987 68.6303C42.1941 68.828 42.3918 69.0257 42.3918 69.4211C42.7872 73.0194 44.1909 76.2222 46.3855 79.0297C48.7777 81.8371 51.7829 83.8339 55.1834 84.8225C55.5788 84.8225 55.7765 85.2179 55.7765 85.4156C55.9742 86.4239 56.1719 87.4124 56.1719 88.4207C56.1719 89.6267 55.9742 90.813 55.7765 92.2167C55.3811 94.2135 54.5705 96.4081 53.3843 98.8201C53.582 99.0178 53.7797 99.2155 53.7797 99.6109C53.7797 100.006 53.3843 100.402 52.9889 100.402C52.198 100.402 51.5851 99.8086 51.5851 98.998C51.5851 98.8003 51.5851 98.6026 51.7829 98.2072C52.9889 95.8149 53.7797 93.7983 54.1751 91.8015C54.3728 90.5955 54.5705 89.607 54.5705 88.4009C54.5705 87.8078 54.5705 86.9972 54.3728 86.4041C50.7745 85.1981 47.5717 83.2013 45.1795 80.1961C42.7872 77.3887 41.3835 73.7904 40.7706 70.1922C38.7738 69.3816 36.7769 67.9976 35.3732 66.1985C33.7718 64.2017 32.981 61.5919 32.981 59.002V46.4081C32.981 45.6172 33.5741 45.0043 34.3847 45.0043H40.5927V40.5955C40.5927 39.8047 41.1858 39.1918 41.9964 39.1918H78.1965C78.9873 39.1918 79.6002 39.7849 79.6002 40.5955V45.0043H85.8082C86.6188 45.0043 87.2119 45.5975 87.2119 46.4081V59.002C87.2119 61.5919 86.421 64.0039 84.8196 66.1985C83.4159 67.9976 81.6168 69.4013 79.4222 70.1922C79.0268 73.7904 77.4254 77.3887 75.0332 80.1961C72.6409 83.2013 69.4381 85.1981 65.8398 86.4041C65.4444 88.2032 65.6421 90.0024 66.0375 91.9992C66.4329 93.7983 67.2435 95.9929 68.4297 98.4049C68.8252 98.998 68.6275 100.006 67.8366 100.402H67.6389C67.8366 100.006 67.6389 100.204 67.4412 100.204L67.4017 100.224Z" fill="#2C6941"/>
<path d="M78.7898 65.8229C78.5921 65.8229 78.3944 65.8228 78.3944 65.6251C78.1967 65.4274 77.999 65.2297 77.999 64.8343V49.8284C77.999 49.433 78.3944 49.0178 78.8096 49.0178H82.6056C83.001 49.0178 83.3964 49.4132 83.3964 49.8284V58.6263C83.3964 60.2278 83.001 61.8292 81.9927 63.0352C81.2019 64.0237 80.1936 65.032 79.1853 65.6251C79.0535 65.7569 78.9216 65.8229 78.7898 65.8229ZM79.7982 50.8169V63.2131C80.1936 62.8177 80.3913 62.62 80.8065 62.2048C81.5973 61.1965 81.795 60.0103 81.795 58.8043V50.9949L79.7982 50.7971V50.8169Z" fill="#2C6941"/>
<path d="M41.6011 65.8229C41.4693 65.8229 41.3375 65.7569 41.2057 65.6251C39.9997 65.032 39.0112 64.0237 38.2006 63.0352C37.1923 61.6315 36.7969 60.2278 36.7969 58.6263V49.8284C36.7969 49.433 37.1923 49.0178 37.5877 49.0178H41.3837C41.7791 49.0178 42.1745 49.4132 42.1745 49.8284V64.8343C42.1745 65.2297 41.9768 65.4274 41.7791 65.6251C41.9768 65.8228 41.7791 65.8229 41.5814 65.8229H41.6011ZM38.596 50.8169V58.6263C38.596 59.8323 38.9914 61.0186 39.6043 62.0269C39.802 62.4223 40.1974 62.8177 40.6126 63.0352V50.639H38.6158V50.8367L38.596 50.8169Z" fill="#2C6941"/>
<path d="M74.7961 110.623C74.4007 110.623 74.0053 110.228 74.0053 109.832V100.224H46.6031V109.832C46.6031 110.228 46.2077 110.623 45.8123 110.623C45.4169 110.623 45.0215 110.228 45.0215 109.832V99.2353C45.0215 98.8399 45.4169 98.4247 45.8123 98.4247H74.8159C75.2113 98.4247 75.6067 98.8201 75.6067 99.2353V109.832C75.6067 110.228 75.2113 110.623 74.8159 110.623H74.7961Z" fill="#2C6941"/>
<path d="M77.5835 115.408C77.1881 115.408 76.7927 115.012 76.7927 114.617V110.623H43.5978V114.617C43.5978 115.012 43.2023 115.408 42.8069 115.408C42.4115 115.408 42.0161 115.012 42.0161 114.617V109.813C42.0161 109.417 42.4115 109.002 42.8069 109.002H77.801C78.1964 109.002 78.5918 109.397 78.5918 109.813V114.617C78.5918 115.012 78.1964 115.408 77.5835 115.408Z" fill="#2C6941"/>
<path d="M78.7897 45.4195H57.5955C57.2001 45.4195 56.8047 45.0241 56.8047 44.6287C56.8047 44.2333 57.2001 43.8181 57.5955 43.8181H78.7897C79.1851 43.8181 79.5805 44.2135 79.5805 44.6287C79.5805 45.0439 79.3828 45.4195 78.7897 45.4195Z" fill="#2C6941"/>
<path d="M53.1865 45.4195H48.7776C48.3822 45.4195 47.9868 45.0241 47.9868 44.6287C47.9868 44.2333 48.3822 43.8181 48.7776 43.8181H53.1865C53.5819 43.8181 53.9773 44.2135 53.9773 44.6287C53.9773 45.0439 53.5819 45.4195 53.1865 45.4195Z" fill="#2C6941"/>
<path d="M61.1936 106.61H45.5945C45.1991 106.61 44.8037 106.214 44.8037 105.799C44.8037 105.384 45.1991 105.008 45.5945 105.008H61.1936C61.589 105.008 61.9844 105.404 61.9844 105.799C61.9844 106.195 61.7867 106.61 61.1936 106.61Z" fill="#2C6941"/>
<path d="M66.9868 106.61H64.5945C64.1991 106.61 63.8037 106.214 63.8037 105.799C63.8037 105.384 64.1991 105.008 64.5945 105.008H66.9868C67.3822 105.008 67.7776 105.404 67.7776 105.799C67.7776 106.195 67.3822 106.61 66.9868 106.61Z" fill="#2C6941"/>
<path d="M60.1854 15.0123C59.7899 15.0123 59.3945 14.6168 59.3945 14.2017V4.8106C59.3945 4.41518 59.7899 4 60.1854 4C60.5808 4 60.9762 4.39541 60.9762 4.8106V14.2017C61.1739 14.5971 60.7785 15.0123 60.1854 15.0123Z" fill="#2C6941"/>
<path d="M89.3867 30.809C88.9913 30.809 88.7936 30.6113 88.5761 30.4136C88.3784 30.0182 88.5761 29.4053 88.9715 29.2076L97.7695 24.4033C98.1649 24.2056 98.7778 24.4033 98.9755 24.7987C99.1732 25.1941 98.9755 25.807 98.58 26.0047L89.7821 30.809H89.3867Z" fill="#2C6941"/>
<path d="M30.9842 30.809C30.8524 30.809 30.7206 30.7431 30.5888 30.6113L21.7908 25.807C21.3954 25.6093 21.1977 25.0162 21.3954 24.601C21.5931 24.2056 22.1863 24.0079 22.6014 24.2056L31.3994 29.0099C31.7948 29.2076 31.9925 29.8007 31.7948 30.2159C31.5971 30.6113 31.3994 30.809 31.004 30.809H30.9842Z" fill="#2C6941"/>
<path d="M76.1998 20.6074C76.0021 20.6074 75.8044 20.6074 75.8044 20.4096C75.4089 20.2119 75.2112 19.5991 75.6066 19.2036L78.6118 14.2017C78.8095 13.8062 79.4026 13.6085 79.8178 14.004C80.2132 14.2017 80.4109 14.7948 80.0155 15.21L77.0104 20.2119C76.8127 20.4096 76.615 20.6074 76.2195 20.6074H76.1998Z" fill="#2C6941"/>
<path d="M98.3826 46.6058H92.1746C91.7792 46.6058 91.3838 46.2103 91.3838 45.8149C91.3838 45.4195 91.7792 45.0241 92.1746 45.0241H98.3826C98.778 45.0241 99.1734 45.4195 99.1734 45.8149C99.1734 46.2103 98.9757 46.6058 98.3826 46.6058Z" fill="#2C6941"/>
<path d="M27.9988 46.6058H21.7908C21.3954 46.6058 21 46.2103 21 45.8149C21 45.4195 21.3954 45.0241 21.7908 45.0241H27.9988C28.3942 45.0241 28.7896 45.4195 28.7896 45.8149C28.7896 46.2103 28.5919 46.6058 27.9988 46.6058Z" fill="#2C6941"/>
<path d="M44.191 20.6073C43.7956 20.6073 43.5978 20.4096 43.4001 20.2119L40.395 15.21C40.1973 14.8145 40.1973 14.2017 40.5927 14.0039C40.9881 13.8062 41.601 13.8062 41.7987 14.2017L44.8039 19.2036C45.0016 19.599 45.0016 20.2119 44.6061 20.4096C44.4743 20.5414 44.3425 20.6073 44.2107 20.6073H44.191Z" fill="#2C6941"/>
<path d="M60.1854 28.8122C59.7899 28.8122 59.3945 28.4168 59.3945 28.0213V22.624C59.3945 22.2285 59.7899 21.8331 60.1854 21.8331C60.5808 21.8331 60.9762 22.2285 60.9762 22.624V28.0213C61.1739 28.4168 60.7785 28.8122 60.1854 28.8122Z" fill="#2C6941"/>
<path d="M68.7859 32.015C68.5882 32.015 68.3905 32.015 68.3905 31.8173C67.995 31.6196 67.7973 31.0265 67.995 30.6113L69.5965 27.8039C69.7942 27.4085 70.3873 27.2108 70.8025 27.4085C71.1979 27.6062 71.3956 28.2191 71.1979 28.6145L69.5965 31.4219C69.3988 31.8173 69.0033 32.015 68.8056 32.015H68.7859Z" fill="#2C6941"/>
<path d="M51.5852 32.015C51.1898 32.015 50.9921 31.8173 50.7944 31.6196L49.193 28.6145C48.9952 28.2191 48.9952 27.6062 49.5884 27.4085C49.9838 27.2108 50.5967 27.2108 50.7944 27.8039L52.3958 30.6113C52.5935 31.0067 52.5935 31.6196 52.0004 31.8173C52.0004 32.015 51.8027 32.015 51.605 32.015H51.5852Z" fill="#2C6941"/>
<path d="M84.6021 115.408H37.6072C37.2118 115.408 36.8164 115.012 36.8164 114.617C36.8164 114.221 37.2118 113.826 37.6072 113.826H84.6021C84.9975 113.826 85.3929 114.221 85.3929 114.617C85.3929 115.012 84.9975 115.408 84.6021 115.408Z" fill="#2C6941"/>
<path d="M65.6026 72.4065C65.4049 72.4065 65.2071 72.4065 65.0094 72.2088L60.0075 68.6105L55.2032 72.2088C54.8078 72.4065 54.4124 72.4065 54.1949 72.2088C53.7995 72.0111 53.7995 71.6157 53.7995 71.2202L55.7963 65.4274L50.7943 61.8292C50.3989 61.6315 50.3989 61.2361 50.3989 60.8209C50.5966 60.4255 50.7943 60.2277 51.1898 60.2277H57.3977L59.1969 54.4349C59.3946 54.0395 59.5923 53.8418 59.9877 53.8418C60.3831 53.8418 60.7785 54.0395 60.7785 54.4349L62.5777 60.2277H68.7856C69.1811 60.2277 69.5765 60.4255 69.5765 60.8209C69.7742 61.2163 69.5765 61.6117 69.1811 61.8292L64.1791 65.4274L66.1759 71.2202C66.3736 71.6157 66.1759 72.0111 65.7805 72.2088C65.9782 72.4065 65.7805 72.4065 65.5828 72.4065H65.6026ZM54.1949 62.0071L57.3977 64.3994C57.7932 64.5971 57.7932 64.9925 57.7932 65.4077L56.5871 69.2036L59.79 66.8114C60.1854 66.6137 60.5808 66.6137 60.7983 66.8114L64.0011 69.2036L62.7951 65.4077C62.5974 65.0122 62.7951 64.5971 63.1905 64.3994L66.3934 62.0071H62.3997C62.0043 62.0071 61.6089 61.8094 61.6089 61.414L60.2052 57.618L58.9992 61.414C58.8015 61.8094 58.6038 62.0071 58.2083 62.0071H54.2147H54.1949Z" fill="#2C6941"/>
<path d="M63.5862 83.0233C63.1908 83.0233 62.993 82.8256 62.7953 82.6279C62.5976 82.2325 62.7953 81.6196 63.1907 81.4219C72.3841 76.2222 72.7993 72.8217 72.997 70.8248V70.6271C72.997 70.2317 73.3924 69.8363 74.0053 69.8363C74.4007 69.8363 74.7961 70.2317 74.7961 70.8248V71.0225C74.5984 73.4148 74.203 77.2305 64.199 83.0233H63.6059H63.5862Z" fill="#2C6941"/>
</svg>
