<svg width="120" height="120" viewBox="0 0 120 120" fill="none" xmlns="http://www.w3.org/2000/svg">
<path d="M98.0011 48.4061H88.3926V58.0146H98.0011V48.4061Z" fill="white"/>
<path d="M31.5915 48.4061H21.9829V58.0146H31.5915V48.4061Z" fill="white"/>
<path d="M41.3978 16.002C42.9992 16.002 44.2052 17.4057 44.2052 19.0071C44.2052 20.6085 42.9992 22.0123 41.3978 22.0123C39.7963 22.0123 38.5903 20.6085 38.5903 19.0071C38.5903 17.4057 39.7963 16.002 41.3978 16.002Z" fill="white"/>
<path d="M30.3855 16.002C31.9869 16.002 33.3907 17.4057 33.3907 19.0071C33.3907 20.6085 31.9869 22.0123 30.3855 22.0123C28.7841 22.0123 27.3804 20.6085 27.3804 19.0071C27.3804 17.4057 28.7841 16.002 30.3855 16.002Z" fill="white"/>
<path d="M19.1951 16.002C20.7965 16.002 22.0025 17.4057 22.0025 19.0071C22.0025 20.6085 20.7965 22.0123 19.1951 22.0123C17.5937 22.0123 16.1899 20.6085 16.1899 19.0071C16.1899 17.4057 17.5937 16.002 19.1951 16.002Z" fill="white"/>
<path d="M88.9858 97.3978C89.7767 98.8015 89.3812 100.403 87.9775 101.194C86.5738 101.985 84.9724 101.589 84.1816 100.185C83.3907 98.7817 83.7861 97.1803 85.1899 96.3895C86.3959 95.5987 88.195 95.9941 88.9858 97.3978Z" fill="white"/>
<path d="M79.7926 76.9945C81.1963 76.2036 82.9954 76.599 83.7863 78.0028L84.9923 80.1973L95.3916 97.9909C96.1825 99.3946 95.7871 101.194 94.3833 101.985L85.9808 106.987C84.5771 107.777 82.778 107.382 81.9871 105.978L70.3818 85.9703C69.5909 84.5666 69.9863 82.7675 71.3901 81.9767L71.7855 81.779L79.5949 77.1724L79.7926 76.9747V76.9945ZM87.9974 101.194C89.4011 100.403 89.7965 98.584 89.0057 97.3978C88.2149 95.9941 86.4158 95.5986 85.2098 96.3895C83.806 97.1803 83.4106 98.9992 84.2014 100.185C84.7946 101.589 86.5937 101.985 87.9974 101.194Z" fill="white"/>
<path d="M79.397 77.2119L71.5876 81.8185L67.1787 74.0091C67.9695 73.8114 68.9778 73.416 69.7884 73.0008C69.9861 73.0008 69.9861 72.8031 70.1839 72.8031C70.3816 72.8031 70.5793 72.6054 70.5793 72.6054C70.5793 72.6054 70.777 72.6054 70.777 72.4077C70.9747 72.4077 70.9747 72.21 71.1724 72.21C71.3701 72.21 71.3701 72.0122 71.5678 72.0122L71.7655 71.8145C71.9632 71.6168 72.1609 71.6168 72.3586 71.4191L72.5563 71.2214C72.5563 71.2214 72.754 71.0237 72.9517 71.0237C72.9517 71.0237 73.1495 71.0237 73.1495 70.826L73.3472 70.6283H73.5449C73.9403 70.2329 74.3357 70.0352 74.7509 69.62L79.3574 77.2119H79.397Z" fill="white"/>
<path d="M69.3931 43.6018H50.1958V62.7991H69.3931V43.6018Z" fill="white"/>
<path d="M79.1994 42.6133C84.399 51.6089 82.4022 62.8189 75.008 69.4223C74.6126 69.8177 74.2171 70.2131 73.802 70.4306H73.6043L73.4065 70.6283C73.4065 70.6283 73.2088 70.6283 73.2088 70.826C73.2088 70.826 73.0111 71.0237 72.8134 71.0237L72.6157 71.2214C72.418 71.4191 72.2203 71.4191 72.0226 71.6169L71.8249 71.8146C71.6272 71.8146 71.6272 72.0123 71.4295 72.0123C70.0258 72.8031 68.622 73.416 67.2381 73.8114C57.6296 76.8165 47.0325 73.0206 41.8328 64.0051C35.8423 53.6058 39.4406 40.399 49.8399 34.4085C60.0416 28.8134 73.2484 32.2139 79.2389 42.6133H79.1994ZM69.3931 62.8189V43.6216H50.1958V62.8189H69.3931Z" fill="white"/>
<path d="M5.79077 26.2036V21.7948C5.79077 16.1997 10.3973 11.7908 15.7947 11.7908H103.596C108.994 11.7908 113.6 16.1997 113.6 21.7948V70.3911C113.6 75.9862 108.994 80.395 103.596 80.395H84.7943L83.5883 78.2005C82.7975 76.7968 80.9786 76.4014 79.5946 77.1922L79.1992 77.3899L74.7904 69.3828C82.1846 62.5817 84.1814 51.5892 78.9817 42.5737C72.9715 32.1744 59.7844 28.7738 49.3851 34.5666C38.9857 40.5571 35.5851 53.7639 41.378 64.1633C46.5776 73.159 57.3724 76.9549 66.7833 73.9696L70.3815 80.3753H15.7749C10.1799 80.3753 5.771 75.7687 5.771 70.3713V26.1641L5.79077 26.2036ZM97.9813 57.9949V48.3863H88.3728V57.9949H97.9813ZM44.3831 18.9874C44.3831 17.3859 43.1771 15.9822 41.5757 15.9822C39.9742 15.9822 38.7682 17.3859 38.7682 18.9874C38.7682 20.5888 39.9742 21.9925 41.5757 21.9925C43.1771 21.7948 44.3831 20.5888 44.3831 18.9874ZM33.1929 18.9874C33.1929 17.3859 31.7892 15.9822 30.1878 15.9822C28.5863 15.9822 27.1826 17.3859 27.1826 18.9874C27.1826 20.5888 28.5863 21.9925 30.1878 21.9925C31.9869 21.7948 33.1929 20.5888 33.1929 18.9874ZM31.5915 57.9949V48.3863H21.9829V57.9949H31.5915ZM21.9829 18.9874C21.9829 17.3859 20.7769 15.9822 19.1755 15.9822C17.5741 15.9822 16.1704 17.3859 16.1704 18.9874C16.1704 20.5888 17.3764 21.9925 19.1755 21.9925C20.7769 21.7948 21.9829 20.5888 21.9829 18.9874Z" fill="#669F77"/>
<path d="M103.794 81.2056H84.9921C84.5967 81.2056 84.399 81.0079 84.2013 80.8102L82.7975 78.6156C82.5998 78.2202 82.7975 77.6074 83.193 77.4097C83.5884 77.2119 84.2013 77.4096 84.399 77.8051L85.4073 79.6042H103.616C108.618 79.6042 112.809 75.6105 112.809 70.4108V21.8145C112.809 16.8126 108.816 12.8189 103.616 12.8189H15.7948C10.7928 12.8189 6.60142 16.8126 6.60142 21.8145V70.4108C6.60142 75.4128 10.5951 79.6042 15.7948 79.6042H68.9976L66.1902 74.6022C65.9925 74.2068 66.1902 73.5939 66.5856 73.3962C66.981 73.1985 67.5939 73.3962 67.7916 73.7916L71.3899 80.1973C71.5876 80.395 71.5876 80.7904 71.3899 80.9881C71.1922 81.1858 70.9945 81.3835 70.599 81.3835H15.7948C9.7845 81.3835 5 76.5793 5 70.3911V21.7948C5 15.7845 9.80427 11 15.7948 11H103.596C109.587 11 114.391 15.8043 114.391 21.7948V70.3911C114.589 76.3816 109.784 81.1858 103.794 81.1858V81.2056Z" fill="#2C6941"/>
<path d="M67.0006 74.9976C66.6052 74.9976 66.2098 74.7999 66.2098 74.4045C66.0121 74.0091 66.4075 73.3962 66.8029 73.1985C67.5938 73.0008 68.6021 72.6054 69.3929 72.1902C69.5906 72.1902 69.5906 71.9925 69.7883 71.9925L70.1837 72.7833L70.5791 73.5741C70.3814 73.5741 70.3814 73.7719 70.1837 73.7719C69.3929 74.1673 68.3846 74.5627 67.3763 74.7802C67.2445 74.912 67.1127 74.9779 66.9809 74.9779L67.0006 74.9976Z" fill="#2C6941"/>
<path d="M70.5989 73.3962C70.2034 73.3962 70.0057 73.1985 69.808 73.0008C69.6103 72.6054 69.808 71.9925 70.2034 71.7948H70.4011C70.7966 71.5971 71.4095 71.5971 71.6072 72.1902C71.8049 72.5856 71.8049 73.1985 71.2117 73.3962C71.2117 73.3962 71.014 73.3962 71.014 73.5939C70.8822 73.4621 70.7504 73.3962 70.6186 73.3962H70.5989Z" fill="#2C6941"/>
<path d="M79.3968 78.2005C79.1991 78.2005 78.8036 78.0028 78.6059 77.8051C78.4082 77.4097 78.4082 76.7968 78.8036 76.5991L79.1991 76.4013C79.5945 76.2036 80.2074 76.2036 80.4051 76.5991C80.6028 76.9945 80.6028 77.6074 80.2074 77.8051L79.812 78.0028C79.812 78.2005 79.6142 78.2005 79.4165 78.2005H79.3968Z" fill="#2C6941"/>
<path d="M85.5852 26.9945H5.79083C5.39541 26.9945 5 26.5991 5 26.2036C5 25.8082 5.39541 25.4128 5.79083 25.4128H85.5852C85.9806 25.4128 86.376 25.8082 86.376 26.2036C86.376 26.5991 86.1783 26.9945 85.5852 26.9945Z" fill="#2C6941"/>
<path d="M19.1954 22.8031C17.1985 22.8031 15.3994 21.004 15.3994 19.0071C15.3994 16.8126 17.1985 15.2112 19.1954 15.2112C21.1922 15.2112 22.9913 17.0103 22.9913 19.0071C22.9913 21.004 21.1922 22.8031 19.1954 22.8031ZM19.1954 16.7928C17.9894 16.7928 17.1985 17.8011 17.1985 18.7896C17.1985 19.9956 17.9894 20.7865 19.1954 20.7865C20.2037 20.7865 21.1922 19.9956 21.1922 18.7896C21.1922 17.7813 20.1839 16.7928 19.1954 16.7928Z" fill="#2C6941"/>
<path d="M30.3853 22.8031C28.3885 22.8031 26.5894 21.004 26.5894 19.0071C26.5894 16.8126 28.3885 15.2112 30.3853 15.2112C32.3822 15.2112 34.1813 17.0103 34.1813 19.0071C34.1813 21.004 32.3822 22.8031 30.3853 22.8031ZM30.3853 16.7928C29.1793 16.7928 28.3885 17.8011 28.3885 18.7896C28.3885 19.9956 29.3968 20.7865 30.3853 20.7865C31.5913 20.7865 32.3822 19.9956 32.3822 18.7896C32.3822 17.7813 31.3739 16.7928 30.3853 16.7928Z" fill="#2C6941"/>
<path d="M41.398 22.8031C39.4012 22.8031 37.6021 21.004 37.6021 19.0071C37.6021 16.8126 39.4012 15.2112 41.398 15.2112C43.3949 15.2112 45.194 17.0103 45.194 19.0071C45.194 21.004 43.5926 22.8031 41.398 22.8031ZM41.398 16.7928C40.192 16.7928 39.4012 17.8011 39.4012 18.7896C39.4012 19.9956 40.192 20.7865 41.398 20.7865C42.604 20.7865 43.3949 19.9956 43.3949 18.7896C43.3949 17.7813 42.604 16.7928 41.398 16.7928Z" fill="#2C6941"/>
<path d="M69.3929 63.8074H50.1956C49.8002 63.8074 49.4048 63.412 49.4048 63.0166V43.8193C49.4048 43.4239 49.8002 43.0285 50.1956 43.0285H69.3929C69.7883 43.0285 70.1838 43.4239 70.1838 43.8193V63.0166C70.3815 63.412 69.986 63.8074 69.3929 63.8074ZM51.1841 62.0083H68.5823V44.6101H51.1841V62.0083Z" fill="#2C6941"/>
<path d="M60.3973 76.0059C57.5899 76.0059 54.9999 75.6105 52.3902 74.6022C47.5859 72.6054 43.3945 69.2048 40.7848 64.5983C34.5768 53.8035 38.3926 40.0036 48.9896 33.7956C59.7844 27.5876 73.5843 31.2056 79.7923 42.0004C82.3823 46.4093 83.3906 51.8067 82.5998 56.8086C81.8089 61.8106 79.1992 66.4172 75.4032 70.0154C75.0078 70.4108 74.6124 70.8063 74.1972 71.0237C73.8018 71.4191 73.1889 71.2214 72.9912 70.826C72.5958 70.4306 72.7935 69.8177 73.1889 69.62C73.5843 69.2246 73.9797 69.0269 74.3949 68.6117C81.5914 62.0083 83.3906 51.2135 78.3886 42.811C72.5958 33.0048 59.9821 29.4065 49.9979 35.2191C40.1917 41.0119 36.7911 53.6256 42.406 63.6097C47.2103 72.0123 57.6096 76.0059 66.803 73.0008C67.5938 72.8031 68.6021 72.4077 69.3929 71.9925C69.5907 71.9925 69.5907 71.7948 69.7884 71.7948C69.9861 71.7948 69.9861 71.5971 70.1838 71.5971H70.3815C70.5792 71.5971 70.5792 71.3994 70.7769 71.3994C71.1723 71.2017 71.7852 71.2017 71.9829 71.7948C72.1806 72.1902 72.1806 72.8031 71.5875 73.0008C71.3898 73.0008 71.3898 73.1985 71.1921 73.1985C71.1921 73.1985 70.9944 73.1985 70.9944 73.3962C70.7967 73.3962 70.599 73.5939 70.599 73.5939C70.4013 73.5939 70.2035 73.7916 70.2035 73.7916C69.4127 74.187 68.4044 74.5825 67.3961 74.7999C65.0039 75.5908 62.7896 76.0059 60.3973 76.0059Z" fill="#2C6941"/>
<path d="M72.9915 71.7948C72.7938 71.7948 72.3984 71.5971 72.2007 71.3994C72.003 71.0039 72.003 70.3911 72.3984 70.1933C72.3984 70.1933 72.5961 70.1933 72.5961 69.9956L72.7938 69.7979C73.1892 69.4025 73.8021 69.6002 73.9998 69.9956C74.3952 70.3911 74.1975 71.0039 73.8021 71.2016L73.6044 71.3994L73.4067 71.5971C73.4067 71.7948 73.209 71.7948 73.0113 71.7948H72.9915Z" fill="#2C6941"/>
<path d="M72.3982 72.21C72.2005 72.21 71.8051 72.0123 71.6074 71.8146C71.4097 71.4191 71.4097 70.8063 71.8051 70.6085L72.0028 70.4108C72.3982 70.2131 73.0111 70.2131 73.2088 70.6085C73.4065 71.004 73.4065 71.6168 73.0111 71.8146L72.8134 72.0123C72.8134 72.21 72.6157 72.21 72.418 72.21H72.3982Z" fill="#2C6941"/>
<path d="M71.5877 72.8031C71.1923 72.8031 70.9946 72.6054 70.7969 72.4077C70.5991 72.0122 70.5992 71.3994 70.9946 71.2016C70.9946 71.2016 71.1923 71.2017 71.1923 71.0039C71.39 70.8062 71.5877 70.8062 71.7854 70.6085C72.1808 70.4108 72.7937 70.4108 72.9914 70.8062C73.1891 71.2017 73.1891 71.8145 72.7937 72.0122C72.596 72.21 72.3983 72.21 72.2006 72.4077L72.0029 72.6054C71.8711 72.7372 71.7393 72.8031 71.6075 72.8031H71.5877Z" fill="#2C6941"/>
<path d="M71.5877 82.807H71.39C71.1923 82.807 70.9946 82.6093 70.7969 82.4116L66.388 74.6022V74.4045C66.1903 74.0091 66.5857 73.3962 66.9812 73.1985C68.3849 72.8031 69.5711 72.1902 70.9748 71.3994C71.1725 71.3994 71.1725 71.2017 71.3702 71.2017C71.3702 71.2017 71.5679 71.2017 71.5679 71.004C71.7657 70.8062 71.9634 70.8062 72.1611 70.6085L72.3588 70.4108L72.5565 70.2131H72.7542L72.9519 70.0154L73.1496 69.8177C73.545 69.62 73.9404 69.2246 74.3556 68.8094C74.751 68.414 75.3639 68.414 75.5616 68.8094L75.7593 69.0071L80.1682 76.7968C80.3659 77.1922 80.1682 77.8051 79.7728 78.0028L71.9634 82.6093C71.7657 82.6093 71.5679 82.807 71.5679 82.807H71.5877ZM68.3849 74.6022L71.7854 80.6125L77.9934 77.0142L74.3952 71.004C74.2633 71.1358 74.1315 71.2676 73.9997 71.3994H73.802L73.6043 71.5971C73.6043 71.5971 73.4066 71.5971 73.4066 71.7948C73.4066 71.7948 73.2089 71.9925 73.0112 71.9925C72.8135 71.9925 72.8135 72.1902 72.6158 72.1902C72.4181 72.3879 72.2204 72.3879 72.0227 72.5856L71.825 72.7833C71.6273 72.7833 71.6273 72.981 71.4296 72.981C70.6387 73.5741 69.4327 73.9893 68.4244 74.5824L68.3849 74.6022Z" fill="#2C6941"/>
<path d="M84.2013 108.41C82.7976 108.41 81.6113 107.619 80.9984 106.611L69.3931 86.603C68.7999 85.5947 68.7999 84.6062 68.9976 83.5979C69.1953 82.5895 69.7885 81.7987 70.7968 81.2056L71.1922 81.0079L79.397 76.2036C79.9901 75.8082 80.603 75.6105 81.1961 75.6105C82.5999 75.6105 83.8059 76.4013 84.399 77.4096L96.0044 97.4175C97.0127 99.2167 96.3998 101.609 94.6006 102.617L86.1981 107.619C85.605 108.212 84.9921 108.41 84.2013 108.41ZM81.1961 77.6073C80.8007 77.6073 80.603 77.6073 80.1878 77.805L71.7853 82.807C71.3899 83.0047 70.9945 83.5979 70.777 84.013C70.5793 84.6062 70.777 85.0213 70.9747 85.4168L82.5801 105.425C82.9755 106.018 83.5884 106.433 84.3792 106.433C84.7746 106.433 84.9723 106.433 85.3875 106.235L93.79 101.233C94.7983 100.64 94.9961 99.4342 94.5809 98.4258L82.7778 78.6354C82.5801 78.0423 81.7695 77.6271 81.1764 77.6271L81.1961 77.6073Z" fill="#2C6941"/>
<path d="M86.5935 102.4C85.1897 102.4 84.0035 101.609 83.3906 100.601C82.7975 99.8098 82.7975 98.8015 82.9952 97.7932C83.1929 96.7849 83.786 95.9941 84.7943 95.5987C85.3874 95.2032 86.0003 95.2032 86.5935 95.2032C87.9972 95.2032 89.1834 95.9941 89.7963 97.0024C90.3894 97.7932 90.3894 98.8015 90.1917 99.8098C89.994 100.818 89.4009 101.609 88.3926 102.004C87.7995 102.4 87.1866 102.4 86.5935 102.4ZM86.5935 96.8047C86.198 96.8047 86.0003 96.8047 85.5851 97.0024C85.1897 97.2001 84.7943 97.5955 84.7943 98.2084C84.5966 98.6038 84.7943 99.2167 84.992 99.6121C85.3874 100.205 86.0003 100.62 86.5935 100.62C86.9889 100.62 87.1866 100.62 87.6018 100.423C87.9972 100.225 88.3926 99.8296 88.3926 99.2167C88.5903 98.8213 88.3926 98.2084 88.1949 97.813C87.7995 97.2199 87.1866 96.8047 86.5935 96.8047Z" fill="#2C6941"/>
<path d="M38.7882 66.8126C38.3927 66.8126 38.195 66.6149 37.9973 66.4172C30.8008 54.021 35.1899 38.2242 47.3884 31.2254C47.7838 31.0277 48.3967 31.0277 48.5944 31.6208C48.7921 32.0162 48.7921 32.6291 48.199 32.8268C36.7913 39.4302 32.7976 54.2187 39.401 65.6263C39.5987 66.0217 39.5988 66.6346 39.0056 66.8323C39.2033 66.8323 39.0056 66.8323 38.8079 66.8323L38.7882 66.8126Z" fill="#2C6941"/>
<path d="M84.7944 59.5963C84.6626 59.5963 84.6626 59.5963 84.7944 59.5963C84.2013 59.3986 83.7861 59.0032 84.0036 58.588C85.2096 52.7952 84.2013 46.7849 81.4137 41.5852C81.2159 41.1898 81.2159 40.5769 81.8091 40.3792C82.2045 40.1815 82.8174 40.1815 83.0151 40.7746C86.2179 46.3697 87.2065 52.7754 85.8225 59.1811C85.6248 59.1811 85.2294 59.5765 84.8142 59.5765L84.7944 59.5963Z" fill="#2C6941"/>
<path d="M31.5918 59.0032H21.9832C21.5878 59.0032 21.1924 58.6077 21.1924 58.2123V48.6038C21.1924 48.2084 21.5878 47.813 21.9832 47.813H31.5918C31.9872 47.813 32.3826 48.2084 32.3826 48.6038V58.2123C32.5803 58.6077 32.1849 59.0032 31.5918 59.0032ZM22.9915 57.204H30.8009V49.4144H22.9915V57.204Z" fill="#2C6941"/>
<path d="M98.0014 59.0032H88.3929C87.9975 59.0032 87.6021 58.6077 87.6021 58.2123V48.6038C87.6021 48.2084 87.9975 47.813 88.3929 47.813H98.0014C98.3968 47.813 98.7923 48.2084 98.7923 48.6038V58.2123C98.7923 58.6077 98.3968 59.0032 98.0014 59.0032ZM89.2035 57.204H97.0129V49.4144H89.2035V57.204Z" fill="#2C6941"/>
</svg>
