<svg width="26" height="26" viewBox="0 0 26 26" fill="none" xmlns="http://www.w3.org/2000/svg">
<path fill-rule="evenodd" clip-rule="evenodd" d="M2.65041 5.89189L2.78049 5.74595C3.25724 5.24876 3.96748 5 4.91057 5H21.0732C21.962 5 22.6449 5.21632 23.122 5.64865L23.1382 5.66487C23.2358 5.75146 23.3337 5.85395 23.4309 5.97297C23.4309 5.984 23.4364 5.9947 23.4472 6.00541L23.4634 6.02162C23.8215 6.46497 24 7.09189 24 7.9027V17.0811C23.9893 19.027 23.0137 20 21.0732 20H4.91057C2.97008 19.9893 2 19.0163 2 17.0811V7.9027C2 7.02703 2.21691 6.35665 2.65041 5.89189ZM21.6098 6.58919C21.4472 6.54605 21.2683 6.52951 21.0735 6.54054H4.91057C4.79122 6.52984 4.6774 6.53503 4.56911 6.55676L12.9431 15.0216L21.6098 6.58919ZM3.54472 7.72432C3.53398 7.77849 3.53398 7.83784 3.54472 7.9027V17.0811C3.54472 18.0002 4 18.4595 4.91057 18.4595H21.0732C21.9945 18.4595 22.4553 18.0002 22.4553 17.0811V7.91892L13.4797 16.6595C13.3171 16.8109 13.133 16.8865 12.9272 16.8865C12.7102 16.8758 12.5259 16.7999 12.3743 16.6595L3.54472 7.72432Z" fill="url(#paint0_linear_2705_419)"/>
<path fill-rule="evenodd" clip-rule="evenodd" d="M2.65039 5.89155C2.67218 5.85912 2.69917 5.82669 2.73169 5.79425C2.74275 5.77252 2.75868 5.75631 2.78047 5.74561L2.65039 5.89155Z" fill="url(#paint1_linear_2705_419)"/>
<defs>
<linearGradient id="paint0_linear_2705_419" x1="13" y1="5" x2="13" y2="20" gradientUnits="userSpaceOnUse">
<stop stop-color="#2C6941"/>
<stop offset="1" stop-color="#669F77"/>
</linearGradient>
<linearGradient id="paint1_linear_2705_419" x1="2.71543" y1="5.74561" x2="2.71543" y2="5.89155" gradientUnits="userSpaceOnUse">
<stop stop-color="#2C6941"/>
<stop offset="1" stop-color="#669F77"/>
</linearGradient>
</defs>
</svg>
