<svg width="644" height="445" viewBox="0 0 644 445" fill="none" xmlns="http://www.w3.org/2000/svg"><path fill-rule="evenodd" clip-rule="evenodd" d="M462.11 276.52C479.714 163.472 391.037 53.8519 264.044 31.6762C137.051 9.50066 19.8318 83.1672 2.22721 196.215C-15.3771 309.263 73.2998 418.884 200.293 441.06C327.286 463.235 444.506 389.568 462.11 276.52ZM415.342 268.353C401.318 358.408 307.94 417.092 206.776 399.427C105.613 381.761 34.9709 294.437 48.9947 204.382C63.0186 114.327 156.397 55.644 257.561 73.3092C358.724 90.9746 429.365 178.299 415.342 268.353Z" fill="#669F77"/><path fill-rule="evenodd" clip-rule="evenodd" d="M511.914 211.72C527.396 112.302 464.797 18.5858 372.096 2.39821C279.395 -13.7893 191.695 53.6821 176.214 153.1C160.732 252.517 223.331 346.234 316.032 362.422C408.733 378.609 496.433 311.137 511.914 211.72ZM475.727 205.401C463.582 283.384 394.791 336.309 322.075 323.612C249.36 310.914 200.257 237.402 212.401 159.419C224.545 81.4349 293.337 28.5095 366.053 41.2071C438.768 53.9048 487.871 127.417 475.727 205.401Z" fill="#28502D" fill-opacity="0.7"/><path fill-rule="evenodd" clip-rule="evenodd" d="M519.022 324.981C604.948 315.546 659.206 255.217 640.209 190.231C621.212 125.246 536.155 80.2136 450.228 89.6479C364.301 99.0824 310.043 159.411 329.04 224.396C348.037 289.382 433.094 334.416 519.022 324.981ZM602.216 194.403C616.573 243.519 575.565 289.117 510.622 296.247C445.678 303.378 381.391 269.341 367.033 220.225C352.676 171.109 393.684 125.512 458.627 118.382C523.571 111.251 587.857 145.287 602.216 194.403Z" fill="#92E3A9" fill-opacity="0.35"/></svg>
