<svg width="622" height="572" viewBox="0 0 622 572" fill="none" xmlns="http://www.w3.org/2000/svg"><path fill-rule="evenodd" clip-rule="evenodd" d="M168.992 162.639C270.245 113.324 394.754 160.614 447.09 268.262C499.427 375.911 459.772 503.155 358.52 552.469C257.267 601.783 132.758 554.494 80.421 446.845C28.0845 339.196 67.739 211.953 168.992 162.639ZM188.266 202.283C107.607 241.567 76.0179 342.93 117.709 428.684C159.401 514.438 258.586 552.109 339.245 512.825C419.904 473.54 451.494 372.177 409.802 286.423C368.11 200.67 268.925 162.999 188.266 202.283Z" fill="#669F77"/><path fill-rule="evenodd" clip-rule="evenodd" d="M225.01 55.0308C390.028 -25.3397 562.301 -11.3063 609.792 86.3755C657.283 184.057 562.008 328.397 396.99 408.768C231.972 489.138 59.6989 475.105 12.2078 377.423C-35.2831 279.741 59.992 135.401 225.01 55.0308ZM235.353 76.3041C90.1828 147.008 6.36739 273.987 48.1462 359.92C89.9251 445.852 241.477 458.198 386.647 387.494C531.817 316.791 615.633 189.812 573.854 103.879C532.075 17.9461 380.523 5.60042 235.353 76.3041Z" fill="#28502D" fill-opacity="0.7"/><path fill-rule="evenodd" clip-rule="evenodd" d="M130.003 128.422C126.248 66.4886 173.8 9.45979 236.213 1.04397C298.626 -7.37153 352.265 36.0123 356.02 97.945C359.775 159.878 312.223 216.908 249.81 225.323C187.397 233.739 133.758 190.355 130.003 128.422ZM237.873 28.4285C190.701 34.7893 154.761 77.8922 157.599 124.701C160.438 171.51 200.979 204.3 248.15 197.939C295.322 191.578 331.262 148.475 328.424 101.666C325.586 54.8573 285.044 22.0679 237.873 28.4285Z" fill="#92E3A9" fill-opacity="0.35"/></svg>
