<svg width="42" height="42" viewBox="0 0 42 42" fill="none" xmlns="http://www.w3.org/2000/svg">
<path d="M38.5 21C38.5 30.665 30.665 38.5 21 38.5C11.335 38.5 3.5 30.665 3.5 21C3.5 11.335 11.335 3.5 21 3.5C30.665 3.5 38.5 11.335 38.5 21Z" fill="white"/>
<path d="M38.5 21.1069C38.5 11.3829 30.665 3.5 21 3.5C11.335 3.5 3.5 11.3829 3.5 21.1069C3.5 29.8949 9.89946 37.1791 18.2656 38.5V26.1965H13.8223V21.1069H18.2656V17.2279C18.2656 12.8152 20.8783 10.3777 24.8756 10.3777C26.7897 10.3777 28.793 10.7216 28.793 10.7216V15.0546H26.5863C24.4125 15.0546 23.7344 16.4119 23.7344 17.8056V21.1069H28.5879L27.812 26.1965H23.7344V38.5C32.1005 37.1791 38.5 29.8949 38.5 21.1069Z" fill="url(#paint0_linear_2705_449)"/>
<defs>
<linearGradient id="paint0_linear_2705_449" x1="21" y1="3.5" x2="21" y2="38.5" gradientUnits="userSpaceOnUse">
<stop stop-color="#50AAF7"/>
<stop offset="1" stop-color="#2961D8"/>
</linearGradient>
</defs>
</svg>
