<svg width="42" height="42" viewBox="0 0 42 42" fill="none" xmlns="http://www.w3.org/2000/svg">
<path d="M29.1702 24.5175C28.8186 24.3427 26.5328 23.2941 26.1812 23.1192C25.8296 22.9444 25.4779 22.9444 25.1263 23.2941C24.7747 23.6436 24.0714 24.6923 23.7198 25.0419C23.5438 25.3914 23.1922 25.3914 22.8406 25.2165C21.6098 24.6923 20.379 23.9931 19.3241 23.1192C18.445 22.2454 17.5659 21.1966 16.8626 20.1479C16.6868 19.7984 16.8626 19.4489 17.0384 19.274C17.2142 19.0992 17.3901 18.7497 17.7417 18.5749C17.9175 18.4001 18.0933 18.0506 18.0933 17.8758C18.2692 17.701 18.2692 17.3514 18.0933 17.1767C17.9175 17.0019 17.0384 14.9045 16.6868 14.0306C16.5109 12.8071 16.1593 12.8071 15.8076 12.8071C15.6318 12.8071 15.2802 12.8071 14.9285 12.8071C14.5769 12.8071 14.0494 13.1567 13.8736 13.3315C12.8187 14.3801 12.2912 15.6036 12.2912 17.0019C12.467 18.5749 12.9945 20.1479 14.0494 21.5462C15.9835 24.3427 18.445 26.6148 21.434 28.013C22.3131 28.3627 23.0164 28.7123 23.8956 28.8871C24.7747 29.2366 25.6537 29.2366 26.7088 29.0618C27.9395 28.8871 28.9944 28.013 29.6978 26.9645C30.0494 26.2653 30.0494 25.5662 29.8736 24.867C29.8736 24.867 29.5218 24.6923 29.1702 24.5175ZM33.5659 8.61237C26.7088 1.79588 15.6318 1.79588 8.77471 8.61237C3.14835 14.2054 2.09341 22.7697 5.96153 29.5861L3.5 38.5L12.8187 36.053C15.456 37.4513 18.2692 38.1505 21.0824 38.1505C30.7527 38.1505 38.4889 30.46 38.4889 20.8471C38.6647 16.3027 36.7307 11.9332 33.5659 8.61237ZM28.8186 33.0818C26.5328 34.4801 23.8956 35.354 21.0824 35.354C18.445 35.354 15.9835 34.6548 13.6978 33.4314L13.1703 33.0818L7.71977 34.4801L9.12635 29.2366L8.77471 28.7122C4.55494 21.721 6.66482 12.9819 13.5219 8.61237C20.379 4.24282 29.1702 6.51497 33.3899 13.1567C37.6098 19.9732 35.6758 28.8871 28.8186 33.0818Z" fill="white"/>
<path fill-rule="evenodd" clip-rule="evenodd" d="M28.8186 33.0818C26.5328 34.4801 23.8956 35.354 21.0824 35.354C18.445 35.354 15.9835 34.6548 13.6978 33.4314L13.1703 33.0818L7.71977 34.4801L9.12635 29.2366L8.77471 28.7122C4.55494 21.721 6.66482 12.9819 13.5219 8.61237C20.379 4.24282 29.1702 6.51497 33.3899 13.1567C37.6098 19.9732 35.6758 28.8871 28.8186 33.0818ZM26.1812 23.1192C26.5328 23.2941 28.8186 24.3427 29.1702 24.5175C29.5218 24.6923 29.8736 24.867 29.8736 24.867C30.0494 25.5662 30.0494 26.2653 29.6978 26.9645C28.9944 28.013 27.9395 28.8871 26.7088 29.0618C25.6537 29.2366 24.7747 29.2366 23.8956 28.8871C23.0164 28.7123 22.3131 28.3627 21.434 28.013C18.445 26.6148 15.9835 24.3427 14.0494 21.5462C12.9945 20.1479 12.467 18.5749 12.2912 17.0019C12.2912 15.6036 12.8187 14.3801 13.8736 13.3315C14.0494 13.1567 14.5769 12.8071 14.9285 12.8071H15.8076C16.1593 12.8071 16.5109 12.8071 16.6868 14.0306C17.0384 14.9045 17.9175 17.0019 18.0933 17.1767C18.2692 17.3514 18.2692 17.701 18.0933 17.8758C18.0933 18.0506 17.9175 18.4001 17.7417 18.5749C17.3901 18.7497 17.2142 19.0992 17.0384 19.274C16.8626 19.4489 16.6868 19.7984 16.8626 20.1479C17.5659 21.1966 18.445 22.2454 19.3241 23.1192C20.379 23.9931 21.6098 24.6923 22.8406 25.2165C23.1922 25.3914 23.5438 25.3914 23.7198 25.0419C24.0714 24.6923 24.7747 23.6436 25.1263 23.2941C25.4779 22.9444 25.8296 22.9444 26.1812 23.1192Z" fill="#25D366"/>
</svg>
