<svg width="42" height="42" viewBox="0 0 42 42" fill="none" xmlns="http://www.w3.org/2000/svg">
<path fill-rule="evenodd" clip-rule="evenodd" d="M21.0092 12.9097C16.54 12.9097 12.9142 16.5334 12.9142 21C12.9142 25.4666 16.54 29.0903 21.0092 29.0903C25.4785 29.0903 29.1043 25.4666 29.1043 21C29.1043 16.5334 25.4785 12.9097 21.0092 12.9097ZM21.0092 26.2479C18.1098 26.2479 15.7582 23.8978 15.7582 21C15.7582 18.1022 18.1098 15.752 21.0092 15.752C23.9087 15.752 26.2603 18.1022 26.2603 21C26.2603 23.8978 23.9087 26.2479 21.0092 26.2479Z" fill="url(#paint0_linear_2705_447)"/>
<path d="M29.4244 14.4785C30.4648 14.4785 31.3143 13.6357 31.3143 12.5898C31.3143 11.55 30.4648 10.701 29.4244 10.701C28.3841 10.701 27.5345 11.5439 27.5345 12.5898C27.5345 13.6295 28.3779 14.4785 29.4244 14.4785Z" fill="url(#paint1_linear_2705_447)"/>
<path fill-rule="evenodd" clip-rule="evenodd" d="M21.0092 5.25C16.7308 5.25 16.1953 5.26846 14.5147 5.34229C12.8403 5.41611 11.6891 5.68682 10.6919 6.07441C9.6515 6.48047 8.7712 7.01572 7.89706 7.89551C7.01676 8.76914 6.48119 9.64893 6.0749 10.6825C5.68707 11.6854 5.41621 12.8297 5.34234 14.5031C5.26847 16.1889 5.25 16.7241 5.25 21C5.25 25.2759 5.26847 25.8111 5.34234 27.4907C5.41621 29.1642 5.68707 30.3146 6.0749 31.3113C6.48119 32.3511 7.01676 33.2309 7.89706 34.1045C8.7712 34.9781 9.65151 35.5195 10.6857 35.9194C11.6891 36.307 12.8341 36.5777 14.5085 36.6516C16.1891 36.7254 16.7247 36.7438 21.0031 36.7438C25.2815 36.7438 25.817 36.7254 27.4976 36.6516C29.172 36.5777 30.3232 36.307 31.3205 35.9194C32.3547 35.5195 33.235 34.9781 34.1091 34.1045C34.9832 33.2309 35.525 32.3511 35.9251 31.3175C36.3129 30.3146 36.5838 29.1703 36.6577 27.4969C36.7315 25.8173 36.75 25.282 36.75 21.0062C36.75 16.7303 36.7315 16.195 36.6577 14.5154C36.5838 12.842 36.3129 11.6915 35.9251 10.6948C35.5373 9.64893 35.0017 8.76914 34.1214 7.89551C33.2473 7.02187 32.367 6.48047 31.3328 6.08057C30.3293 5.69297 29.1843 5.42227 27.5099 5.34844C25.8232 5.26846 25.2876 5.25 21.0092 5.25ZM21.0092 8.08623C25.2199 8.08623 25.7185 8.10469 27.3745 8.17852C28.9135 8.24619 29.7445 8.50459 30.2986 8.71992C31.0311 9.00293 31.5605 9.34746 32.1084 9.89502C32.6624 10.4487 33.001 10.9717 33.2842 11.7038C33.4997 12.2575 33.7582 13.0942 33.8259 14.6262C33.8998 16.2873 33.9183 16.7856 33.9183 20.9877C33.9183 25.1959 33.8998 25.6942 33.8259 27.3492C33.7582 28.8873 33.4997 29.7179 33.2842 30.2716C33.001 31.0037 32.6563 31.5328 32.1084 32.0804C31.5544 32.6341 31.0311 32.9725 30.2986 33.2555C29.7445 33.4708 28.9073 33.7292 27.3745 33.7969C25.7124 33.8707 25.2137 33.8892 21.0092 33.8892C16.7986 33.8892 16.2999 33.8707 14.644 33.7969C13.105 33.7292 12.2739 33.4708 11.7199 33.2555C10.9873 32.9725 10.4579 32.6279 9.91005 32.0804C9.35602 31.5267 9.01744 31.0037 8.73427 30.2716C8.51881 29.7179 8.26026 28.8812 8.19254 27.3492C8.11867 25.6881 8.10021 25.1897 8.10021 20.9877C8.10021 16.7795 8.11867 16.2812 8.19254 14.6262C8.26026 13.0881 8.51881 12.2575 8.73427 11.7038C9.01744 10.9717 9.36217 10.4426 9.91005 9.89502C10.4641 9.34131 10.9873 9.00293 11.7199 8.71992C12.2739 8.50459 13.1111 8.24619 14.644 8.17852C16.2999 8.10469 16.7986 8.08623 21.0092 8.08623Z" fill="url(#paint2_linear_2705_447)"/>
<defs>
<linearGradient id="paint0_linear_2705_447" x1="28" y1="5.25" x2="11.375" y2="36.75" gradientUnits="userSpaceOnUse">
<stop stop-color="#6E3BF1"/>
<stop offset="0.241314" stop-color="#C128BF"/>
<stop offset="0.475694" stop-color="#EA336B"/>
<stop offset="0.715281" stop-color="#EE8131"/>
<stop offset="0.913202" stop-color="#F8D849"/>
</linearGradient>
<linearGradient id="paint1_linear_2705_447" x1="28" y1="5.25" x2="11.375" y2="36.75" gradientUnits="userSpaceOnUse">
<stop stop-color="#6E3BF1"/>
<stop offset="0.241314" stop-color="#C128BF"/>
<stop offset="0.475694" stop-color="#EA336B"/>
<stop offset="0.715281" stop-color="#EE8131"/>
<stop offset="0.913202" stop-color="#F8D849"/>
</linearGradient>
<linearGradient id="paint2_linear_2705_447" x1="28" y1="5.25" x2="11.375" y2="36.75" gradientUnits="userSpaceOnUse">
<stop stop-color="#6E3BF1"/>
<stop offset="0.241314" stop-color="#C128BF"/>
<stop offset="0.475694" stop-color="#EA336B"/>
<stop offset="0.715281" stop-color="#EE8131"/>
<stop offset="0.913202" stop-color="#F8D849"/>
</linearGradient>
</defs>
</svg>
