<svg width="120" height="120" viewBox="0 0 120 120" fill="none" xmlns="http://www.w3.org/2000/svg">
<path d="M79.6444 40.4092H83.4403V46.3998L76.8369 49.0095C79.0315 44.2052 80.2375 39.0055 80.6329 34.8141C80.4352 36.4156 80.2375 38.4124 79.6246 40.4092H79.6444Z" fill="white"/>
<path d="M87.0388 30.2076V40.4093H79.6445C80.0399 38.4124 80.4551 36.4156 80.4551 34.6165V30.8205V30.0099H87.0585V30.2076H87.0388Z" fill="#669F77"/>
<path d="M40.6369 40.4092H33.4404V30.2076H40.0438C39.8461 31.2159 39.8461 32.2044 39.8461 33.015C39.8461 35.2096 40.0438 37.8193 40.6369 40.4092Z" fill="#669F77"/>
<path d="M80.4353 30.2076V30.9984C79.427 20.7968 70.8268 12.7896 60.2297 12.7896C49.6326 12.7896 41.4278 20.3816 40.0241 30.1878H36.6235C38.0273 16.5856 48.0312 5.79083 60.2297 5.79083C72.4282 5.79083 82.4321 16.3879 83.8359 30.1878H80.4353V30.2076Z" fill="#669F77"/>
<path d="M76.8369 49.0095C73.4363 56.4037 67.8413 62.8094 60.2295 62.8094C49.8302 62.8094 43.0291 50.8086 40.8345 40.607C40.2414 38.017 40.0239 35.4073 40.0239 33.4105C40.0239 32.4021 40.0239 31.4136 40.2216 30.603H40.0239C41.4276 20.7968 50.0279 13.2048 60.2295 13.2048C70.4312 13.2048 79.4269 21.212 80.4352 31.3938V35.1898C80.2375 38.9858 79.0314 44.1855 76.8369 48.9897V49.0095Z" fill="white"/>
<path d="M47.8334 65.004L59.8342 81.2159L53.4482 87.8193L43.2466 69.2151L47.8334 65.004Z" fill="white"/>
<path d="M76.4418 69.2151L65.8448 86.811L59.8345 81.2159L71.8353 65.004L76.4418 69.2151Z" fill="white"/>
<path d="M76.4416 69.2151C104.041 85.0119 100.839 77.6176 100.839 109.013C73.4365 115.221 46.0343 115.419 18.6322 109.013C18.6322 77.4199 15.4294 85.0119 43.0292 69.2151L53.2309 87.8193L59.6366 81.4136L65.6271 87.0087L76.4218 69.2151H76.4416Z" fill="#669F77"/>
<path d="M76.4417 95.4112H67.0506C66.6552 95.4112 66.2598 95.0158 66.2598 94.6204C66.2598 94.225 66.6552 93.8098 67.0506 93.8098H76.4417C76.8371 93.8098 77.2325 94.2052 77.2325 94.6204C77.2325 95.0356 77.0348 95.4112 76.4417 95.4112Z" fill="#2C6941"/>
<path d="M76.4417 101.204H67.0506C66.6552 101.204 66.2598 100.809 66.2598 100.413C66.2598 100.018 66.6552 99.6026 67.0506 99.6026H76.4417C76.8371 99.6026 77.2325 99.998 77.2325 100.413C77.2325 100.828 77.0348 101.204 76.4417 101.204Z" fill="#2C6941"/>
<path d="M59.6368 114.609C45.8368 114.609 32.0369 113.007 18.6324 109.804C18.237 109.804 18.0393 109.409 18.0393 109.013V100.018C17.8416 82.2242 17.8416 81.809 32.2346 74.2171C35.2398 72.6157 38.838 70.8165 43.0294 68.2068C43.4248 68.0091 44.0377 68.2068 44.2354 68.6022C44.4331 68.9976 44.2354 69.6105 43.84 69.8082C39.4509 72.2005 35.8329 74.2171 33.0452 75.8185C26.2441 79.4168 22.8436 81.2159 21.2421 84.221C19.6407 87.2262 19.6407 91.4176 19.8384 100.018V108.223C46.2323 114.213 73.239 114.213 100.246 108.223V100.216C100.443 91.6153 100.443 87.2064 98.842 84.221C97.2406 81.2159 93.84 79.4168 86.8412 75.8185C84.0338 74.2171 80.4355 72.418 76.2441 70.0257C75.8487 69.828 75.651 69.2151 75.8487 68.8197C76.0464 68.4243 76.6593 68.2266 77.0547 68.4243C81.2461 70.8165 84.8641 72.8331 87.6518 74.2171C102.045 82.0265 102.243 82.2242 102.045 100.216V109.013C102.045 109.409 101.847 109.804 101.254 109.804C87.2564 113.007 73.4565 114.609 59.6565 114.609H59.6368Z" fill="#2C6941"/>
<path d="M80.4356 32.4021C80.0402 32.4021 79.625 32.0067 79.625 31.6113V31.2159C79.625 30.8205 80.0204 30.2076 80.4356 30.2076C80.8508 30.2076 81.4439 30.603 81.4439 30.9984V31.5915C81.4439 31.9869 81.0485 32.3824 80.4356 32.3824V32.4021Z" fill="#2C6941"/>
<path d="M60.2495 63.62C49.8501 63.62 42.4559 52.0146 39.8462 40.6267C39.2531 38.0368 38.8379 35.4271 38.8379 33.2325C38.8379 32.2242 38.8379 31.2357 39.0356 30.2274C39.8462 25.2254 42.2384 20.6188 46.0344 17.2183C49.8304 13.8177 54.8323 12.0186 60.032 12.0186C65.2317 12.0186 70.4314 14.0154 74.4251 17.6137C78.221 21.2119 80.8308 26.0162 81.2262 31.2159C81.2262 31.4136 81.2262 31.6113 81.0285 31.809C81.2262 32.0067 81.2262 32.2044 81.2262 32.4021V35.2096C81.0285 39.8161 79.6248 45.2135 77.4302 49.8003C75.2357 54.6046 69.6208 63.6002 60.2297 63.6002L60.2495 63.62ZM60.2495 13.62C50.641 13.62 42.2582 20.8165 41.0522 30.2274C40.8545 31.2357 40.8545 32.0265 40.8545 33.0348C40.8545 35.2293 41.2499 37.6414 41.6453 40.0336C44.0376 50.8284 50.8387 61.6232 60.2495 61.6232C68.652 61.6232 73.8517 53.4184 76.0463 48.4164C78.0431 44.0075 79.4468 38.8078 79.6445 34.4187V32.2242C79.6445 32.0265 79.6445 31.8288 79.8422 31.6311C79.7104 31.4993 79.6445 31.3675 79.6445 31.2357C78.6362 21.2317 70.2535 13.6398 60.2495 13.6398V13.62Z" fill="#2C6941"/>
<path d="M65.8448 87.8193C65.6471 87.8193 65.4494 87.8193 65.2517 87.6216L59.2612 82.0265C58.8657 81.6311 58.8658 81.2159 59.0635 80.8205L71.0642 64.4108C71.262 64.2131 71.4597 64.0154 71.6574 64.0154C71.8551 64.0154 72.2505 64.0154 72.2505 64.2131L76.8571 68.4045C77.2525 68.6022 77.2525 69.1953 77.0548 69.6105L66.26 87.2064C66.4577 87.6018 66.26 87.6018 65.8646 87.7995L65.8448 87.8193ZM61.0405 81.2159L65.6471 85.4073L75.4533 69.4128L72.0528 66.4077L61.0603 81.2159H61.0405Z" fill="#2C6941"/>
<path d="M53.4488 88.6101C53.317 88.6101 53.317 88.6101 53.4488 88.6101C53.0534 88.6101 52.8556 88.4124 52.6382 88.2147L42.4365 69.6105C42.2388 69.2151 42.2388 68.8197 42.6342 68.6022L47.2408 64.4108C47.4385 64.2131 47.6362 64.2131 47.8339 64.2131C48.0316 64.2131 48.2293 64.4108 48.427 64.6085L60.4278 80.9984C60.6255 81.3938 60.6255 81.7893 60.4278 82.2044L54.0221 88.6101H53.429H53.4488ZM44.2554 69.4128L53.4488 86.4156L58.4507 81.4136L47.4583 66.4077L44.2554 69.4128Z" fill="#2C6941"/>
<path d="M54.2396 34.0035C53.4488 34.0035 52.8359 34.0035 52.045 33.8058C48.6445 33.2127 46.0347 31.4136 44.6508 28.4084C44.4531 28.013 44.6508 27.4002 45.0462 27.2024C45.4416 27.0047 46.0545 27.2024 46.2522 27.5979C47.8537 30.603 50.4436 31.5915 52.4602 32.0067C55.4654 32.5998 58.8659 31.6113 60.665 30.0099C64.6587 26.2139 65.667 25.8185 66.4578 26.2139C67.2487 26.6093 67.051 27.6176 66.8533 28.4084C66.8533 28.8039 66.6556 29.4168 66.6556 29.6145C66.8533 29.6145 67.051 29.6145 67.8616 29.4168C70.2538 28.4085 73.6544 27.6176 75.8687 28.6062C76.6793 29.0016 77.2724 29.8122 77.6678 30.8007C77.8655 31.1961 77.4701 31.7892 77.0747 32.0067C76.6793 32.2044 76.0664 31.809 75.8687 31.4136C75.671 31.0182 75.4733 30.6228 75.0778 30.4053C73.8718 29.8122 71.4796 30.0099 68.4744 31.2159C67.6639 31.6113 66.2799 31.809 65.4693 31.2159C64.6587 30.6228 64.8762 29.6145 64.8762 28.6062C64.2831 29.0016 63.2748 30.0099 61.6733 31.4136C60.0719 33.015 57.0668 34.0233 54.2791 34.0233L54.2396 34.0035Z" fill="#2C6941"/>
<path d="M65.2317 40.8047C64.8363 40.8047 64.6386 40.607 64.4408 40.2115C64.2431 39.8161 64.4408 39.2032 64.8363 39.0055C65.2317 38.8078 69.4428 37.0087 71.6374 39.2032C72.0328 39.5987 72.0328 40.2115 71.6374 40.4093C71.2419 40.8047 70.6291 40.8047 70.4314 40.4093C69.2253 39.2032 66.4377 40.2115 65.6271 40.607C65.6271 40.8047 65.4294 40.8047 65.2317 40.8047Z" fill="#2C6941"/>
<path d="M55.0499 40.8047H54.6545C53.8637 40.4092 50.8585 39.5986 49.8502 40.6069C49.4548 41.0024 48.8419 41.0024 48.6442 40.6069C48.2488 40.2115 48.2488 39.5986 48.6442 39.4009C50.8388 37.2064 55.0499 39.0055 55.4453 39.2032C55.8407 39.4009 56.0384 40.0138 55.8407 40.4092C55.8407 40.6069 55.4453 40.8047 55.0301 40.8047H55.0499Z" fill="#2C6941"/>
<path d="M87.0391 41.2198H79.6448C79.4471 41.2198 79.0517 41.0221 78.854 40.8244V40.2313C79.2494 38.2345 79.6448 36.4353 79.6448 34.6362V31.4334V30.6425C79.6448 30.4448 79.6448 30.0494 79.8425 29.8517C80.0402 29.654 80.238 29.4563 80.4357 29.4563H87.0391C87.4345 29.4563 87.8299 29.8517 87.8299 30.2471V40.4488C87.8299 40.8442 87.4345 41.2396 87.0391 41.2396V41.2198ZM80.8311 39.4207H86.2285V31.0182H81.4242V34.8141C81.2265 36.2179 81.0288 37.8193 80.8311 39.4207Z" fill="#2C6941"/>
<path d="M40.835 41.2198H33.4407C33.0453 41.2198 32.6499 40.8244 32.6499 40.429V30.2274C32.6499 29.8319 33.0453 29.4365 33.4407 29.4365H40.0441C40.2418 29.4365 40.6373 29.6342 40.6373 29.8319C40.835 30.0296 40.835 30.2274 40.835 30.6228V33.2325C40.835 35.2293 41.2304 37.8391 41.6258 40.2313C41.6258 40.429 41.6258 40.8244 41.4281 41.0419C41.4281 41.2396 41.0327 41.2396 40.835 41.2396V41.2198ZM34.4293 39.4207H39.8267C39.4312 37.2262 39.2335 35.0119 39.2335 33.015V31.0182H34.4293V39.4207Z" fill="#2C6941"/>
<path d="M36.6434 31.2159C36.0503 31.2159 35.6351 30.8205 35.8526 30.2076C37.2563 15.8145 47.8534 5 60.2496 5C72.6458 5 83.2428 15.7948 84.6466 30.2076C84.6466 30.603 84.2512 31.2159 83.8557 31.2159C83.4603 31.2159 82.8474 30.8205 82.8474 30.4053C81.4437 17.0008 71.8549 6.79913 60.2496 6.79913C48.6442 6.79913 39.0554 17.0008 37.6517 30.4053C37.454 30.8007 37.0586 31.2159 36.6434 31.2159Z" fill="#2C6941"/>
<path d="M62.6421 55.2175C62.2466 55.2175 61.8315 55.0198 61.8315 54.6244C61.6338 54.2289 61.8315 53.6161 62.4246 53.4183L82.8279 45.6089V40.2115C82.8279 39.8161 83.2233 39.4207 83.6187 39.4207C84.0141 39.4207 84.4096 39.8161 84.4096 40.2115V46.2218C84.4096 46.6172 84.2119 47.0126 83.8164 47.0126L63.0177 55.0198C62.82 55.2175 62.6223 55.2175 62.6223 55.2175H62.6421Z" fill="#2C6941"/>
</svg>
