<svg width="120" height="120" viewBox="0 0 120 120" fill="none" xmlns="http://www.w3.org/2000/svg">
<path d="M74.9897 106.07L69.5923 97.4702C71.3914 96.877 73.1905 96.2642 74.9897 95.4733C75.1874 95.4733 75.1874 95.2756 75.3851 95.2756C75.5828 95.2756 75.7805 95.0779 75.9782 95.0779L87.3859 113.682L78.5879 111.685L74.9897 106.09V106.07Z" fill="#669F77"/>
<path d="M43.5939 97.4702L34.796 111.666L25.998 113.662L37.4057 95.0582C39.4026 96.0665 41.3994 96.8573 43.6137 97.4504L43.5939 97.4702Z" fill="#669F77"/>
<path d="M105.99 11.883L100.79 17.0827L94.2065 18.0712L99.1887 12.8715L105.99 11.883Z" fill="white"/>
<path d="M99.6039 5.87271L99.1887 12.8715L94.2065 18.0712L94.602 11.2701L99.6039 5.87271Z" fill="white"/>
<path d="M63.2061 49.0716C64.8075 50.673 65.7961 52.8676 65.7961 55.2796C65.7961 60.2815 61.8024 64.0775 56.9981 64.0775C52.1939 64.0775 48.2002 60.0838 48.2002 55.2796C48.2002 50.4753 52.1939 46.4816 56.9981 46.4816C59.3904 46.4816 61.6047 47.4899 63.2061 49.0914V49.0716Z" fill="#669F77"/>
<path d="M63.2064 49.0716C61.605 47.4702 59.4104 46.4619 56.9984 46.4619C51.9964 46.4619 48.2004 50.4555 48.2004 55.2598C48.2004 60.0641 52.1941 64.0578 56.9984 64.0578C61.8027 64.0578 65.7963 60.0641 65.7963 55.2598C65.7963 52.8676 64.788 50.6532 63.2064 49.0518V49.0716ZM70.7983 41.4797C74.3966 45.0779 76.5911 49.8822 76.5911 55.4773C76.5911 66.2721 67.7932 75.2677 56.8007 75.2677C45.8082 75.2677 37.0103 66.4698 37.0103 55.4773C37.0103 44.4848 45.8082 35.6869 56.8007 35.6869C62.3958 35.6869 67.2001 37.8814 70.7983 41.4797Z" fill="white"/>
<path d="M78.8054 33.4726C84.4005 39.0677 87.8011 46.8771 87.8011 55.4773C87.8011 72.6778 74.0012 86.4777 56.8007 86.4777C39.6002 86.4777 25.8003 72.6778 25.8003 55.4773C25.8003 38.2768 39.6002 24.4769 56.8007 24.4769C65.4009 24.2792 73.1906 27.8775 78.8054 33.4726ZM70.7983 41.4797C67.2 37.8814 62.3958 35.6869 56.8007 35.6869C46.0059 35.6869 37.0103 44.4848 37.0103 55.4773C37.0103 66.4698 45.8082 75.2677 56.8007 75.2677C67.7932 75.2677 76.5911 66.4698 76.5911 55.4773C76.5911 49.8822 74.3966 45.0779 70.7983 41.4797Z" fill="#669F77"/>
<path d="M87.9986 24.2792C96.0057 32.2863 101.008 43.2788 101.008 55.4773C101.008 73.0732 90.806 88.0791 76.0176 95.2756C75.8199 95.2756 75.6222 95.4733 75.4245 95.4733C75.2268 95.4733 75.2268 95.6711 75.0291 95.6711C69.434 98.0633 63.4237 99.467 56.8203 99.467C32.4233 99.467 12.8306 79.6766 12.8306 55.4773C12.8306 31.278 32.621 11.4876 56.8203 11.4876C69.0188 11.2899 80.0113 16.2919 88.0184 24.2792H87.9986ZM78.8053 33.4726C73.2102 27.8775 65.4007 24.4769 56.8005 24.4769C39.6 24.4769 25.8001 38.2768 25.8001 55.4773C25.8001 72.6778 39.6 86.4777 56.8005 86.4777C74.001 86.4777 87.8009 72.6778 87.8009 55.4773C87.9986 46.8771 84.4004 39.0874 78.8053 33.4726Z" fill="white"/>
<path d="M56.998 100.278C32.2056 100.278 12 80.072 12 55.2796C12 30.4872 32.2056 10.2816 56.998 10.2816C68.9988 10.2816 80.189 14.8882 88.7893 23.4884C89.1847 23.8838 89.1847 24.4967 88.7893 24.6944C88.3938 25.0898 87.7809 25.0898 87.5832 24.6944C79.3784 16.4896 68.5836 12.1005 56.9782 12.1005C33.1744 12.1005 13.7794 31.4955 13.7794 55.2994C13.7794 79.1032 33.1744 98.4983 56.9782 98.4983C63.1862 98.4983 69.1767 97.2923 74.7718 94.7023C74.9695 94.7023 74.9696 94.5046 75.1673 94.5046L75.5627 95.2954L75.9581 96.0862C75.7604 96.0862 75.7604 96.284 75.5627 96.284C69.5524 98.8937 63.3642 100.278 56.9585 100.278H56.998Z" fill="#2C6941"/>
<path d="M75.9978 96.0665C75.6024 96.0665 75.4047 95.8688 75.207 95.4734C75.0092 95.0779 75.207 94.4651 75.6024 94.2673C90.4106 87.0708 99.9994 71.8672 99.9994 55.2598C99.9994 43.6545 95.5905 32.8597 87.4054 24.6549C87.01 24.2594 87.01 23.6465 87.4054 23.4488C87.8009 23.0534 88.4138 23.0534 88.6115 23.4488C97.014 31.8514 101.818 43.2393 101.818 55.2401C101.818 63.8403 99.426 72.2428 94.8194 79.4394C90.2129 86.4382 84.0247 92.0333 76.413 95.6315C76.2153 95.8292 76.0176 96.0269 76.0176 96.0269L75.9978 96.0665Z" fill="#2C6941"/>
<path d="M56.9982 87.2685C39.4023 87.2685 25.0093 72.8755 25.0093 55.2598C25.0093 37.6442 39.4023 23.2511 56.9982 23.2511C65.5984 23.2511 73.6056 26.6517 79.5961 32.6422C85.5866 38.6327 88.9871 46.6398 88.9871 55.2401C88.7894 72.8359 74.5941 87.2488 56.9784 87.2488L56.9982 87.2685ZM56.9982 25.2677C40.3909 25.2677 26.8084 38.87 26.8084 55.4575C26.8084 72.0451 40.4106 85.6473 56.9982 85.6473C73.5858 85.6473 87.2078 72.0451 87.2078 55.4575C87.2078 47.4504 84.0049 39.8585 78.4098 34.2634C72.617 28.4706 65.0053 25.2677 57.018 25.2677H56.9982Z" fill="#2C6941"/>
<path d="M56.998 75.8806C45.5903 75.8806 36.397 66.6873 36.397 55.2796C36.397 43.8719 45.5903 34.6786 56.998 34.6786C62.5931 34.6786 67.5951 36.8731 71.5888 40.6691C75.3847 44.4651 77.5793 49.6647 77.5793 55.2598C77.5793 66.6675 68.1882 75.8609 56.9782 75.8609L56.998 75.8806ZM56.998 36.4777C46.5986 36.4777 38.1961 44.8802 38.1961 55.2796C38.1961 65.679 46.5986 74.0815 56.998 74.0815C67.3974 74.0815 75.7999 65.679 75.7999 55.2796C75.7999 50.2776 73.8031 45.4734 70.2048 42.0728C66.6065 38.4746 62 36.4777 56.998 36.4777Z" fill="#2C6941"/>
<path d="M56.9981 65.0661C51.6007 65.0661 47.1919 60.6572 47.1919 55.2598C47.1919 49.8624 51.6007 45.4536 56.9981 45.4536C59.6079 45.4536 62.0001 46.4619 63.997 48.261C65.7961 50.0602 66.8044 52.6699 66.8044 55.2598C66.8044 60.6572 62.3955 65.0661 56.9981 65.0661ZM56.9981 47.2725C52.5893 47.2725 48.991 50.8707 48.991 55.2796C48.991 59.6885 52.5893 63.2867 56.9981 63.2867C61.407 63.2867 65.0053 59.6885 65.0053 55.2796C65.0053 53.0851 64.2144 51.0882 62.613 49.6845C61.0116 48.2808 59.0147 47.2923 57.0179 47.2923L56.9981 47.2725Z" fill="#2C6941"/>
<path d="M87.4051 114.671H87.2074L78.4095 112.674C78.2118 112.674 78.014 112.476 77.8163 112.278L69.0184 98.0831C68.8207 97.8854 68.8207 97.4899 69.0184 97.2922C69.0184 97.0945 69.4138 96.8968 69.6115 96.6991C71.4107 96.106 73.2098 95.4931 74.8112 94.7023C75.0089 94.7023 75.0089 94.5046 75.2066 94.5046C75.4043 94.5046 75.602 94.3069 75.602 94.3069C75.9974 94.1092 76.6103 94.3069 76.808 94.7023L88.2157 113.306C88.4134 113.504 88.4134 113.702 88.4134 113.9C88.2157 114.295 87.8203 114.69 87.4051 114.69V114.671ZM79.2003 110.875L85.606 112.278L75.7997 96.0862H75.602C74.1983 96.6794 72.7946 97.2922 71.1932 97.6876L79.2003 110.894V110.875Z" fill="#2C6941"/>
<path d="M25.9977 114.671C25.8 114.671 25.4046 114.473 25.2069 114.275C25.0092 114.078 25.0092 113.682 25.2069 113.267L36.6145 94.6627C36.8123 94.2673 37.4054 94.0696 37.8206 94.2673C39.8174 95.2756 41.8142 96.0665 44.0285 96.6596C44.2262 96.6596 44.424 96.8573 44.6217 97.2527V98.0435L35.8237 112.239C35.626 112.437 35.4283 112.634 35.2306 112.634L26.4327 114.631H26.0372L25.9977 114.671ZM37.6031 96.2642L27.7968 112.456L34.2025 111.053L42.2096 98.261C40.6082 97.4702 39.2045 96.8573 37.6031 96.2642Z" fill="#2C6941"/>
<path d="M74.9893 106.881H47.3895C46.994 106.881 46.5986 106.486 46.5986 106.09C46.5986 105.695 46.994 105.299 47.3895 105.299H74.9893C75.3847 105.299 75.7801 105.695 75.7801 106.09C75.7801 106.486 75.5824 106.881 74.9893 106.881Z" fill="#2C6941"/>
<path d="M18.9988 56.2681C18.6034 56.2681 18.208 55.8727 18.208 55.4773C18.208 34.0855 35.6062 16.6675 56.998 16.6675C57.3935 16.6675 57.7889 17.0629 57.7889 17.4583C57.7889 17.8538 57.3935 18.2492 56.998 18.2492C36.397 18.2492 19.7897 34.8565 19.7897 55.2401C19.7897 55.8332 19.3942 56.2484 18.9988 56.2484V56.2681Z" fill="#2C6941"/>
<path d="M94.2064 19.0795C94.0746 19.0795 94.0746 19.0795 94.2064 19.0795C93.6133 19.0795 93.1981 18.6841 93.4156 18.0712L94.0087 11.2701C94.0087 11.0724 94.2064 10.8747 94.2064 10.677L99.2084 5.2796C99.4061 5.08189 99.8015 4.88419 100.217 5.08189C100.612 5.2796 100.81 5.67501 100.81 5.87272L100.019 12.8715C100.019 13.2669 99.6235 13.6624 99.0107 13.6624C98.6152 13.6624 98.2198 13.2669 98.2198 12.6541L98.6152 8.46267L95.6101 11.6655L95.017 18.0712C95.017 18.6643 94.6216 19.0795 94.2262 19.0795H94.2064Z" fill="#2C6941"/>
<path d="M94.2063 19.0795C93.8109 19.0795 93.6132 18.8818 93.4155 18.6841C93.2178 18.2887 93.2178 17.8933 93.6132 17.6758L98.6152 12.2784C98.8129 12.0807 99.0106 12.0807 99.2083 12.0807L106.009 11.0724C106.405 11.0724 106.8 11.2701 107.018 11.4678C107.215 11.8632 107.215 12.2586 106.82 12.4761L101.818 17.8735C101.62 18.0712 101.423 18.0712 101.225 18.0712L94.2261 19.0795H94.2063ZM99.6037 13.6821L96.5986 16.885L100.592 16.2918L103.597 13.089L99.6037 13.6821Z" fill="#2C6941"/>
<path d="M56.9981 56.2681C56.8004 56.2681 56.6027 56.2681 56.405 56.0704C56.0095 55.675 56.0095 55.0621 56.405 54.8644L87.603 23.6663L93.5936 17.6758C93.989 17.2804 94.6019 17.2804 94.7996 17.6758C95.195 18.0712 95.195 18.6841 94.7996 18.8818L88.8091 24.8723L57.611 56.0704C57.4133 56.0704 57.2156 56.2681 57.0178 56.2681H56.9981Z" fill="#2C6941"/>
</svg>
