<svg width="120" height="120" viewBox="0 0 120 120" fill="none" xmlns="http://www.w3.org/2000/svg">
<path d="M109.012 44.2673V107.474C109.012 109.866 107.015 111.883 104.603 111.883H54.0097C52.8037 111.883 51.6174 111.29 50.8068 110.479C51.4 110.084 51.8151 109.688 52.0129 109.273L52.2106 109.076C52.3424 108.944 52.4083 108.812 52.4083 108.68V108.482V108.285C52.4083 108.087 52.606 108.087 52.606 107.889V107.296C52.606 107.098 52.606 106.703 52.4083 106.505C52.2106 105.715 51.4 104.904 50.4114 104.113C51.2023 103.52 52.0129 102.907 52.2106 102.314V101.523V101.325V101.128C52.2106 99.9218 51.4197 98.9332 50.016 97.9249C51.0243 97.1341 51.8151 96.3235 52.0129 95.5327V95.335V95.1373V94.9395C52.0129 93.7335 51.222 92.745 49.8183 91.7367L50.016 91.539C50.2137 91.539 50.2137 91.3413 50.4114 91.3413L50.6091 91.1436L50.8068 90.9459L51.0046 90.7482L51.2023 90.5505C51.2023 90.5505 51.2023 90.3528 51.4 90.3528C51.4 90.3528 51.4 90.155 51.5977 90.155V89.9573V89.1665V88.9688V88.7711V88.5734C51.5977 87.3674 50.8068 86.3789 49.4031 85.3706C50.6091 84.5797 51.4 83.5714 51.5977 82.7608V82.5631V82.1677V81.3769C51.5977 81.1792 51.4 81.1792 51.4 80.9815V80.3883C51.4 80.1906 51.2023 80.1906 51.0046 79.9929L50.8068 79.7952C50.8068 79.7952 50.8068 79.5975 50.6091 79.5975C50.6091 79.5975 50.4114 79.5975 50.4114 79.3998C50.4114 79.3998 50.2137 79.3998 50.2137 79.2021C49.8183 78.8067 49.2054 78.4113 48.6123 77.9961V44.4057C48.6123 42.0135 50.6091 39.9969 53.0212 39.9969H103.614C107.015 39.9969 109.012 41.9937 109.012 44.4057V44.2673ZM102.804 59.8664V45.4734H56.0065V59.8664H102.804ZM101.993 104.469V85.2717H94.1837V104.469H101.993ZM101.993 81.8711V74.0815H94.1837V81.8711H101.993ZM101.993 69.6726V66.0744H94.1837V69.6726H101.993ZM89.5969 104.469V96.6596H81.7875V104.469H89.5969ZM89.5969 93.2788V85.4892H81.7875V93.2788H89.5969ZM89.5969 81.8711V74.0815H81.7875V81.8711H89.5969ZM89.5969 69.6726V66.0744H81.7875V69.6726H89.5969ZM77.2007 104.469V96.6596H69.3913V104.469H77.2007ZM77.2007 93.2788V85.4892H69.3913V93.2788H77.2007ZM77.2007 81.8711V74.0815H69.3913V81.8711H77.2007ZM77.2007 69.6726V66.0744H69.3913V69.6726H77.2007ZM64.6068 104.469V96.6596H56.7974V104.469H64.6068ZM64.6068 93.2788V85.4892H56.7974V93.2788H64.6068ZM64.6068 81.8711V74.0815H56.7974V81.8711H64.6068ZM64.6068 69.6726V66.0744H56.7974V69.6726H64.6068Z" fill="#669F77"/>
<path d="M102.606 45.4734H56.0063V59.8664H102.606V45.4734Z" fill="white"/>
<path d="M102.013 93.2788V104.469H94.2031V93.2788V90.6691V85.2717H102.013V90.6691V93.2788Z" fill="white"/>
<path d="M102.013 74.0815H94.2031V81.8711H102.013V74.0815Z" fill="white"/>
<path d="M102.013 66.0744H94.2031V69.6726H102.013V66.0744Z" fill="white"/>
<path d="M89.6165 96.6794H81.8071V104.489H89.6165V96.6794Z" fill="white"/>
<path d="M89.6165 85.2717H81.8071V93.0811H89.6165V85.2717Z" fill="white"/>
<path d="M89.6165 74.0815H81.8071V81.8711H89.6165V74.0815Z" fill="white"/>
<path d="M89.6165 66.0744H81.8071V69.6726H89.6165V66.0744Z" fill="white"/>
<path d="M85.603 19.6726V39.8783H54.0095C51.6172 39.8783 49.6006 41.8751 49.6006 44.2871V78.0949C47.9992 77.3041 45.8046 76.4935 43.3926 76.0981H42.9972C42.7995 76.0981 42.6018 76.0981 42.2064 75.9004C42.0087 75.9004 41.6132 75.9004 41.4155 75.7027H41.0201C40.6247 75.7027 40.2293 75.7027 39.8141 75.505H32.2222C31.2139 75.505 30.2254 75.7027 29.217 75.9004C29.0193 75.7027 28.011 75.7027 27.2202 75.505V10.0641C27.2202 7.86956 29.0193 6.07043 31.2139 6.07043H71.8228V15.679C71.8228 17.8735 73.6219 19.6726 75.8165 19.6726H85.6227H85.603ZM46.3977 29.4789C46.3977 25.8806 43.5903 23.0732 39.9921 23.0732C36.3938 23.0732 33.5864 26.0783 33.5864 29.4789C33.5864 33.0772 36.3938 35.8846 39.9921 35.8846C43.3926 35.8846 46.3977 33.0772 46.3977 29.4789Z" fill="white"/>
<path d="M85.6032 19.6726H75.9947C73.8001 19.6726 72.001 17.8735 72.001 15.679V6.07043L85.6032 19.6726Z" fill="white"/>
<path d="M77.0223 96.6794H69.2129V104.489H77.0223V96.6794Z" fill="white"/>
<path d="M77.0223 85.2717H69.2129V93.0811H77.0223V85.2717Z" fill="white"/>
<path d="M77.0223 74.0815H69.2129V81.8711H77.0223V74.0815Z" fill="white"/>
<path d="M77.0223 66.0744H69.2129V69.6726H77.0223V66.0744Z" fill="white"/>
<path d="M64.6263 96.6794H56.8169V104.489H64.6263V96.6794Z" fill="white"/>
<path d="M64.6263 85.2717H56.8169V93.0811H64.6263V85.2717Z" fill="white"/>
<path d="M64.6263 74.0815H56.8169V81.8711H64.6263V74.0815Z" fill="white"/>
<path d="M64.6263 66.0744H56.8169V69.6726H64.6263V66.0744Z" fill="white"/>
<path d="M18.4023 88.4745V88.2768C18.4023 87.0708 19.1932 86.0823 20.5969 85.074C22.7914 86.4777 26.192 87.6639 30.6008 88.0791C30.9963 88.0791 31.3917 88.0791 31.8069 88.2768H39.3988C39.7942 88.2768 40.1896 88.2768 40.6048 88.0791C44.7962 87.6837 48.4142 86.4777 50.6087 85.074C52.0125 86.0823 52.8033 87.0708 52.8033 88.2768V88.4745V88.6722V88.8699V89.6608V89.8585C52.8033 89.8585 52.8033 90.0562 52.6056 90.0562C52.6056 90.0562 52.6056 90.2539 52.4079 90.2539L52.2102 90.4516L52.0125 90.6493L51.8148 90.847L51.6171 91.0447C51.4193 91.0447 51.4193 91.2424 51.2216 91.2424C51.2216 91.2424 51.0239 91.2424 51.0239 91.4401C50.8262 91.4401 50.8262 91.6378 50.6285 91.6378C50.0354 92.0332 49.4225 92.231 48.6317 92.6461C47.4257 93.0416 46.0417 93.437 44.4403 93.8522C43.6495 94.0499 42.8389 94.0499 42.2458 94.2476C41.8503 94.2476 41.4549 94.4453 41.0397 94.4453H31.8464C31.451 94.4453 31.0556 94.4453 30.6404 94.2476C29.8496 94.0499 29.039 94.0499 28.4458 93.8522H28.0504C27.4573 93.6544 26.8444 93.6544 26.2513 93.4567C25.8559 93.4567 25.6582 93.259 25.243 93.259C25.1112 93.259 24.9794 93.1931 24.8476 93.0613C24.6499 93.0613 24.4522 92.8636 24.2545 92.8636H24.0568C24.0568 92.8636 23.859 92.8636 23.859 92.6659C23.6613 92.6659 23.4636 92.4682 23.2659 92.4682C23.2659 92.4682 23.0682 92.4682 23.0682 92.2705C22.8705 92.0728 22.6728 92.0728 22.4751 91.8751C22.4751 91.8751 22.2774 91.8751 22.2774 91.6774C22.0797 91.4797 21.882 91.4797 21.6843 91.282C19.4897 90.4911 18.6791 89.4828 18.4814 88.4745H18.4023Z" fill="white"/>
<path d="M53.0011 94.465V94.6627V94.8604V95.0582C52.6057 96.2642 51.3997 97.2527 49.7983 98.0633C49.7983 98.0633 49.6006 98.0633 49.6006 98.261C49.6006 98.261 49.4029 98.261 49.4029 98.4587C49.2052 98.4587 49.0075 98.6564 48.8098 98.6564C48.2166 98.8541 47.8015 99.0518 47.2083 99.2495C47.0765 99.2495 46.9447 99.3154 46.8129 99.4472C45.4092 99.8427 44.0055 100.238 42.4041 100.456H41.811C41.4155 100.456 41.0201 100.456 40.8027 100.653H31.6093C31.2139 100.653 30.8185 100.653 30.601 100.456H30.0079C27.2004 100.06 24.6105 99.2495 22.8114 98.4587C22.6136 98.261 22.4159 98.261 22.2182 98.0633H22.0205C22.0205 98.0633 21.8228 98.0633 21.8228 97.8656C21.6251 97.8656 21.6251 97.6679 21.4274 97.6679L21.2297 97.4702C19.826 96.4619 19.0352 95.4733 19.0352 94.2673C19.0352 93.6742 19.2329 93.259 19.4306 92.6659C19.826 92.0728 20.4389 91.4599 21.2297 91.0645C21.4274 91.2622 21.6251 91.2622 21.8228 91.4599C21.8228 91.4599 22.0205 91.4599 22.0205 91.6576C22.2182 91.8553 22.4159 91.8553 22.6136 92.053C22.6136 92.053 22.8114 92.053 22.8114 92.2507C23.0091 92.2507 23.2068 92.4484 23.4045 92.4484C23.4045 92.4484 23.6022 92.4484 23.6022 92.6461H23.7999C23.9976 92.6461 24.1953 92.8438 24.393 92.8438C24.5907 92.8438 24.5907 92.8438 24.7884 93.0415C25.1838 93.2393 25.3815 93.2393 25.7967 93.2393C26.3898 93.437 27.0027 93.6347 27.5959 93.6347H27.9913C28.7821 93.8324 29.5927 93.8324 30.1858 94.0301C30.5812 94.0301 30.9766 94.2278 31.3918 94.2278H40.5852C40.9806 94.2278 41.376 94.2278 41.7912 94.0301C42.582 93.8324 43.3926 93.8324 43.9857 93.6347C45.5872 93.2393 46.9909 92.8438 48.1771 92.4287C48.9679 92.231 49.5808 91.8355 50.1739 91.4204C50.3716 91.4204 50.3717 91.2227 50.5694 91.2227C52.1708 92.231 52.9616 93.2195 52.9616 94.4255L53.0011 94.465Z" fill="#669F77"/>
<path d="M18.6 102.077C18.4023 101.681 18.4023 101.286 18.4023 100.871C18.4023 99.6647 19.1932 98.6762 20.5969 97.6679L20.7946 97.8656C20.7946 97.8656 20.9923 98.0633 21.19 98.0633C21.19 98.0633 21.3877 98.0633 21.3877 98.261H21.5854C21.7831 98.4587 21.9808 98.4587 22.1785 98.6564C23.9777 99.4473 26.5874 100.258 29.3751 100.653H29.9682C30.3636 100.653 30.759 100.653 30.9765 100.851H40.1698C40.5653 100.851 40.9607 100.851 41.1781 100.653H41.7713C43.3727 100.456 44.7764 100.06 46.1801 99.645C46.3119 99.645 46.4437 99.579 46.5755 99.4472C47.1686 99.2495 47.7815 99.0518 48.177 98.8541C48.3747 98.8541 48.5724 98.6564 48.7701 98.6564C48.7701 98.6564 48.9678 98.6564 48.9678 98.4587C48.9678 98.4587 49.1655 98.4587 49.1655 98.261C49.5609 98.0633 49.9563 97.8656 50.3715 97.6679C51.7752 98.6762 52.566 99.6647 52.566 100.871V101.068V101.266V102.057C51.9729 103.065 50.7669 104.054 48.9678 104.864C48.7701 104.864 48.5724 105.062 48.3747 105.062H48.177C47.7815 105.26 47.1687 105.458 46.7732 105.655C46.6414 105.655 46.5096 105.721 46.3778 105.853C46.246 105.853 46.1142 105.919 45.9824 106.051C45.7847 106.051 45.3893 106.248 44.9741 106.248C43.9658 106.446 42.9773 106.644 41.969 106.841H29.5728C28.169 106.644 26.7653 106.446 25.5791 106.051C25.1837 106.051 24.986 105.853 24.7883 105.853C24.5906 105.853 24.5906 105.853 24.3929 105.655C24.2611 105.655 24.1292 105.589 23.9974 105.458C23.7997 105.458 23.7997 105.26 23.602 105.26C23.4043 105.26 23.4043 105.062 23.2066 105.062C22.8112 104.864 22.6135 104.864 22.4158 104.667C22.4158 104.667 22.2181 104.667 22.2181 104.469C22.0204 104.469 21.8227 104.271 21.8227 104.271C20.0235 103.876 19.0152 102.868 18.6198 102.077H18.6Z" fill="white"/>
<path d="M53.0011 107.276V107.87C53.0011 108.001 52.9352 108.133 52.8034 108.265V108.463V108.66C52.8034 108.858 52.6057 108.858 52.6057 109.056C52.6057 109.056 52.6057 109.253 52.408 109.253C50.2134 111.843 43.61 113.86 35.9983 113.86C26.3898 113.86 18.7979 111.053 18.7979 107.454C18.7979 106.248 19.5887 105.26 20.9924 104.252C21.1901 104.449 21.3878 104.449 21.7832 104.647C21.9809 104.647 22.1786 104.845 22.1786 104.845C22.1786 104.845 22.3763 104.845 22.3763 105.042C22.5741 105.24 22.9695 105.24 23.1672 105.438C23.3649 105.438 23.3649 105.635 23.5626 105.635C23.7603 105.635 23.7603 105.833 23.958 105.833C24.1557 105.833 24.1557 105.833 24.3534 106.031C24.4852 106.031 24.617 106.097 24.7488 106.229C24.9465 106.229 25.3419 106.426 25.5396 106.426C26.7457 106.822 28.1296 107.019 29.5333 107.217H41.9295C42.9378 107.019 43.9264 106.822 44.9347 106.624C45.3301 106.624 45.5278 106.426 45.943 106.426C46.0748 106.426 46.2066 106.36 46.3384 106.229C46.4702 106.229 46.602 106.163 46.7338 106.031C47.3269 105.833 47.7421 105.635 48.1375 105.438H48.3352C48.5329 105.438 48.7306 105.24 48.9283 105.24C49.5215 105.042 50.1343 104.647 50.7275 104.232C51.7358 105.023 52.5266 105.635 52.7243 106.624C52.922 106.624 52.922 107.019 52.922 107.217L53.0011 107.276Z" fill="#669F77"/>
<path d="M29.4147 75.6631C30.423 75.4654 31.4115 75.4654 32.4198 75.2677H40.0117C40.4072 75.2677 40.8026 75.2677 41.2177 75.4654H41.6132C41.8109 75.4654 42.2063 75.4654 42.404 75.6631C42.6017 75.6631 42.7994 75.6631 43.1948 75.8608H43.5902C46.9908 76.454 49.7982 77.66 51.3996 78.866C51.3996 78.866 51.5973 78.866 51.5973 79.0637C51.5973 79.0637 51.795 79.0637 51.795 79.2614C51.795 79.2614 51.9928 79.2614 51.9928 79.4591L52.1905 79.6568C52.3223 79.7886 52.4541 79.9204 52.5859 80.0522V80.6454C52.5859 80.8431 52.7836 80.8431 52.7836 81.0408V81.8316V82.227V82.4247C52.1905 85.0147 47.3862 87.4267 40.7828 88.0198C40.3874 88.0198 39.992 88.0198 39.5768 88.2175H31.9849C31.5894 88.2175 31.194 88.2175 30.7788 88.0198C25.9746 87.4267 21.9809 86.023 19.9841 84.4215C19.1932 83.6307 18.5803 82.8201 18.5803 81.8118C18.3826 79.0044 22.9892 76.6121 29.3751 75.6038L29.4147 75.6631Z" fill="#669F77"/>
<path d="M40.0116 23.0732C43.6099 23.0732 46.4173 25.8806 46.4173 29.4789C46.4173 33.0771 43.6099 35.8846 40.0116 35.8846C36.4134 35.8846 33.606 33.0771 33.606 29.4789C33.606 25.8806 36.4134 23.0732 40.0116 23.0732Z" fill="white"/>
<path d="M29.4148 75.6632C23.0091 76.6715 18.4223 78.866 18.4223 81.6537C18.4223 82.4445 18.8177 83.4528 19.826 84.2634L19.6283 84.0657H17.4338C17.2361 84.0657 16.8407 83.868 16.643 83.868C16.4452 83.868 16.4453 83.868 16.2475 83.6703C16.1157 83.6703 15.9839 83.6044 15.8521 83.4726C15.7203 83.3408 15.5885 83.2749 15.4567 83.2749H15.259C15.1272 83.2749 14.9954 83.209 14.8636 83.0772C14.6659 83.0772 14.4682 82.8795 14.2705 82.8795C14.0728 82.8795 13.8751 82.6817 13.6774 82.6817H13.0842C13.0842 82.6817 12.8865 82.6817 12.8865 82.484C12.8865 82.484 12.6888 82.484 12.6888 82.2863C11.6805 81.6932 11.0874 80.8826 11.0874 80.0918C11.0874 77.5018 16.4848 75.4852 23.2859 75.4852C23.6813 75.4852 25.6781 75.6829 27.2796 75.8806V76.6715C28.0704 76.0783 28.881 75.8806 29.4741 75.6632H29.4148Z" fill="white"/>
<path d="M19.8063 84.2634C21.8032 86.0625 25.7969 87.4662 30.6011 87.8616C26.4097 87.4662 22.7917 86.2602 20.5972 84.8565C19.1935 85.8648 18.4026 86.8533 18.4026 88.0593V88.2571H18.0072C17.8095 88.2571 17.4141 88.0593 17.2164 88.0593H16.821C16.6892 88.0593 16.5574 87.9935 16.4256 87.8616C16.2938 87.7298 16.162 87.6639 16.0302 87.6639C15.8983 87.6639 15.7665 87.598 15.6347 87.4662C15.2393 87.2685 15.0416 87.2685 14.6264 87.0708C14.6264 87.0708 14.4287 87.0708 14.4287 86.8731C14.4287 86.8731 14.231 86.8731 14.231 86.6754C14.231 86.6754 14.0333 86.6754 14.0333 86.4777C14.0333 86.4777 13.8356 86.4777 13.8356 86.28C12.4319 85.4892 11.4434 84.6786 11.4434 83.69C11.4434 82.8992 12.0365 82.0886 13.0448 81.4955C13.0448 81.4955 13.2425 81.4955 13.2425 81.6932C13.2425 81.6932 13.4402 81.6932 13.4402 81.8909H14.0333C14.231 81.8909 14.4287 82.0886 14.6264 82.0886C14.8241 82.0886 15.0218 82.2863 15.2196 82.2863C15.3514 82.2863 15.4832 82.3522 15.615 82.484H15.8127C15.9445 82.484 16.0763 82.5499 16.2081 82.6817C16.3399 82.6817 16.4717 82.7476 16.6035 82.8794C16.7353 82.8794 16.8671 82.9453 16.9989 83.0771C17.1966 83.0771 17.592 83.2748 17.7897 83.2748H19.9843C19.5889 84.0657 19.5889 84.2831 19.7866 84.2831L19.8063 84.2634Z" fill="white"/>
<path d="M20.6168 97.6679H20.0237C19.6283 97.6679 19.4306 97.6679 19.0154 97.4702C14.2111 96.8771 11.0083 95.0779 11.0083 93.0613C11.0083 92.2705 11.6014 91.4599 12.6097 90.8668C13.0051 91.0645 13.4005 91.2622 13.8157 91.4599C13.8157 91.4599 14.0134 91.4599 14.0134 91.6576C14.0134 91.6576 14.2111 91.6576 14.2111 91.8553H14.6066C14.7384 91.8553 14.8702 91.9212 15.002 92.053C15.1338 92.1848 15.2656 92.2507 15.3974 92.2507C15.5292 92.2507 15.661 92.3166 15.7928 92.4484C16.1882 92.4484 16.3859 92.6462 16.8011 92.6462H18.6002C18.2048 93.0416 18.2048 93.6545 18.2048 94.2476C18.4025 95.6513 19.2131 96.8573 20.5971 97.6481L20.6168 97.6679Z" fill="white"/>
<path d="M20.6166 97.6679C19.2129 98.6762 18.4221 99.6647 18.4221 100.871C18.4221 101.266 18.4221 101.662 18.6198 102.077C14.2109 101.484 11.0278 99.6845 11.0278 97.8854C11.0278 97.0945 11.621 96.2839 12.6293 95.6908C14.033 96.6991 16.4252 97.2922 19.035 97.6877C19.4304 97.6877 19.6281 97.6877 20.0433 97.8854C20.241 97.6877 20.4387 97.6877 20.6364 97.6877L20.6166 97.6679Z" fill="white"/>
<path d="M20.6166 91.282C19.8258 91.8751 19.2129 92.2903 18.8175 92.8834H17.0183C16.6229 92.8834 16.4252 92.6857 16.01 92.6857C15.8782 92.6857 15.7464 92.6198 15.6146 92.488C15.4828 92.3562 15.351 92.2903 15.2192 92.2903C15.0874 92.2903 14.9556 92.2244 14.8238 92.0926H14.4284C14.4284 92.0926 14.2307 92.0926 14.2307 91.8948C14.2307 91.8948 14.033 91.8949 14.033 91.6971C12.0361 90.9063 11.0278 89.898 11.0278 88.692C11.0278 87.9012 11.621 87.0906 12.6293 86.4975C12.827 86.6952 13.0247 86.6952 13.4201 86.8929C13.4201 86.8929 13.6178 86.8929 13.6178 87.0906C13.6178 87.0906 13.8155 87.0906 13.8155 87.2883C13.8155 87.2883 14.0132 87.2883 14.0132 87.486C14.0132 87.486 14.2109 87.486 14.2109 87.6837C14.6063 87.8814 14.804 87.8814 15.2192 88.0791C15.351 88.0791 15.4828 88.145 15.6146 88.2768C15.7464 88.2768 15.8782 88.3427 16.01 88.4745C16.1418 88.4745 16.2736 88.5404 16.4055 88.6722H16.8009C16.9986 88.6722 17.394 88.8699 17.5917 88.8699H17.9871C18.5802 89.4631 19.3908 90.4714 20.5771 91.2622L20.6166 91.282Z" fill="white"/>
<path d="M102.803 60.677H56.0062C55.6107 60.677 55.2153 60.2816 55.2153 59.8862V45.4931C55.2153 45.0977 55.6107 44.7023 56.0062 44.7023H102.606C103.001 44.7023 103.396 45.0977 103.396 45.4931V59.8862C103.594 60.2816 103.199 60.677 102.803 60.677ZM56.9947 58.8779H101.795V46.284H56.9947V58.8779Z" fill="#2C6941"/>
<path d="M64.6066 82.8794H56.7972C56.4018 82.8794 56.0063 82.484 56.0063 82.0886V74.2792C56.0063 73.8838 56.4018 73.4884 56.7972 73.4884H64.6066C65.002 73.4884 65.3974 73.8838 65.3974 74.2792V82.0886C65.5951 82.484 65.1997 82.8794 64.6066 82.8794ZM57.6078 81.0803H63.5983V75.0898H57.6078V81.0803Z" fill="#2C6941"/>
<path d="M77.2003 82.8794H69.3909C68.9955 82.8794 68.6001 82.484 68.6001 82.0886V74.2792C68.6001 73.8838 68.9955 73.4884 69.3909 73.4884H77.2003C77.5958 73.4884 77.9912 73.8838 77.9912 74.2792V82.0886C77.9912 82.484 77.5958 82.8794 77.2003 82.8794ZM70.2015 81.0803H76.2118V75.0898H70.2015V81.0803Z" fill="#2C6941"/>
<path d="M89.6164 82.8794H81.8069C81.4115 82.8794 81.0161 82.484 81.0161 82.0886V74.2792C81.0161 73.8838 81.4115 73.4884 81.8069 73.4884H89.6164C90.0118 73.4884 90.4072 73.8838 90.4072 74.2792V82.0886C90.6049 82.484 90.2095 82.8794 89.6164 82.8794ZM82.6175 81.0803H88.6278V75.0898H82.6175V81.0803Z" fill="#2C6941"/>
<path d="M102.013 82.8794H94.2034C93.808 82.8794 93.4126 82.484 93.4126 82.0886V74.2792C93.4126 73.8838 93.808 73.4884 94.2034 73.4884H102.013C102.408 73.4884 102.823 73.8838 102.823 74.2792V82.0886C103.021 82.484 102.626 82.8794 102.013 82.8794ZM95.014 81.0803H101.005V75.0898H95.014V81.0803Z" fill="#2C6941"/>
<path d="M64.6066 94.0697H56.7972C56.4018 94.0697 56.0063 93.6742 56.0063 93.2788V85.4892C56.0063 85.0938 56.4018 84.6984 56.7972 84.6984H64.6066C65.002 84.6984 65.3974 85.0938 65.3974 85.4892V93.2788C65.5951 93.6742 65.1997 94.0697 64.6066 94.0697ZM57.6078 92.2705H63.5983V86.2602H57.6078V92.2705Z" fill="#2C6941"/>
<path d="M77.2003 94.0697H69.3909C68.9955 94.0697 68.6001 93.6742 68.6001 93.2788V85.4892C68.6001 85.0938 68.9955 84.6984 69.3909 84.6984H77.2003C77.5958 84.6984 77.9912 85.0938 77.9912 85.4892V93.2788C77.9912 93.6742 77.5958 94.0697 77.2003 94.0697ZM70.2015 92.2705H76.2118V86.2602H70.2015V92.2705Z" fill="#2C6941"/>
<path d="M89.6164 94.0697H81.8069C81.4115 94.0697 81.0161 93.6742 81.0161 93.2788V85.4892C81.0161 85.0938 81.4115 84.6984 81.8069 84.6984H89.6164C90.0118 84.6984 90.4072 85.0938 90.4072 85.4892V93.2788C90.6049 93.6742 90.2095 94.0697 89.6164 94.0697ZM82.6175 92.2705H88.6278V86.2602H82.6175V92.2705Z" fill="#2C6941"/>
<path d="M102.013 105.477H94.2034C93.808 105.477 93.4126 105.082 93.4126 104.686V85.4892C93.4126 85.0938 93.808 84.6984 94.2034 84.6984H102.013C102.408 84.6984 102.823 85.0938 102.823 85.4892V104.686C103.021 105.082 102.626 105.477 102.013 105.477ZM95.014 103.678H101.005V86.28H95.014V103.678Z" fill="#2C6941"/>
<path d="M64.6066 105.477H56.7972C56.4018 105.477 56.0063 105.082 56.0063 104.686V96.8771C56.0063 96.4817 56.4018 96.0862 56.7972 96.0862H64.6066C65.002 96.0862 65.3974 96.4817 65.3974 96.8771V104.686C65.5951 105.082 65.1997 105.477 64.6066 105.477ZM57.6078 103.678H63.5983V97.6877H57.6078V103.678Z" fill="#2C6941"/>
<path d="M77.2003 105.477H69.3909C68.9955 105.477 68.6001 105.082 68.6001 104.686V96.8771C68.6001 96.4817 68.9955 96.0862 69.3909 96.0862H77.2003C77.5958 96.0862 77.9912 96.4817 77.9912 96.8771V104.686C77.9912 105.082 77.5958 105.477 77.2003 105.477ZM70.2015 103.678H76.2118V97.6877H70.2015V103.678Z" fill="#2C6941"/>
<path d="M89.6164 105.477H81.8069C81.4115 105.477 81.0161 105.082 81.0161 104.686V96.8771C81.0161 96.4817 81.4115 96.0862 81.8069 96.0862H89.6164C90.0118 96.0862 90.4072 96.4817 90.4072 96.8771V104.686C90.6049 105.082 90.2095 105.477 89.6164 105.477ZM82.6175 103.678H88.6278V97.6877H82.6175V103.678Z" fill="#2C6941"/>
<path d="M64.6066 70.681H56.7972C56.4018 70.681 56.0063 70.2855 56.0063 69.8901V66.2919C56.0063 65.8965 56.4018 65.501 56.7972 65.501H64.6066C65.002 65.501 65.3974 65.8965 65.3974 66.2919V69.8901C65.5951 70.2855 65.1997 70.681 64.6066 70.681ZM57.6078 68.8818H63.5983V66.885H57.6078V68.8818Z" fill="#2C6941"/>
<path d="M77.2003 70.681H69.3909C68.9955 70.681 68.6001 70.2855 68.6001 69.8901V66.2919C68.6001 65.8965 68.9955 65.501 69.3909 65.501H77.2003C77.5958 65.501 77.9912 65.8965 77.9912 66.2919V69.8901C77.9912 70.2855 77.5958 70.681 77.2003 70.681ZM70.2015 68.8818H76.2118V66.885H70.2015V68.8818Z" fill="#2C6941"/>
<path d="M89.6164 70.681H81.8069C81.4115 70.681 81.0161 70.2855 81.0161 69.8901V66.2919C81.0161 65.8965 81.4115 65.501 81.8069 65.501H89.6164C90.0118 65.501 90.4072 65.8965 90.4072 66.2919V69.8901C90.6049 70.2855 90.2095 70.681 89.6164 70.681ZM82.6175 68.8818H88.6278V66.885H82.6175V68.8818Z" fill="#2C6941"/>
<path d="M102.013 70.681H94.2034C93.808 70.681 93.4126 70.2855 93.4126 69.8901V66.2919C93.4126 65.8965 93.808 65.501 94.2034 65.501H102.013C102.408 65.501 102.823 65.8965 102.823 66.2919V69.8901C103.021 70.2855 102.626 70.681 102.013 70.681ZM95.014 68.8818H101.005V66.885H95.014V68.8818Z" fill="#2C6941"/>
<path d="M98.6121 55.2796C98.2167 55.2796 97.8213 54.8842 97.8213 54.4888V50.2974C97.8213 49.902 98.2167 49.5066 98.6121 49.5066C99.0075 49.5066 99.4227 49.902 99.4227 50.2974V54.4888C99.4227 54.8842 99.0273 55.2796 98.6121 55.2796Z" fill="#2C6941"/>
<path d="M93.6099 55.2796C93.2145 55.2796 92.7993 54.8842 92.7993 54.4888V50.2974C92.7993 49.902 93.1947 49.5066 93.6099 49.5066C94.0251 49.5066 94.4007 49.902 94.4007 50.2974V54.4888C94.4007 54.8842 94.0053 55.2796 93.6099 55.2796Z" fill="#2C6941"/>
<path d="M88.6082 55.2796C88.2128 55.2796 87.8174 54.8842 87.8174 54.4888V50.2974C87.8174 49.902 88.2128 49.5066 88.6082 49.5066C89.0036 49.5066 89.399 49.902 89.399 50.2974V54.4888C89.399 54.8842 89.0036 55.2796 88.6082 55.2796Z" fill="#2C6941"/>
<path d="M83.6063 55.2796C83.2108 55.2796 82.8154 54.8842 82.8154 54.4888V50.2974C82.8154 49.902 83.2108 49.5066 83.6063 49.5066C84.0017 49.5066 84.4168 49.902 84.4168 50.2974V54.4888C84.4168 54.8842 84.0214 55.2796 83.6063 55.2796Z" fill="#2C6941"/>
<path d="M78.6041 55.2796C78.2086 55.2796 77.7935 54.8842 77.7935 54.4888V50.2974C77.7935 49.902 78.1889 49.5066 78.6041 49.5066C79.0192 49.5066 79.3949 49.902 79.3949 50.2974V54.4888C79.3949 54.8842 78.9995 55.2796 78.6041 55.2796Z" fill="#2C6941"/>
<path d="M52.0127 80.6651C51.815 80.6651 51.6173 80.4674 51.4196 80.4674V80.2697L51.2219 80.072C50.8264 79.6766 50.2136 79.4789 49.6204 79.0637C49.225 78.866 49.0273 78.2729 49.225 77.8577C49.4227 77.4623 50.0158 77.2646 50.431 77.4623C51.2219 77.8577 51.8347 78.2531 52.2302 78.6683L52.4279 78.866L52.6256 79.0637L52.8233 79.2614L53.021 79.4591C53.4164 79.8545 53.4164 80.4674 53.021 80.6651C52.4279 80.4674 52.2302 80.6651 52.0127 80.6651Z" fill="#2C6941"/>
<path d="M52.408 81.0803C52.2103 81.0803 51.8149 80.8826 51.6172 80.6849C51.4195 80.2895 51.4195 79.6766 51.8149 79.4789C52.2103 79.2812 52.8232 79.2812 53.0209 79.6766V79.8743C53.2186 80.2697 53.2186 80.8826 52.8232 81.0803H52.4278H52.408Z" fill="#2C6941"/>
<path d="M52.6057 81.4757C52.2103 81.4757 52.0126 81.278 51.8149 81.0803V80.8826C51.6172 80.4872 51.8149 79.8743 52.2103 79.6766C52.6057 79.4789 53.2186 79.6766 53.4163 80.072V80.2697C53.614 80.6651 53.4163 81.278 53.0209 81.4757H52.6255H52.6057Z" fill="#2C6941"/>
<path d="M53.0012 82.4643C52.6058 82.4643 52.2104 82.0689 52.2104 81.6734V81.0803C52.0127 80.6849 52.2104 80.072 52.8035 79.8743C53.1989 79.6766 53.8118 79.8743 54.0095 80.4674C54.0095 80.5992 54.0754 80.731 54.2072 80.8628V81.6537C53.8118 82.0491 53.6141 82.4445 53.0012 82.4445V82.4643Z" fill="#2C6941"/>
<path d="M53.0013 83.0772C52.8695 83.0772 52.8695 83.0772 53.0013 83.0772C52.4082 82.8794 51.993 82.484 52.2105 82.0688C52.2105 81.6734 52.6059 81.0605 53.0013 81.0605C53.3967 81.0605 54.0096 81.456 54.0096 81.8514V82.2468C53.8119 82.6422 53.4165 83.0376 53.0013 83.0376V83.0772Z" fill="#2C6941"/>
<path d="M50.8064 85.8648C50.6087 85.8648 50.2133 85.6671 50.0156 85.4694C49.8179 85.074 49.8179 84.4611 50.2133 84.2634C51.2216 83.6703 51.8147 82.8597 52.0124 82.0688C52.0124 81.6734 52.4079 81.278 53.0207 81.278C53.4162 81.278 53.8116 81.6734 53.8116 82.2863V82.484C53.6139 83.69 52.8033 84.6786 51.2018 85.6869C51.2018 85.8846 51.0041 85.8846 50.8064 85.8846V85.8648Z" fill="#2C6941"/>
<path d="M53.0013 89.2654C52.4082 89.2654 51.993 88.8699 52.2105 88.2571V88.0594C52.2105 87.6639 52.6059 87.2685 53.0013 87.2685C53.3967 87.2685 53.7921 87.6639 53.7921 88.0594V88.4548C53.7921 88.8502 53.3967 89.2456 53.0013 89.2456V89.2654Z" fill="#2C6941"/>
<path d="M53.0013 89.4631C52.8695 89.4631 52.8695 89.4631 53.0013 89.4631C52.4082 89.2654 51.993 88.87 52.2105 88.4548C52.2105 88.0594 52.6059 87.6639 53.2188 87.6639C53.6142 87.6639 54.0096 88.0594 54.0096 88.6722V88.87C53.8119 89.0677 53.4165 89.4631 53.0013 89.4631Z" fill="#2C6941"/>
<path d="M52.8034 89.6805H52.6057C52.2103 89.4828 51.8148 89.0874 52.0125 88.6722C52.0125 88.2768 52.6057 87.8814 53.0209 87.8814C53.436 87.8814 53.8117 88.4745 53.8117 88.8897V89.2851C53.614 89.4828 53.2186 89.6805 52.8034 89.6805Z" fill="#2C6941"/>
<path d="M52.8034 89.8782H52.6057C52.2103 89.6805 51.8148 89.2851 52.0125 88.6722C52.2103 88.2768 52.6057 87.8814 53.0209 88.0791C53.4163 88.2768 53.8117 88.6722 53.614 89.0874V89.2851C53.614 89.6805 53.2186 89.8782 52.8231 89.8782H52.8034Z" fill="#2C6941"/>
<path d="M52.6055 90.4714C52.4078 90.4714 52.2101 90.4714 52.2101 90.2737C51.8147 90.076 51.617 89.4828 52.0124 89.0677C52.2101 88.6722 52.8032 88.4745 53.2184 88.4745C53.6138 88.6723 53.8115 89.0677 53.8115 89.6806C53.8115 89.6806 53.8115 89.8783 53.6138 89.8783C53.6138 89.8783 53.6138 90.076 53.4161 90.076C53.2184 90.2737 52.823 90.4714 52.6253 90.4714H52.6055Z" fill="#2C6941"/>
<path d="M52.408 90.4714C52.2103 90.4714 52.0126 90.4714 51.8149 90.2737C51.4195 90.076 51.4195 89.4828 51.6172 89.0677C51.8149 88.6722 52.408 88.4745 52.8232 88.87C53.2186 89.0677 53.4163 89.6608 53.0209 90.076V90.2737C53.0209 90.4714 52.8232 90.4714 52.4278 90.4714H52.408Z" fill="#2C6941"/>
<path d="M52.0127 91.0645C51.815 91.0645 51.6173 91.0645 51.4196 90.8668C51.0242 90.4714 51.0242 90.076 51.4196 89.6608L51.6173 89.4631L51.815 89.2654C52.0127 88.87 52.6058 88.87 53.021 89.0677C53.4164 89.2654 53.4164 89.8585 53.2187 90.2737C53.2187 90.2737 53.2187 90.4714 53.021 90.4714L52.8233 90.6691C52.6256 90.8668 52.4279 91.0645 52.0325 91.0645H52.0127Z" fill="#2C6941"/>
<path d="M51.6173 91.4797C51.4196 91.4797 51.2219 91.282 51.0242 91.0842C50.6288 90.6888 50.8265 90.0759 51.0242 89.8782L51.2219 89.6805C51.6173 89.2851 52.2302 89.2851 52.4279 89.6805C52.8233 90.0759 52.8233 90.6888 52.4279 90.8865L52.2302 91.0842C52.2302 91.4797 52.0325 91.4797 51.6371 91.4797H51.6173Z" fill="#2C6941"/>
<path d="M51.2022 91.8751C51.0045 91.8751 50.609 91.6774 50.4113 91.4797C50.0159 91.0842 50.2136 90.4714 50.609 90.2737C50.609 90.2737 50.8067 90.2737 50.8067 90.0759C51.2022 89.6805 51.815 89.8782 52.0128 90.0759C52.4082 90.4714 52.2105 91.0843 52.0128 91.282L51.8151 91.4797C51.6173 91.6774 51.4196 91.8751 51.2219 91.8751H51.2022Z" fill="#2C6941"/>
<path d="M50.8064 92.2705C50.6087 92.2705 50.2133 92.0728 50.0156 91.8751C49.8179 91.4797 49.8179 90.8668 50.2133 90.6691H50.411C50.8064 90.4714 51.4193 90.4714 51.617 90.8668C51.8147 91.2622 51.8147 91.8751 51.4193 92.0728C51.4193 92.0728 51.2216 92.0728 51.2216 92.2705C51.0239 92.0728 51.0239 92.2705 50.8262 92.2705H50.8064Z" fill="#2C6941"/>
<path d="M53.0013 95.6711C52.4082 95.6711 51.993 95.0779 52.2105 94.6627V94.465C52.2105 94.0696 52.6059 93.6742 53.0013 93.6742C53.3967 93.6742 53.7921 94.0696 53.7921 94.465V94.8604C53.7921 95.2559 53.3967 95.6513 53.0013 95.6513V95.6711Z" fill="#2C6941"/>
<path d="M53.0013 95.8688C52.8695 95.8688 52.8695 95.8688 53.0013 95.8688C52.4082 95.6711 51.993 95.2756 52.2105 94.8605C52.2105 94.465 52.6059 94.0696 53.2188 94.0696C53.6142 94.0696 54.0096 94.465 54.0096 95.0779V95.4734C53.8119 95.6711 53.4165 95.8688 53.0013 95.8688Z" fill="#2C6941"/>
<path d="M50.8064 98.6762C50.6087 98.6762 50.2133 98.4785 50.0156 98.2808C49.8179 97.8854 49.8179 97.2725 50.2133 97.0748C51.2216 96.4816 51.8147 95.8687 52.0124 95.0779V94.8802C52.0124 94.4848 52.6056 94.0894 53.0207 94.0894C53.4359 94.0894 53.8116 94.6825 53.8116 95.0977C53.8116 95.2295 53.7457 95.3613 53.6139 95.4931C53.2185 96.5014 52.4079 97.4899 51.2216 98.3005C51.0239 98.4983 51.0239 98.696 50.8262 98.696L50.8064 98.6762Z" fill="#2C6941"/>
<path d="M53.0013 102.077C52.4082 102.077 51.993 101.484 52.2105 101.068V100.871C52.2105 100.475 52.6059 100.08 53.0013 100.08C53.3967 100.08 53.7921 100.475 53.7921 100.871V101.266C53.7921 101.662 53.3967 102.057 53.0013 102.057V102.077Z" fill="#2C6941"/>
<path d="M53.0013 102.274C52.8695 102.274 52.8695 102.274 53.0013 102.274C52.4082 102.077 51.993 101.681 52.2105 101.266C52.2105 100.871 52.6059 100.475 53.2188 100.475C53.6142 100.475 54.0096 100.871 54.0096 101.484V101.879C53.8119 102.077 53.4165 102.274 53.0013 102.274Z" fill="#2C6941"/>
<path d="M52.8032 107.276C52.4078 107.276 52.0124 107.079 52.0124 106.683C51.8147 106.09 51.2216 105.477 50.2133 104.884C50.0156 104.686 49.8179 104.489 49.8179 104.093C49.8179 103.698 50.0156 103.5 50.2133 103.303C51.0041 102.709 51.617 102.294 51.8147 101.701V101.306V101.108C51.8147 100.713 52.4078 100.317 52.823 100.317C53.2382 100.317 53.6138 100.91 53.6138 101.325C53.6138 101.457 53.5479 101.589 53.4161 101.721V102.116C53.4161 102.116 53.4161 102.314 53.2184 102.314C53.0207 102.907 52.6253 103.322 52.0124 103.718C52.8032 104.311 53.2184 105.121 53.4161 105.715C53.6138 106.11 53.4161 106.723 52.823 106.921C52.9548 107.184 52.9548 107.316 52.823 107.316L52.8032 107.276Z" fill="#2C6941"/>
<path d="M52.8034 108.878H52.6057C52.2103 108.68 51.8148 108.285 52.0125 107.87V107.672C52.0125 107.276 52.408 106.881 53.0209 106.881C53.4163 106.881 53.8117 107.276 53.8117 107.889V108.087V108.285C53.614 108.68 53.2186 108.878 52.8034 108.878Z" fill="#2C6941"/>
<path d="M52.6057 109.471C52.4739 109.471 52.3421 109.405 52.2103 109.273C51.8149 109.076 51.6172 108.482 51.8149 108.067C52.0126 107.672 52.6057 107.474 53.0209 107.474C53.4163 107.672 53.614 108.265 53.614 108.68C53.614 108.68 53.614 108.878 53.4163 108.878C53.4163 109.273 53.0209 109.471 52.6255 109.471H52.6057Z" fill="#2C6941"/>
<path d="M52.6057 109.471C52.408 109.471 52.2103 109.471 52.2103 109.273C51.8149 109.076 51.6172 108.482 51.8149 108.067V107.87C52.0126 107.474 52.6057 107.276 53.0209 107.474C53.4163 107.672 53.614 108.265 53.4163 108.68V108.878C53.2186 109.471 52.8232 109.471 52.6255 109.471H52.6057Z" fill="#2C6941"/>
<path d="M104.602 112.674H54.0093C52.6056 112.674 51.2019 112.081 50.2133 111.072C50.0156 110.875 50.0156 110.677 50.0156 110.282C50.0156 110.084 50.2133 109.688 50.411 109.688C50.8065 109.293 51.2019 109.095 51.4193 108.68C51.617 108.285 52.2102 108.087 52.6254 108.482C53.0208 108.68 53.2185 109.273 52.8231 109.688L52.6254 109.886C52.4276 110.084 52.2299 110.282 52.2299 110.479C52.8231 110.677 53.2382 110.875 54.0291 110.875H104.622C106.619 110.875 108.023 109.273 108.023 107.474V44.2673C108.023 42.4682 106.421 40.8668 104.622 40.8668H85.6226C85.2272 40.8668 84.8318 40.4714 84.8318 40.076C84.8318 39.6805 85.2272 39.2851 85.6226 39.2851H104.622C107.43 39.2851 109.822 41.6774 109.822 44.4848V107.692C109.822 110.282 107.627 112.694 104.622 112.694L104.602 112.674Z" fill="#2C6941"/>
<path d="M108.814 108.878H58.4183C58.0229 108.878 57.6274 108.482 57.6274 108.087C57.6274 107.692 58.0229 107.296 58.4183 107.296H108.814C109.209 107.296 109.624 107.692 109.624 108.087C109.624 108.482 109.229 108.878 108.814 108.878Z" fill="#2C6941"/>
<path d="M27.3982 77.0669C27.2005 77.0669 27.0028 77.0669 26.8051 76.8692C26.6074 76.6715 26.4097 76.4737 26.4097 76.276V10.0641C26.4097 7.25667 28.6042 5.06213 31.4116 5.06213H72.0206C72.416 5.06213 72.8312 5.45755 72.8312 5.85296C72.8312 6.24837 72.4358 6.86126 72.0206 6.86126H31.4116C29.6125 6.86126 28.2088 8.26498 28.2088 10.0641V75.07C28.6042 75.07 28.8019 74.8723 29.2171 74.8723C30.2254 74.6746 31.2139 74.6746 32.4199 74.4769H32.8154C33.2108 74.4769 33.8237 74.8723 33.8237 75.2677C33.8237 75.6632 33.4282 76.276 33.0328 76.276H32.8351C31.8268 76.276 30.8383 76.4738 29.83 76.6715C28.8217 76.6715 28.2286 76.8692 27.4377 77.0669H27.3982Z" fill="#2C6941"/>
<path d="M33.013 76.276C32.6176 76.276 32.2222 75.8806 32.2222 75.4852C32.2222 75.0898 32.6176 74.4769 33.013 74.4769H33.4084C33.8038 74.4769 34.4167 74.8723 34.4167 75.2677C34.4167 75.6631 34.0213 76.276 33.6259 76.276H33.0328H33.013Z" fill="#2C6941"/>
<path d="M34.4168 76.276C34.0214 76.276 33.626 75.8806 33.626 75.4852C33.626 75.0898 34.0214 74.4769 34.4168 74.4769H34.8122C35.2076 74.4769 35.8205 74.8723 35.8205 75.2677C35.8205 75.6631 35.4251 76.276 35.0297 76.276H34.4366H34.4168Z" fill="#2C6941"/>
<path d="M35.0101 76.276C34.6147 76.276 34.2192 75.8806 34.2192 75.4852C34.2192 75.0898 34.6147 74.6944 35.0101 74.6944H35.4055C35.8009 74.6944 36.1963 75.0898 36.1963 75.4852C36.1963 75.8806 35.8009 76.276 35.4055 76.276H35.0101Z" fill="#2C6941"/>
<path d="M36.8088 76.276H36.4134C36.018 76.276 35.6226 75.8806 35.6226 75.2677C35.6226 74.8723 36.018 74.2594 36.6309 74.4769H37.0263C37.4217 74.4769 37.8171 74.8723 37.8171 75.4852C37.6194 75.8806 37.224 76.276 36.8088 76.276Z" fill="#2C6941"/>
<path d="M37.8175 76.276H37.2244C36.829 76.276 36.4336 75.8806 36.4336 75.2677C36.4336 74.6548 36.829 74.4769 37.4419 74.4769H37.8373C38.2327 74.4769 38.6281 74.8723 38.6281 75.4852C38.8258 75.8806 38.4304 76.276 37.8373 76.276H37.8175Z" fill="#2C6941"/>
<path d="M38.8058 76.276H38.2127C37.8173 76.276 37.4219 75.8806 37.4219 75.2677C37.4219 74.8723 37.8173 74.4769 38.4302 74.4769H39.0233C39.4187 74.4769 39.8141 74.8723 39.8141 75.4852C39.8141 76.0981 39.4187 76.276 38.8058 76.276Z" fill="#2C6941"/>
<path d="M39.6164 76.4738C39.4846 76.4738 39.4846 76.4738 39.6164 76.4738H39.221C38.8256 76.4738 38.4302 76.0783 38.4302 75.4654C38.4302 75.07 38.8256 74.6746 39.4385 74.6746H39.8339C40.2293 74.6746 40.6247 75.07 40.6247 75.6829C40.427 76.0783 40.0316 76.4738 39.6164 76.4738Z" fill="#2C6941"/>
<path d="M40.0119 76.4738H39.6165C39.2211 76.4738 38.8257 76.0783 38.8257 75.4654C38.8257 74.8526 39.2211 74.6746 39.834 74.6746H40.0317C40.4271 74.6746 40.8225 75.07 40.8225 75.6829C40.8225 76.0783 40.4271 76.4738 40.0317 76.4738H40.0119Z" fill="#2C6941"/>
<path d="M41.6135 76.6714H41.2181C40.8227 76.6714 40.4272 76.0783 40.4272 75.6631C40.4272 75.248 41.0204 74.8723 41.4356 74.8723H41.831C42.2264 74.8723 42.6218 75.4654 42.6218 75.8806C42.4241 76.276 42.0287 76.6714 41.6135 76.6714Z" fill="#2C6941"/>
<path d="M43.2145 76.8691C42.8191 76.8691 42.6213 76.8692 42.4236 76.6714C42.0282 76.6714 41.6328 76.0783 41.6328 75.6631C41.6328 75.248 42.2259 74.8723 42.6411 74.8723C42.8388 74.8723 43.2342 74.8723 43.4319 75.07C43.8274 75.07 44.2228 75.6631 44.2228 76.0783C44.0251 76.4737 43.6297 76.8691 43.2145 76.8691Z" fill="#2C6941"/>
<path d="M49.7983 78.866C49.6665 78.866 49.5347 78.8001 49.4029 78.6683C47.8015 77.8775 45.8047 77.2646 43.4124 76.6714C43.017 76.6714 42.6216 76.0783 42.6216 75.6631C42.6216 75.248 43.2147 74.8723 43.6299 74.8723C45.6267 75.2677 47.2281 75.6631 48.8296 76.276V44.2673C48.8296 41.4599 51.2218 39.0676 54.0293 39.0676H84.6342V19.6726C84.6342 19.2772 85.0296 18.8818 85.4448 18.8818C85.86 18.8818 86.2357 19.2772 86.2357 19.6726V39.8782C86.2357 40.2737 85.8402 40.6691 85.4448 40.6691H54.049C52.2499 40.6691 50.6485 42.2705 50.6485 44.0696V77.8775C50.6485 78.2729 50.4508 78.4706 50.2531 78.6683C50.0554 78.866 50.0554 78.866 49.8576 78.866H49.7983Z" fill="#2C6941"/>
<path d="M85.6032 20.4832H75.9947C73.1872 20.4832 70.9927 18.2887 70.9927 15.4813V5.87272C70.9927 5.47731 71.1904 5.2796 71.5858 5.08189C71.9812 4.88419 72.3766 5.08189 72.5941 5.2796L86.1963 18.8818C86.394 19.0795 86.5917 19.4749 86.394 19.8901C86.394 20.2855 85.9986 20.4832 85.5834 20.4832H85.6032ZM72.8116 8.08703V15.4813C72.8116 17.2804 74.2153 18.6841 76.0144 18.6841H83.4086L72.8116 8.08703Z" fill="#2C6941"/>
<path d="M50.2136 14.2753H33.6063C33.2108 14.2753 32.8154 13.8798 32.8154 13.4844C32.8154 13.089 33.2108 12.6936 33.6063 12.6936H50.2136C50.609 12.6936 51.0044 13.089 51.0044 13.4844C51.0044 13.8798 50.609 14.2753 50.2136 14.2753Z" fill="#2C6941"/>
<path d="M61.2061 18.4666H33.6063C33.2108 18.4666 32.8154 18.0712 32.8154 17.6758C32.8154 17.2804 33.2108 16.885 33.6063 16.885H61.4038C61.7992 16.885 62.1946 17.2804 62.1946 17.6758C62.1946 18.0712 61.7992 18.4666 61.1863 18.4666H61.2061Z" fill="#2C6941"/>
<path d="M40.0119 36.6754C36.0182 36.6754 32.6177 33.4726 32.6177 29.2812C32.6177 25.0898 35.8205 21.887 40.0119 21.887C44.2033 21.887 47.4061 25.0898 47.4061 29.2812C47.2084 33.4726 44.0056 36.6754 40.0119 36.6754ZM40.0119 23.8838C37.0068 23.8838 34.4168 26.276 34.4168 29.4789C34.4168 32.484 36.8091 35.074 40.0119 35.074C43.017 35.074 45.607 32.6817 45.607 29.4789C45.4093 26.4738 42.9973 23.8838 40.0119 23.8838Z" fill="#2C6941"/>
<path d="M35.6031 114.671C30.7988 114.671 26.4097 114.078 23.0092 112.674C19.4109 111.27 17.4141 109.471 17.4141 107.276C17.4141 106.268 17.8095 104.667 20.004 103.283C20.2017 103.085 20.5971 103.085 21.0123 103.283C21.21 103.48 21.4077 103.48 21.6054 103.678C22.0009 103.876 22.1986 104.469 22.0009 104.884C21.8031 105.28 21.21 105.477 20.7948 105.28C20.7948 105.28 20.5971 105.28 20.5971 105.082C19.8063 105.675 19.1934 106.486 19.1934 107.276C19.1934 109.866 25.9945 112.872 35.5833 112.872C42.7798 112.872 49.3832 111.072 51.3801 108.68V108.482C51.3801 108.285 51.5778 108.285 51.5778 108.087V107.692V106.901C51.3801 106.308 50.9846 105.893 50.3718 105.299C49.9763 105.497 49.5809 105.695 48.968 105.892C48.7703 105.892 48.5726 106.09 48.3749 106.09H48.1772C47.7818 106.288 47.1689 106.09 46.9712 105.497C46.7735 105.102 46.9712 104.489 47.5643 104.291H47.762C47.9597 104.291 48.1574 104.093 48.3551 104.093C48.9483 103.896 49.5612 103.5 49.9566 103.303C50.1543 103.105 50.5497 103.105 50.9649 103.303C52.1709 104.093 52.9617 105.102 53.3571 106.11C53.5548 106.505 53.5548 106.901 53.5548 107.316V108.107C53.5548 108.305 53.3571 108.502 53.3571 108.7V108.898V109.095C53.3571 109.293 53.1594 109.491 52.9617 109.688C52.9617 109.688 52.9617 109.886 52.764 109.886C50.3717 112.694 43.5706 114.69 35.5635 114.69L35.6031 114.671Z" fill="#2C6941"/>
<path d="M46.3976 106.881C46.0022 106.881 45.6068 106.683 45.6068 106.288C45.4091 105.892 45.8045 105.28 46.1999 105.082H46.5953C46.9907 104.884 47.6036 105.28 47.8013 105.675C47.999 106.07 47.6036 106.683 47.2082 106.881H46.4174H46.3976Z" fill="#2C6941"/>
<path d="M45.0138 107.276C44.6184 107.276 44.223 107.079 44.223 106.683C44.0253 106.288 44.4207 105.675 44.8161 105.675C45.2115 105.675 45.4092 105.477 45.6069 105.477H46.2001C46.5955 105.28 47.2084 105.675 47.4061 106.07C47.6038 106.466 47.2084 107.079 46.813 107.276H46.2198C45.8244 107.276 45.6267 107.474 45.2115 107.474C45.2115 107.276 45.0138 107.276 45.0138 107.276Z" fill="#2C6941"/>
<path d="M40.8025 108.067C40.4071 108.067 40.0117 107.672 40.0117 107.276C40.0117 106.881 40.2094 106.268 40.8025 106.268L41.8108 106.07C42.8192 105.873 43.8077 105.675 44.816 105.477C45.2114 105.28 45.8243 105.675 45.8243 106.07C46.022 106.466 45.6266 107.079 45.2312 107.079C44.2229 107.276 43.2343 107.474 42.226 107.672L40.8223 108.067C40.9541 108.067 40.9541 108.067 40.8223 108.067H40.8025Z" fill="#2C6941"/>
<path d="M40.407 108.067C40.0116 108.067 39.6162 107.672 39.6162 107.276C39.6162 106.881 40.0116 106.268 40.407 106.268H40.8025C41.1979 106.268 41.8108 106.466 41.8108 107.059C41.8108 107.454 41.6131 108.067 41.0199 108.067H40.4268H40.407Z" fill="#2C6941"/>
<path d="M39.3987 108.067C39.0033 108.067 38.6079 107.672 38.6079 107.276C38.6079 106.881 39.0033 106.268 39.3987 106.268H39.7941C40.1896 106.268 40.8025 106.664 40.8025 107.059C40.8025 107.454 40.407 108.067 40.0116 108.067H39.4185H39.3987Z" fill="#2C6941"/>
<path d="M38.6082 108.265C38.2128 108.265 37.8174 107.87 37.8174 107.474C37.8174 107.079 38.2128 106.466 38.6082 106.466H39.0036C39.399 106.466 40.0119 106.861 40.0119 107.257C40.0119 107.652 39.6165 108.265 39.2211 108.265H38.628H38.6082Z" fill="#2C6941"/>
<path d="M37.8172 108.265C37.4218 108.265 37.0264 107.87 37.0264 107.474C37.0264 107.079 37.4218 106.466 37.8172 106.466H38.2126C38.608 106.466 39.2209 106.861 39.2209 107.257C39.2209 107.652 38.8255 108.265 38.4301 108.265H37.837C37.9688 108.265 37.9688 108.265 37.837 108.265H37.8172Z" fill="#2C6941"/>
<path d="M37.2044 108.265C36.809 108.265 36.4136 107.87 36.4136 107.474C36.4136 107.079 36.809 106.466 37.2044 106.466H37.9952C38.3906 106.466 39.0035 106.861 39.0035 107.257C39.0035 107.652 38.6081 108.265 38.2127 108.265H37.2044Z" fill="#2C6941"/>
<path d="M36.2161 108.265C35.8207 108.265 35.4253 107.87 35.4253 107.474C35.4253 107.079 35.8207 106.683 36.2161 106.683H36.8092C37.4024 106.683 37.8175 107.079 37.8175 107.474C37.8175 107.87 37.4221 108.482 37.0267 108.482H36.829C36.6313 108.285 36.4336 108.285 36.2359 108.285L36.2161 108.265Z" fill="#2C6941"/>
<path d="M35.0099 108.265H34.4168C34.0214 108.265 33.626 107.87 33.626 107.257C33.626 106.861 34.0214 106.466 34.4168 106.466H35.0099C35.4053 106.466 35.8008 106.861 35.8008 107.257C35.8008 107.652 35.603 108.265 35.0099 108.265Z" fill="#2C6941"/>
<path d="M34.1993 108.265H33.4085C33.0131 108.265 32.6177 107.87 32.6177 107.257C32.6177 106.644 33.0131 106.466 33.626 106.466H34.4168C34.8122 106.466 35.2076 106.861 35.2076 107.474C35.2076 107.87 34.8122 108.265 34.1993 108.265Z" fill="#2C6941"/>
<path d="M33.4084 108.265H33.013C32.6176 108.265 32.2222 107.87 32.2222 107.257C32.2222 106.644 32.6176 106.466 33.2305 106.466H33.6259C34.0213 106.466 34.4167 106.861 34.4167 107.474C34.4167 107.87 34.0213 108.265 33.4084 108.265Z" fill="#2C6941"/>
<path d="M32.8151 108.265H32.222C31.8266 108.265 31.4312 107.87 31.4312 107.257C31.4312 106.861 31.8266 106.466 32.4395 106.466H32.8349C33.2303 106.466 33.6257 106.861 33.6257 107.474C33.6257 107.87 33.2303 108.265 32.8349 108.265H32.8151Z" fill="#2C6941"/>
<path d="M32.0046 108.067H31.6092C31.2138 108.067 30.8184 107.672 30.8184 107.059C30.8184 106.664 31.2138 106.268 31.8267 106.268H32.2221C32.6175 106.268 33.0129 106.664 33.0129 107.276C33.0129 107.889 32.6175 108.067 32.0046 108.067Z" fill="#2C6941"/>
<path d="M31.0163 108.067H30.4232C30.0277 108.067 29.6323 107.672 29.6323 107.059C29.6323 106.664 30.0277 106.268 30.6406 106.268H31.036C31.4315 106.268 31.8269 106.664 31.8269 107.276C31.8269 107.672 31.4315 108.067 31.036 108.067H31.0163Z" fill="#2C6941"/>
<path d="M30.4033 108.067L29.1973 107.87C27.7935 107.672 26.3898 107.474 25.2036 107.079C24.8082 107.079 24.6105 106.881 24.1953 106.881C24.0635 106.881 23.9317 106.815 23.7999 106.683H23.6022C23.4704 106.683 23.3385 106.617 23.2067 106.486C22.8113 106.288 22.4159 105.892 22.6136 105.28C22.8113 104.884 23.2067 104.489 23.8196 104.686C23.9514 104.686 24.0832 104.752 24.215 104.884H24.8082C25.0059 104.884 25.4013 105.082 25.599 105.082C26.805 105.477 27.9912 105.675 29.395 105.873L30.4033 106.07C30.7987 106.07 31.1941 106.664 31.1941 107.079C31.3918 107.672 30.9964 108.087 30.4033 108.087V108.067Z" fill="#2C6941"/>
<path d="M23.4044 106.268H23.009C22.8113 106.268 22.8113 106.07 22.6136 106.07C22.2182 105.873 22.0205 105.28 22.2182 104.864C22.4159 104.469 23.009 104.271 23.4242 104.469C23.556 104.469 23.6878 104.535 23.8196 104.667C24.215 104.864 24.4127 105.26 24.4127 105.873C24.0173 106.07 23.8196 106.268 23.4044 106.268Z" fill="#2C6941"/>
<path d="M22.0007 105.873H21.6053C21.4734 105.873 21.4075 105.807 21.4075 105.675C21.0121 105.28 20.8144 104.884 21.0121 104.469C21.2098 104.074 21.803 103.876 22.2181 104.074C22.2181 104.074 22.4158 104.074 22.4158 104.271C22.8113 104.469 23.009 105.062 22.8113 105.477C22.8113 105.675 22.4158 105.873 22.0204 105.873H22.0007Z" fill="#2C6941"/>
<path d="M35.603 108.265H28.9996C27.5959 108.067 26.1922 107.87 25.0059 107.474C24.6105 107.474 24.4128 107.276 23.9976 107.276C23.8658 107.276 23.734 107.211 23.6022 107.079C23.4704 106.947 23.3386 106.881 23.2068 106.881C23.0091 106.881 22.8114 106.683 22.8114 106.683C22.6137 106.683 22.6137 106.486 22.416 106.486C22.0206 106.288 21.8229 106.288 21.4077 106.09C21.4077 106.09 21.21 106.09 21.21 105.892C21.0123 105.892 20.8146 105.695 20.6169 105.695C19.0154 104.904 18.0269 103.896 17.6117 102.69C17.414 102.294 17.2163 101.681 17.2163 101.088C17.2163 99.6845 18.0071 98.2808 19.8063 97.0945C20.004 96.8968 20.3994 96.8968 20.8146 97.0945C21.21 97.2922 21.4077 97.8854 21.21 98.3005C21.0123 98.4983 20.8146 98.696 20.6169 98.696C19.826 99.2891 19.0154 100.1 19.0154 101.088C19.0154 101.286 19.0154 101.484 19.2131 101.879C19.6086 102.67 20.4192 103.283 21.6054 103.876C21.8031 103.876 21.8031 104.074 22.0008 104.074C22.0008 104.074 22.1985 104.074 22.1985 104.271C22.3962 104.469 22.7916 104.469 22.9893 104.667C23.1211 104.667 23.2529 104.733 23.3848 104.864C23.5825 104.864 23.5825 105.062 23.7802 105.062C23.9779 105.062 23.9779 105.062 24.1756 105.26C24.3074 105.26 24.4392 105.326 24.571 105.458C24.7687 105.458 25.1641 105.655 25.3618 105.655C26.5678 106.051 27.7541 106.248 29.1578 106.446H41.9494C42.9577 106.248 43.9462 106.051 44.9545 105.853C45.1522 105.853 45.5477 105.655 45.7454 105.655C45.9431 105.655 45.9431 105.655 46.1408 105.458C46.2726 105.458 46.4044 105.392 46.5362 105.26C47.1293 105.062 47.5445 104.864 47.9399 104.667H48.1376C48.3353 104.667 48.533 104.469 48.7307 104.469C50.3322 103.678 51.3405 102.868 51.9336 102.077V101.879V101.484V101.286C51.9336 100.495 51.3405 99.6845 50.5299 99.0914C50.3322 99.2891 50.1345 99.2891 49.739 99.4868C49.3436 99.6845 48.7307 99.4868 48.533 99.0914C48.3353 98.696 48.533 98.0831 48.9284 97.8854C49.3239 97.6877 49.7193 97.4899 49.9367 97.2922C50.3322 97.0945 50.5299 97.0945 50.9451 97.2922C53.1396 98.696 53.535 100.297 53.535 101.286V101.681V102.077C53.535 102.209 53.4691 102.34 53.3373 102.472V103.065C52.7442 104.271 51.3405 105.26 49.3436 106.268C49.1459 106.268 48.9482 106.466 48.7505 106.466H48.5528C48.1574 106.664 47.5445 106.861 46.9514 107.059C46.8196 107.059 46.6878 107.125 46.556 107.257C46.3583 107.257 46.1606 107.257 46.1606 107.454C45.9628 107.454 45.5674 107.652 45.1523 107.652C44.1439 107.85 43.1554 108.047 42.1471 108.245H35.5437L35.603 108.265Z" fill="#2C6941"/>
<path d="M49.0075 99.467C48.6121 99.467 48.4144 99.2693 48.2167 98.8739C48.019 98.4785 48.2167 97.8656 48.6121 97.6679H48.8098C49.2053 97.4702 49.8181 97.6679 50.0159 98.0633C50.2136 98.4587 50.0158 99.0716 49.6204 99.2693C49.6204 99.2693 49.4227 99.2693 49.4227 99.467H49.0273H49.0075Z" fill="#2C6941"/>
<path d="M46.3976 100.475C46.0022 100.475 45.6068 100.278 45.6068 99.8822C45.4091 99.4868 45.8045 98.8739 46.1999 98.6762H46.5953C47.1884 98.4785 47.6036 98.2808 48.1967 98.0831C48.5922 97.8854 49.205 98.0831 49.4027 98.4785C49.6005 98.8739 49.4027 99.4868 49.0073 99.6845C48.4142 99.8822 47.999 100.08 47.4059 100.278H47.0105C46.6151 100.475 46.4174 100.475 46.4174 100.475H46.3976Z" fill="#2C6941"/>
<path d="M40.407 101.681C40.0116 101.681 39.6162 101.286 39.6162 100.891C39.6162 100.495 40.0116 99.8822 40.407 99.8822C40.8025 99.8822 41.1979 99.8822 41.4153 99.6845H42.0085C43.6099 99.4868 45.0136 99.0914 46.1998 98.6762C46.5953 98.4785 47.2081 98.8739 47.4059 99.2693C47.6036 99.6647 47.2082 100.278 46.8127 100.475C45.409 100.871 43.8076 101.266 42.2062 101.484H41.6131C41.2176 101.484 40.8222 101.681 40.407 101.681Z" fill="#2C6941"/>
<path d="M39.3987 101.681C39.0033 101.681 38.6079 101.286 38.6079 100.891C38.6079 100.495 39.0033 99.8822 39.3987 99.8822H39.7941C40.1896 99.8822 40.8025 100.278 40.8025 100.673C40.8025 101.068 40.407 101.681 40.0116 101.681H39.4185H39.3987Z" fill="#2C6941"/>
<path d="M38.6082 101.879C38.2128 101.879 37.8174 101.484 37.8174 101.088C37.8174 100.693 38.2128 100.08 38.6082 100.08H39.0036C39.399 100.08 40.0119 100.475 40.0119 100.871C40.0119 101.266 39.6165 101.879 39.2211 101.879H38.628H38.6082Z" fill="#2C6941"/>
<path d="M37.8172 101.879C37.4218 101.879 37.0264 101.484 37.0264 101.088C37.0264 100.693 37.4218 100.08 37.8172 100.08H38.2126C38.608 100.08 39.2209 100.475 39.2209 100.871C39.2209 101.266 38.8255 101.879 38.4301 101.879H37.837C37.9688 101.879 37.9688 101.879 37.837 101.879H37.8172Z" fill="#2C6941"/>
<path d="M37.2044 101.879C36.809 101.879 36.4136 101.484 36.4136 101.088C36.4136 100.693 36.809 100.08 37.2044 100.08H37.9952C38.3906 100.08 39.0035 100.475 39.0035 100.871C39.0035 101.266 38.6081 101.879 38.2127 101.879H37.2044Z" fill="#2C6941"/>
<path d="M36.2161 101.879C35.8207 101.879 35.4253 101.484 35.4253 101.088C35.4253 100.693 35.8207 100.297 36.2161 100.297H36.8092C37.4024 100.297 37.8175 100.693 37.8175 101.088C37.8175 101.484 37.4221 102.097 37.0267 102.097H36.829C36.6313 101.899 36.4336 101.899 36.2359 101.899L36.2161 101.879Z" fill="#2C6941"/>
<path d="M35.0099 101.879H34.4168C34.0214 101.879 33.626 101.484 33.626 100.871C33.626 100.475 34.0214 100.08 34.4168 100.08H35.0099C35.4053 100.08 35.8008 100.475 35.8008 100.871C35.8008 101.266 35.603 101.879 35.0099 101.879Z" fill="#2C6941"/>
<path d="M34.1993 101.879H33.4085C33.0131 101.879 32.6177 101.484 32.6177 100.871C32.6177 100.475 33.0131 100.08 33.626 100.08H34.4168C34.8122 100.08 35.2076 100.475 35.2076 101.088C35.2076 101.484 34.8122 101.879 34.1993 101.879Z" fill="#2C6941"/>
<path d="M33.4084 101.879H33.013C32.6176 101.879 32.2222 101.484 32.2222 100.871C32.2222 100.258 32.6176 100.08 33.2305 100.08H33.6259C34.0213 100.08 34.4167 100.475 34.4167 101.088C34.4167 101.484 34.0213 101.879 33.4084 101.879Z" fill="#2C6941"/>
<path d="M32.8151 101.879H32.222C31.8266 101.879 31.4312 101.484 31.4312 100.871C31.4312 100.475 31.8266 100.08 32.4395 100.08H32.8349C33.2303 100.08 33.6257 100.475 33.6257 101.088C33.6257 101.484 33.2303 101.879 32.8349 101.879H32.8151Z" fill="#2C6941"/>
<path d="M32.0046 101.681H31.6092C31.2138 101.681 30.8184 101.286 30.8184 100.673C30.8184 100.278 31.2138 99.8822 31.8267 99.8822H32.2221C32.6175 99.8822 33.0129 100.278 33.0129 100.891C33.0129 101.503 32.6175 101.681 32.0046 101.681Z" fill="#2C6941"/>
<path d="M31.0163 101.681C30.6209 101.681 30.2255 101.681 29.8103 101.484H29.2172C26.4097 101.088 23.8198 100.278 21.8229 99.4868C21.6252 99.2891 21.4275 99.2891 21.2298 99.0914C20.8344 98.8937 20.6367 98.3005 20.8344 97.8854C21.0321 97.49 21.6252 97.2922 22.0404 97.4899C22.2381 97.4899 22.4358 97.6876 22.6335 97.6876C24.4327 98.4785 26.8249 99.0914 29.6323 99.4868H30.2255C30.6209 99.4868 31.0163 99.4868 31.2338 99.6845C31.6292 99.6845 32.0246 100.08 32.0246 100.693C31.8269 101.286 31.4315 101.701 31.0163 101.701V101.681Z" fill="#2C6941"/>
<path d="M21.4076 99.0716C21.2099 99.0716 21.0122 99.0716 21.0122 98.8739H20.8145C20.8145 98.8739 20.6168 98.6762 20.4191 98.6762C20.0237 98.4785 19.826 97.8854 20.2214 97.4702C20.4191 97.0748 21.0122 96.8771 21.4274 97.2725L21.6251 97.4702H22.0205C22.4159 97.6679 22.6136 98.261 22.4159 98.6762C22.0205 98.8739 21.8228 99.0716 21.4076 99.0716Z" fill="#2C6941"/>
<path d="M35.6031 101.879H30.7988C30.4034 101.879 30.2057 101.879 29.5928 101.681H28.9997C26.1922 101.286 23.6023 100.475 21.6054 99.6845C21.4077 99.4868 21.21 99.4868 21.0123 99.2891H20.8146C21.0123 98.8937 20.8146 98.8937 20.8146 98.8937C20.6169 98.8937 20.6169 98.696 20.4192 98.696C20.4192 98.696 20.2215 98.696 20.2215 98.4983C18.027 97.0946 17.4141 95.4931 17.4141 94.5046C17.4141 93.9115 17.6118 93.1009 18.0072 92.5078C18.2049 92.1123 18.798 91.9146 19.2132 92.3101C19.6086 92.5078 19.8063 93.1009 19.4109 93.5161C19.2132 93.9115 19.0155 94.1092 19.0155 94.5244C19.0155 95.5327 20.0238 96.5212 20.8146 96.9166H21.0123L21.21 97.1143C21.21 97.1143 21.4077 97.1143 21.4077 97.312H21.6054C21.8031 97.312 22.0009 97.5097 22.1986 97.5097C23.9977 98.3006 26.3899 99.1112 29.1974 99.3089H29.7905C30.1859 99.3089 30.5813 99.3089 30.7988 99.5066H40.4073C40.8028 99.5066 41.0005 99.5066 41.4156 99.3089H42.0088C43.6102 99.1112 45.0139 98.7157 46.2001 98.3006C46.3319 98.3006 46.4638 98.2347 46.5956 98.1029C47.1887 97.9052 47.6039 97.7074 48.197 97.5097C48.3947 97.5097 48.5924 97.312 48.7901 97.312H48.9878L49.1855 97.1143C50.7869 96.3235 51.7755 95.5129 51.9929 94.5046V94.3069C51.9929 93.2986 51.2021 92.5078 50.3915 92.1123C50.1938 92.1123 49.9961 91.9146 49.7984 91.7169C49.6007 91.3215 49.7984 90.7086 50.1938 90.5109C50.5892 90.3132 50.7869 90.3132 51.2021 90.5109C53.3967 91.9146 53.8118 93.5161 53.8118 94.5046V94.9V95.2954C53.8118 95.4272 53.7459 95.559 53.6141 95.6908C53.2187 97.0946 51.815 98.3006 49.8182 99.2891L49.6205 99.4868C49.6205 99.4868 49.4228 99.4868 49.4228 99.6845C49.2251 99.6845 49.0273 99.8822 48.8296 99.8822C48.2365 100.08 47.8213 100.278 47.2282 100.475C47.0964 100.475 46.9646 100.541 46.8328 100.673C45.4291 101.068 43.8277 101.464 42.2262 101.681H41.6331C41.2377 101.681 40.8423 101.681 40.4271 101.879H35.6228H35.6031Z" fill="#2C6941"/>
<path d="M41.6131 95.0779C41.2177 95.0779 40.8223 94.6825 40.8223 94.2871C40.8223 93.8917 41.02 93.2788 41.6131 93.2788C42.4039 93.0811 43.2145 93.0811 43.8076 92.8834C45.4091 92.488 46.8128 92.0926 47.999 91.6774C48.7898 91.4797 49.4027 91.0842 49.9959 90.6691C50.1936 90.6691 50.1936 90.4714 50.3913 90.4714C50.7867 90.2737 51.3996 90.2736 51.5973 90.6691C51.795 91.0645 51.795 91.6774 51.3996 91.8751C51.2019 92.0728 51.0042 92.0728 51.0042 92.0728C50.411 92.4682 49.6004 92.8636 48.8096 93.0811C47.6036 93.6742 46.0022 94.0894 44.4008 94.2871C43.3925 94.8802 42.6016 95.0779 41.5933 95.0779H41.6131Z" fill="#2C6941"/>
<path d="M40.012 95.2756C39.6166 95.2756 39.2212 94.8802 39.2212 94.4848C39.2212 94.0894 39.6166 93.4765 40.012 93.4765H40.4074C40.8028 93.4765 41.4157 93.8719 41.4157 94.2673C41.4157 94.6627 41.0203 95.2756 40.6249 95.2756H40.0318H40.012Z" fill="#2C6941"/>
<path d="M39.3987 95.2756C39.0033 95.2756 38.6079 94.8802 38.6079 94.4848C38.6079 94.0894 39.0033 93.4765 39.3987 93.4765H39.7941C40.1896 93.4765 40.8025 93.8719 40.8025 94.2673C40.8025 94.6627 40.407 95.2756 40.0116 95.2756H39.4185H39.3987Z" fill="#2C6941"/>
<path d="M37.8172 95.4733C37.4218 95.4733 37.0264 95.0779 37.0264 94.6825C37.0264 94.2871 37.4218 93.6742 37.8172 93.6742H38.2126C38.608 93.6742 39.2209 94.0696 39.2209 94.465C39.2209 94.8605 38.8255 95.4733 38.4301 95.4733H37.837C37.9688 95.4733 37.9688 95.4733 37.837 95.4733H37.8172Z" fill="#2C6941"/>
<path d="M37.2044 95.4733C36.809 95.4733 36.4136 95.0779 36.4136 94.6825C36.4136 94.2871 36.809 93.6742 37.2044 93.6742H37.9952C38.3906 93.6742 39.0035 94.0696 39.0035 94.465C39.0035 94.8605 38.6081 95.4733 38.2127 95.4733H37.2044Z" fill="#2C6941"/>
<path d="M36.2161 95.4734C35.8207 95.4734 35.4253 95.0779 35.4253 94.6825C35.4253 94.2871 35.8207 93.8917 36.2161 93.8917H36.8092C37.2047 93.8917 37.6001 94.2871 37.6001 94.6825C37.6001 95.0779 37.2047 95.6908 36.8092 95.6908H36.6115C36.6115 95.4931 36.4138 95.4931 36.2161 95.4931V95.4734Z" fill="#2C6941"/>
<path d="M35.0099 95.4733H34.4168C34.0214 95.4733 33.626 95.0779 33.626 94.465C33.626 94.0696 34.0214 93.6742 34.4168 93.6742H35.0099C35.4053 93.6742 35.8008 94.0696 35.8008 94.465C35.8008 94.8605 35.603 95.4733 35.0099 95.4733Z" fill="#2C6941"/>
<path d="M34.1993 95.4733H33.4085C33.0131 95.4733 32.6177 95.0779 32.6177 94.465C32.6177 94.0696 33.0131 93.6742 33.626 93.6742H34.4168C34.8122 93.6742 35.2076 94.0696 35.2076 94.6825C35.2076 95.0779 34.8122 95.4733 34.1993 95.4733Z" fill="#2C6941"/>
<path d="M33.4084 95.4733H33.013C32.6176 95.4733 32.2222 95.0779 32.2222 94.465C32.2222 94.0696 32.6176 93.6742 33.2305 93.6742H33.6259C34.0213 93.6742 34.4167 94.0696 34.4167 94.6825C34.4167 95.0779 34.0213 95.4733 33.4084 95.4733Z" fill="#2C6941"/>
<path d="M32.0046 95.2756H31.6092C31.2138 95.2756 30.8184 94.8802 30.8184 94.2673C30.8184 93.8719 31.2138 93.4765 31.8267 93.4765H32.2221C32.6175 93.4765 33.0129 93.8719 33.0129 94.4848C33.0129 95.0977 32.6175 95.2756 32.0046 95.2756Z" fill="#2C6941"/>
<path d="M31.4118 95.2756H30.8187C30.4232 95.2756 30.0278 94.8802 30.0278 94.2673C30.0278 93.8719 30.4232 93.4765 31.0361 93.4765H31.4315C31.827 93.4765 32.2224 93.8719 32.2224 94.4848C32.2224 94.8802 31.827 95.2756 31.4315 95.2756H31.4118Z" fill="#2C6941"/>
<path d="M29.8104 95.0779C28.8021 94.8802 28.0113 94.8802 27.4182 94.6825H27.0228C26.4296 94.4848 25.8167 94.4848 25.2236 94.2871C24.8282 94.2871 24.6305 94.0894 24.2153 94.0894C24.0835 94.0894 23.9517 94.0235 23.8199 93.8917C23.6222 93.8917 23.4245 93.694 23.2268 93.694C23.0291 93.694 23.0291 93.694 22.8314 93.4963C22.436 93.2986 22.2383 92.7055 22.436 92.2903C22.6337 91.8949 23.2268 91.6971 23.642 91.8949H23.8397C24.0374 91.8949 24.2351 92.0926 24.4328 92.0926H24.6305C24.8282 92.0926 25.2236 92.2903 25.6388 92.2903C26.2319 92.488 26.6471 92.488 27.2402 92.6857H27.6356C28.4265 92.8834 29.0394 92.8834 29.8302 93.0811C30.2256 93.0811 30.621 93.6742 30.621 94.0894C30.621 94.6825 30.2256 95.0977 29.8302 95.0977L29.8104 95.0779Z" fill="#2C6941"/>
<path d="M23.2067 93.4765H23.009C22.8772 93.4765 22.7454 93.4106 22.6136 93.2788C22.2182 93.0811 22.0205 92.488 22.2182 92.0728C22.4159 91.6774 23.009 91.4797 23.4242 91.6774H23.6219C24.0173 91.8751 24.4127 92.2705 24.215 92.8834C23.8196 93.2788 23.6219 93.4765 23.2067 93.4765Z" fill="#2C6941"/>
<path d="M22.4162 93.0811H22.0208C22.0208 93.0811 21.8231 93.0811 21.8231 92.8834C21.4277 92.6857 21.23 92.0926 21.4277 91.6774C21.6254 91.282 22.2185 91.0843 22.6337 91.282H22.8314C23.2268 91.4797 23.4245 92.0728 23.2268 92.488C23.0291 92.8834 22.8314 93.0811 22.436 93.0811H22.4162Z" fill="#2C6941"/>
<path d="M18.7979 93.8719C18.6002 93.8719 18.4025 93.8719 18.4025 93.6742C18.0071 93.4765 17.8094 92.8834 18.2048 92.4682C18.6002 91.8751 19.4108 91.0645 20.2016 90.4714C20.3993 90.2737 20.9925 90.2737 21.2099 90.4714C21.4076 90.6691 21.6053 90.6691 21.8031 90.8668H22.1985C22.5939 91.0645 22.7916 91.6576 22.5939 92.0728C22.3962 92.4682 21.8031 92.6659 21.3879 92.4682H20.9925C20.597 92.8636 20.2016 93.259 19.9841 93.4765C19.391 93.6742 19.1933 93.8719 18.7781 93.8719H18.7979Z" fill="#2C6941"/>
<path d="M35.6032 95.4734H30.7989C30.4035 95.4734 30.0081 95.4734 29.5929 95.2757C28.8021 95.0779 27.9915 95.0779 27.2006 94.8802H26.8052C26.2121 94.6825 25.5992 94.6825 25.0061 94.4848C24.6107 94.4848 24.413 94.2871 23.9978 94.0894L23.6024 93.8917C23.4047 93.8917 23.207 93.694 23.0093 93.694H22.8116C22.8116 93.694 22.6138 93.694 22.6138 93.4963C22.4161 93.4963 22.2184 93.2986 22.0207 93.2986C22.0207 93.2986 21.823 93.2986 21.823 93.1009C21.6253 92.9032 21.4276 92.9032 21.2299 92.7055C21.2299 92.7055 21.0322 92.7055 21.0322 92.5078C20.8345 92.3101 20.6368 92.31 20.4391 92.1123C18.8377 91.104 18.0468 89.9178 17.8491 88.5141V88.1187C17.8491 87.1104 18.2445 85.7264 20.4391 84.125C20.8345 83.9273 21.0322 83.9273 21.4474 84.125C23.4442 85.5287 27.0425 86.5172 31.0559 86.9324C31.4513 86.9324 31.8468 86.9324 32.2619 87.1301H32.8551C33.2505 87.1301 33.6459 87.5256 33.6459 88.1384C33.6459 88.5339 33.2505 88.9293 32.6376 88.9293H31.8468C31.4513 88.9293 31.0559 88.9293 30.6407 88.7316C26.6471 88.3361 23.0488 87.3278 20.8345 85.9241C20.2414 86.5172 19.4308 87.1301 19.4308 87.921V88.1187C19.4308 89.127 20.4391 89.9178 21.2299 90.3132C21.4276 90.5109 21.6253 90.5109 21.823 90.7086C21.823 90.7086 22.0207 90.7086 22.0207 90.9063C22.2184 91.104 22.4161 91.104 22.6138 91.3017H22.8116C23.0093 91.3017 23.207 91.4995 23.4047 91.4995H23.6024L23.8001 91.6972C23.9978 91.6972 24.1955 91.8949 24.3932 91.8949L24.7886 92.0926C24.9863 92.0926 25.3817 92.2903 25.7969 92.2903C26.39 92.488 26.8052 92.488 27.3984 92.6857H27.7938C28.5846 92.8834 29.1975 92.8834 29.9883 93.0811C30.3837 93.0811 30.7791 93.2788 31.1943 93.2788H40.8029C41.1983 93.2788 41.5937 93.2788 42.0089 93.0811C42.7997 92.8834 43.6103 92.8834 44.2034 92.6857C45.8048 92.2903 47.2086 91.8949 48.3948 91.4797C49.1856 91.282 49.7985 90.8866 50.3916 90.4714C50.5893 90.4714 50.5893 90.2737 50.787 90.2737C50.787 90.2737 50.9847 90.2737 50.9847 90.076C51.1825 90.076 51.1825 89.8783 51.3802 89.8783L51.5779 89.6806L51.7756 89.4828L51.9733 89.2851L52.171 89.0874L52.3687 88.8897L52.5664 88.692V88.4943V88.2966V88.0989C52.5664 87.3081 51.9733 86.4975 51.1627 86.1021C48.3552 87.5058 44.9547 88.4943 40.961 88.9095C40.5656 88.9095 40.1702 88.9095 39.755 89.1072H38.9642C38.5688 89.1072 37.9559 88.7118 37.9559 88.3164C37.9559 87.921 38.3513 87.3081 38.7467 87.3081H39.3398C39.7352 87.3081 40.1307 87.3081 40.5458 87.1104C44.5395 86.7149 48.1378 85.5089 50.1544 84.3029C50.5498 84.1052 50.7475 84.1052 51.1627 84.3029C53.3572 85.7066 53.7724 87.3081 53.7724 88.2966V88.4943V88.692V89.0874V89.2851C53.7724 89.4169 53.7065 89.5487 53.5747 89.6806C53.5747 89.6806 53.5747 89.8783 53.377 89.8783V90.076V90.4714L53.1793 90.6691L52.9816 90.8668L52.7839 91.0645L52.5862 91.2622L52.3885 91.4599L52.1908 91.6576C52.059 91.7894 51.9271 91.9212 51.7953 92.053C51.7953 92.053 51.5976 92.053 51.5976 92.2507C51.3999 92.2507 51.3999 92.4484 51.2022 92.4484C50.6091 92.8439 49.7985 93.2393 49.0077 93.4567C47.604 94.0499 46.2002 94.465 44.5988 94.6628C43.808 94.8605 42.9974 94.8605 42.2066 95.0582C41.8112 95.0582 41.4157 95.0582 41.0006 95.2559H36.5917C36.1963 95.4536 35.8009 95.4536 35.5834 95.4536L35.6032 95.4734Z" fill="#2C6941"/>
<path d="M37.8172 89.0676C37.4218 89.0676 37.0264 88.6722 37.0264 88.2768C37.0264 87.8814 37.4218 87.2685 37.8172 87.2685H38.2126C38.608 87.2685 39.2209 87.6639 39.2209 88.0594C39.2209 88.4548 38.8255 89.0676 38.4301 89.0676H37.837C37.9688 89.0676 37.9688 89.0676 37.837 89.0676H37.8172Z" fill="#2C6941"/>
<path d="M37.2044 89.0676C36.809 89.0676 36.4136 88.6722 36.4136 88.2768C36.4136 87.8814 36.809 87.2685 37.2044 87.2685H37.4021C37.7975 87.2685 38.4104 87.6639 38.4104 88.0594C38.4104 88.4548 38.015 89.0676 37.6196 89.0676H37.2242H37.2044Z" fill="#2C6941"/>
<path d="M36.2161 89.0676C35.8207 89.0676 35.4253 88.6722 35.4253 88.2768C35.4253 87.8814 35.8207 87.486 36.2161 87.486H36.8092C37.2047 87.486 37.8175 87.8814 37.8175 88.2768C37.8175 88.6722 37.4221 89.2851 37.0267 89.2851H36.6313C36.6313 89.0874 36.4336 89.0874 36.2359 89.0874L36.2161 89.0676Z" fill="#2C6941"/>
<path d="M35.0099 89.0676H34.219C33.8236 89.0676 33.4282 88.6722 33.4282 88.0594C33.4282 87.6639 33.8236 87.2685 34.4365 87.2685H35.0296C35.4251 87.2685 35.8205 87.6639 35.8205 88.0594C35.8205 88.4548 35.6228 89.0676 35.0296 89.0676H35.0099Z" fill="#2C6941"/>
<path d="M34.1994 89.0676H33.804C33.4086 89.0676 33.0132 88.6722 33.0132 88.0594C33.0132 87.6639 33.4086 87.2685 34.0215 87.2685H34.2192C34.6146 87.2685 35.01 87.6639 35.01 88.2768C35.01 88.6722 34.6146 89.0676 34.2192 89.0676H34.1994Z" fill="#2C6941"/>
<path d="M33.4084 89.0676H33.013C32.6176 89.0676 32.2222 88.6722 32.2222 88.0594C32.2222 87.6639 32.6176 87.2685 33.2305 87.2685H33.6259C34.0213 87.2685 34.4167 87.6639 34.4167 88.2768C34.4167 88.6722 34.0213 89.0676 33.4084 89.0676Z" fill="#2C6941"/>
<path d="M35.6028 89.0676H31.4114C31.016 89.0676 30.6206 89.0677 30.2054 88.8699C25.2034 88.2768 21.012 86.8731 18.7977 84.8763C17.7894 83.868 17.1963 82.8794 17.1963 81.6734C17.1963 78.4706 21.8029 75.8806 28.9994 74.6746C30.0077 74.4769 30.9962 74.4769 32.2022 74.2792H40.0116C40.407 74.2792 41.0199 74.2792 41.2176 74.4769H41.6131C41.8108 74.4769 42.2062 74.4769 42.4039 74.6746C42.6016 74.6746 42.997 74.6746 43.1947 74.8723H43.5901C47.1884 75.4654 50.1935 76.6715 51.7949 78.0752L51.9927 78.2729L52.1904 78.4706L52.3881 78.6683L52.5858 78.866C52.7835 79.0637 52.9812 79.2614 52.9812 79.4591V79.6568C52.9812 79.6568 52.9812 79.8545 53.1789 79.8545V80.0522C53.1789 80.2499 53.3766 80.4476 53.3766 80.4476C53.3766 80.5795 53.4425 80.7113 53.5743 80.8431V81.8514V82.2468V82.4445C52.9812 85.6473 47.9792 88.0396 40.7827 88.8502C40.3873 88.8502 39.9919 88.8502 39.5767 89.0479H35.9784C36.1761 89.0479 35.7807 89.0479 35.583 89.0479L35.6028 89.0676ZM35.0097 76.276H32.6174C31.6091 76.276 30.6206 76.4737 29.6123 76.6715C22.8112 77.6798 19.4106 80.072 19.4106 81.8711C19.4106 82.4643 19.806 83.0771 20.4189 83.6703C22.218 85.2717 26.014 86.6754 30.8183 87.0708C31.2137 87.0708 31.6091 87.0708 32.0243 87.2685H39.6162C40.0116 87.2685 40.407 87.2685 40.8222 87.0708C48.0187 86.28 51.8147 83.868 52.2299 82.0688V81.6734V81.4757C52.2299 81.4757 52.2299 81.278 52.0322 81.278C52.0322 81.0803 51.8345 81.0803 51.8345 80.8826L51.6368 80.6849L51.4391 80.4872L51.2414 80.2895C49.8376 79.0835 47.05 78.0949 43.8471 77.4821L43.0563 76.8889C42.8586 76.8889 42.6609 76.8889 42.2655 76.6912C42.0678 76.6912 41.6724 76.6912 41.4747 76.4935H41.277C40.8815 76.4935 40.4861 76.4935 40.0709 76.2958H35.069L35.0097 76.276Z" fill="#2C6941"/>
<path d="M18.6002 102.868C13.2028 102.077 10 100.06 10 97.6679C10 96.8771 10.3954 95.671 11.9968 94.6627C12.1945 94.465 12.59 94.465 13.0051 94.6627C14.4089 95.4536 16.6034 96.2642 19.2131 96.6596C19.6085 96.6596 20.004 97.2527 20.004 97.6679C20.004 98.0831 19.4108 98.4587 18.9956 98.4587C16.3859 98.0633 14.1914 97.4504 12.59 96.6596C12.1945 97.055 11.7991 97.4504 11.7991 97.8656C11.7991 99.0716 14.1914 100.475 18.6002 101.266C18.9956 101.266 19.3911 101.662 19.3911 102.057C19.5888 102.452 19.1934 102.848 18.6002 102.848V102.868Z" fill="#2C6941"/>
<path d="M20.6169 98.6762H20.0237C19.6283 98.6762 19.2329 98.2808 19.2329 97.6679C19.2329 97.2725 19.6283 96.8771 20.2412 96.8771H20.6366V98.6762H20.6169Z" fill="#2C6941"/>
<path d="M20.6167 98.6762H20.0235C19.6281 98.6762 19.4304 98.6762 19.0152 98.4785C13.6178 97.6877 10.2173 95.6711 10.2173 93.2788C10.2173 92.488 10.6127 91.282 12.2141 90.2737C12.4118 90.076 12.8072 90.076 13.2224 90.2737C13.6178 90.4714 13.8155 90.6691 14.2307 90.8668C14.6261 91.0645 14.8239 91.6576 14.6261 92.0728C14.4284 92.4682 13.8353 92.6659 13.4201 92.4682C13.2224 92.2705 12.827 92.2705 12.6293 92.0728C12.2339 92.4682 11.8385 92.8636 11.8385 93.2788C11.8385 94.4848 14.4482 96.0862 19.2327 96.6794C19.6281 96.6794 19.8258 96.6794 20.241 96.8771H20.6364C21.0318 96.8771 21.4272 97.2725 21.4272 97.8854C21.4272 98.2808 21.0318 98.6762 20.6364 98.6762H20.6167Z" fill="#2C6941"/>
<path d="M14.4088 92.6659H14.0134C13.8816 92.6659 13.7498 92.6 13.618 92.4682C13.2226 92.2705 13.0249 91.6774 13.2226 91.2622C13.4203 90.8668 14.0134 90.6691 14.4286 90.8668H14.6263C15.0217 91.0645 15.2194 91.4599 15.2194 92.0728C15.0217 92.4682 14.824 92.6659 14.4286 92.6659H14.4088Z" fill="#2C6941"/>
<path d="M14.6067 92.8636H14.409C14.409 92.8636 14.2113 92.8636 14.2113 92.6659C13.8159 92.4682 13.6182 91.8751 13.6182 91.4599C13.8159 91.0645 14.409 90.8668 14.8242 90.8668H15.0219C15.4173 91.0645 15.8127 91.4599 15.615 92.0728C15.4173 92.6659 15.0219 92.8636 14.6067 92.8636Z" fill="#2C6941"/>
<path d="M16.0101 93.2788H15.8124C15.6806 93.2788 15.5488 93.2129 15.417 93.0811C15.2852 92.9493 15.1534 92.8834 15.0216 92.8834C14.8898 92.8834 14.758 92.8175 14.6262 92.6857C14.2308 92.488 13.8353 92.0926 14.0331 91.4797C14.2308 91.0843 14.6262 90.6889 15.2391 90.8866C15.3709 90.8866 15.5027 90.9525 15.6345 91.0843C15.7663 91.0843 15.8981 91.1502 16.0299 91.282C16.1617 91.282 16.2935 91.3479 16.4253 91.4797C16.8207 91.6774 17.2161 92.0728 17.0184 92.6857C16.8207 93.0811 16.4253 93.2788 16.0101 93.2788Z" fill="#2C6941"/>
<path d="M18.2047 93.8719H16.801C16.4056 93.6742 16.0102 93.2788 16.2079 92.8636C16.4056 92.4682 16.801 92.0728 17.2162 92.2705H18.4222C18.8176 92.2705 19.213 92.8636 19.213 93.2788C19.0153 93.4765 18.8176 93.8719 18.2047 93.8719Z" fill="#2C6941"/>
<path d="M18.7978 93.8719C18.4024 93.8719 18.2047 93.8719 18.007 93.6742H16.801C16.4056 93.6742 16.2079 93.4765 15.7927 93.4765C15.6609 93.4765 15.5291 93.4106 15.3973 93.2788C15.2655 93.147 15.1337 93.0811 15.0019 93.0811C14.8701 93.0811 14.7383 93.0152 14.6065 92.8834H14.4088C14.4088 92.8834 14.2111 92.8834 14.2111 92.6857L14.0133 92.488C14.0133 92.488 13.8156 92.488 13.8156 92.2903C11.0082 91.0843 10.6128 89.4828 10.6128 88.4943C10.6128 87.7035 11.0082 86.4975 12.6096 85.4892C13.005 85.2915 13.2028 85.2915 13.6179 85.4892C13.8156 85.6869 14.0133 85.6869 14.2111 85.8846H14.4088C14.4088 85.8846 14.6065 85.8846 14.6065 86.0823H14.8042C15.1996 86.28 15.3973 86.8731 15.1996 87.2883C15.0019 87.6837 14.4088 87.8814 13.9936 87.6837C13.8618 87.6837 13.73 87.6178 13.5982 87.486C13.5982 87.486 13.4005 87.486 13.4005 87.2883C13.2687 87.2883 13.1368 87.2224 13.005 87.0906C13.005 87.0906 12.8073 87.0906 12.8073 86.8929C12.4119 87.2883 12.0165 87.6837 12.0165 88.0989C12.0165 88.692 12.8073 89.5026 14.2111 90.0957C14.2111 90.0957 14.4088 90.0957 14.4088 90.2934H15.0019C15.1337 90.2934 15.2655 90.3593 15.3973 90.4911C15.5291 90.4911 15.6609 90.5571 15.7927 90.6889C15.9245 90.6889 16.0563 90.7548 16.1881 90.8866C16.5835 90.8866 16.7812 91.0843 17.1964 91.0843H18.9956C19.391 91.0843 19.7864 91.4797 19.7864 91.8751C19.7864 93.4765 19.391 93.8719 18.7781 93.8719H18.7978Z" fill="#2C6941"/>
<path d="M14.4088 88.2768H14.0134C13.8816 88.2768 13.7498 88.2109 13.618 88.0791C13.2226 87.8814 13.0249 87.2883 13.2226 86.8731C13.4203 86.4777 14.0134 86.28 14.4286 86.4777H14.6263C15.0217 86.6754 15.2194 87.0708 15.2194 87.6837C15.2194 88.0791 14.824 88.2768 14.4286 88.2768H14.4088Z" fill="#2C6941"/>
<path d="M16.6034 88.8699H16.0103C15.8785 88.8699 15.7467 88.804 15.6149 88.6722C15.483 88.5404 15.3512 88.4745 15.2194 88.4745C14.824 88.2768 14.4286 87.8814 14.6263 87.2685C14.824 86.6754 15.2194 86.4777 15.8323 86.6754C15.9641 86.6754 16.0959 86.7413 16.2277 86.8731C16.3595 86.8731 16.4913 86.939 16.6232 87.0708L17.0186 87.2685C17.414 87.4662 17.8094 87.8616 17.6117 88.2768C17.414 88.6722 17.0186 88.8699 16.6034 88.8699Z" fill="#2C6941"/>
<path d="M18.007 89.2654C17.6116 89.2654 17.2162 89.0676 16.9987 89.0676C16.6033 88.8699 16.2079 88.4745 16.4056 88.0593C16.6033 87.6639 16.9987 87.2685 17.4139 87.4662C17.6116 87.4662 18.007 87.6639 18.2047 87.6639C18.6002 87.6639 18.9956 88.257 18.9956 88.6722C18.7979 88.8699 18.4024 89.2654 17.9873 89.2654H18.007Z" fill="#2C6941"/>
<path d="M18.4023 89.2654H17.8092C17.4138 89.2654 17.2161 89.0677 16.8009 89.0677C16.6691 89.0677 16.5373 89.0018 16.4055 88.87C16.2737 88.7381 16.1419 88.6723 16.0101 88.6723C15.8783 88.6723 15.7465 88.6064 15.6147 88.4745C15.4829 88.3427 15.3511 88.2768 15.2193 88.2768C14.8239 88.0791 14.4284 88.0791 14.211 87.8814H13.6178L13.2224 87.6837H13.0247C10.6325 86.4777 10.2173 85.0938 10.2173 84.2832C10.2173 83.4726 10.6127 82.484 12.2141 81.278C12.6095 81.0803 13.2224 81.0803 13.4201 81.4757C13.6178 81.8711 13.6178 82.484 13.2224 82.6817C12.4316 83.2749 12.0164 83.69 12.0164 84.0855C12.0164 84.6786 12.6095 85.2915 13.8155 85.8846H14.0133L14.4087 86.0823H15.0018C15.1995 86.28 15.5949 86.28 16.0101 86.4777C16.1419 86.4777 16.2737 86.5436 16.4055 86.6754H17.6115C17.8092 86.6754 18.2046 86.8731 18.4023 86.8731H18.9955C19.3909 87.0708 19.5886 87.2685 19.5886 87.6639C19.3909 88.87 18.9955 89.2654 18.3826 89.2654H18.4023Z" fill="#2C6941"/>
<path d="M13.0051 83.0771C12.8074 83.0771 12.6096 83.0771 12.6096 82.8794C12.6096 82.8794 12.4119 82.8794 12.4119 82.6817C12.0165 82.484 11.8188 81.8909 12.0165 81.4757C12.2142 81.0803 12.8074 80.8826 13.2225 81.0803H13.4202C13.8157 81.278 14.0134 81.8711 13.8157 82.2863C13.6179 82.8794 13.4202 83.0771 13.0248 83.0771H13.0051Z" fill="#2C6941"/>
<path d="M14.6068 83.868H14.2114C14.0137 83.868 13.816 83.6703 13.6182 83.6703C13.4205 83.6703 13.2228 83.4726 13.0251 83.4726H12.6297C12.2343 83.2749 12.0366 82.6817 12.2343 82.2666C12.432 81.8711 13.0251 81.6734 13.4403 81.8711C13.638 81.8711 13.8357 82.0688 14.0334 82.0688C14.2311 82.0688 14.4288 82.2666 14.6266 82.2666C15.022 82.4643 15.4174 82.8597 15.2197 83.4726C15.4174 83.6703 15.022 83.868 14.6266 83.868H14.6068Z" fill="#2C6941"/>
<path d="M15.0021 84.0657C14.8703 84.0657 14.7385 83.9998 14.6067 83.868C14.4749 83.7362 14.3431 83.6703 14.2113 83.6703C13.8159 83.4726 13.6182 83.0771 13.6182 82.4643C13.6182 81.8514 14.2113 81.8711 14.8242 81.8711C14.956 81.8711 15.0878 81.937 15.2196 82.0688H15.4173L15.2196 82.8597L15.0219 84.0657H15.0021Z" fill="#2C6941"/>
<path d="M16.4056 84.4808H16.2079C16.0761 84.4808 15.9443 84.4149 15.8125 84.2831C15.6807 84.1513 15.5489 84.0854 15.4171 84.0854C15.2853 84.0854 15.1535 84.0195 15.0217 83.8877C14.6263 83.69 14.2309 83.2946 14.4286 82.6817C14.6263 82.2863 15.0217 81.8909 15.6346 82.0886H16.4254C16.5572 82.0886 16.689 82.1545 16.8208 82.2863C17.2162 82.484 17.6116 82.8794 17.4139 83.2946C17.2162 84.0854 16.8208 84.5006 16.4056 84.5006V84.4808Z" fill="#2C6941"/>
<path d="M17.6119 84.6785H17.0188C16.6233 84.4808 16.2279 84.0854 16.4256 83.6702C16.6233 83.2748 17.0188 82.8794 17.4339 83.0771H17.8293C18.2248 83.0771 18.6202 83.6702 18.6202 84.0854C18.4225 84.2831 18.0271 84.6785 17.6119 84.6785Z" fill="#2C6941"/>
<path d="M18.7982 84.8763H17.7898C17.3944 84.8763 16.999 84.2832 16.999 83.868C16.999 83.4528 17.5921 83.0771 18.0073 83.0771H18.7982C19.1936 83.0771 19.589 83.6703 19.589 84.0854C19.589 84.5006 19.3913 84.8763 18.7982 84.8763Z" fill="#2C6941"/>
<path d="M20.6167 85.8648C20.419 85.8648 20.2213 85.8648 20.2213 85.6671C19.8259 85.4694 19.4305 85.074 19.213 84.8763L19.0153 84.6786C18.6199 84.2832 18.6199 83.6703 19.0153 83.4726C19.4107 83.0771 20.0236 83.0771 20.2213 83.4726L20.419 83.6703C20.6167 83.868 21.0121 84.0657 21.2099 84.2634C21.6053 84.4611 21.803 85.0542 21.4076 85.4694C21.2099 85.6671 21.0121 85.8648 20.6167 85.8648Z" fill="#2C6941"/>
<path d="M19.4109 84.8763H17.0186C16.8209 84.8763 16.4255 84.6786 16.2278 84.6786H15.8324C15.7006 84.6786 15.5688 84.6127 15.437 84.4809C15.3052 84.3491 15.1734 84.2832 15.0416 84.2832H14.4485C14.2508 84.2832 14.0531 84.0855 13.8553 84.0855C13.6576 83.8878 13.4599 83.8878 13.2622 83.69H12.6691L12.4714 83.4923C12.4714 83.4923 12.2737 83.4923 12.2737 83.2946C10.6723 82.2863 10.2769 81.1001 10.2769 80.2895C10.2769 76.6912 17.078 74.6944 23.4837 74.6944C23.8791 74.6944 26.0934 74.8921 27.675 75.0898C29.2765 75.2875 29.6719 75.2875 30.0673 75.4852C30.4627 75.6829 30.4627 75.8806 30.6604 75.8806C30.8581 76.276 30.6604 76.8889 30.265 77.0866C29.8696 77.2844 29.6719 77.2844 29.2567 77.0866C29.059 77.0866 28.6636 76.8889 27.4576 76.8889C25.8561 76.6912 23.8593 76.4935 23.4639 76.4935C16.4651 76.4935 12.0562 78.6881 12.0562 80.2895C12.0562 80.8826 12.847 81.4955 13.2622 81.6932H13.4599C13.4599 81.6932 13.6576 81.6932 13.6576 81.8909H14.0531C14.2508 81.8909 14.4485 82.0886 14.6462 82.0886C14.8439 82.0886 15.0416 82.2863 15.2393 82.2863H15.8324C15.9642 82.2863 16.096 82.3522 16.2278 82.484H16.6232L17.0186 82.6817C17.2164 82.6817 17.6118 82.8794 17.8095 82.8794H20.004C20.3994 82.8794 20.7948 83.4726 20.7948 83.8878C20.3994 84.6786 20.004 84.8961 19.3911 84.8961L19.4109 84.8763Z" fill="#2C6941"/>
<path d="M41.8111 27.4821L40.8028 27.6798C40.8028 27.2844 40.6051 27.0867 40.2097 27.0867V28.6881C40.8028 28.8858 41.4157 29.0835 41.6134 29.4789C41.8111 29.6766 42.0088 30.072 42.0088 30.6849C42.0088 31.2978 41.8111 31.6932 41.6134 31.8909C41.218 32.2863 40.8226 32.484 40.4074 32.484V33.2749H39.8143V32.484C39.4189 32.484 39.0234 32.2863 38.6083 31.8909C38.2128 31.4955 38.2128 31.1001 38.0151 30.6849L39.2211 30.4872C39.2211 30.6849 39.4189 30.8826 39.4189 31.0803C39.5507 31.2121 39.6825 31.3439 39.8143 31.4757V29.6766C39.2211 29.4789 38.806 29.2812 38.6083 28.8858C38.4105 28.4904 38.2128 28.095 38.2128 27.6798C38.2128 27.2646 38.4105 26.8889 38.6083 26.4738C38.806 26.0783 39.2014 25.8806 39.8143 25.8806V25.4852H40.4074V25.8806C40.8028 25.8806 41.1982 26.0784 41.4157 26.2761C41.6134 26.8692 41.8111 27.0669 41.8111 27.4821ZM41.0203 30.6849C41.0203 30.4872 41.0203 30.2895 40.8226 30.2895C40.6908 30.1577 40.4931 30.0259 40.2294 29.8941V31.4955C40.4272 31.4955 40.6249 31.2978 40.8226 31.1001C40.8226 31.1001 41.0203 30.9024 41.0203 30.7047V30.6849ZM39.6166 28.4904V27.0867C39.4188 27.0867 39.4189 27.2844 39.2211 27.4821C39.2211 27.6798 39.0234 27.6798 39.0234 27.8775C39.0234 28.0752 39.0234 28.0752 39.2211 28.2729C39.4189 28.2729 39.4188 28.4706 39.6166 28.4706V28.4904Z" fill="#2C6941"/>
</svg>
