<svg width="26" height="26" viewBox="0 0 26 26" fill="none" xmlns="http://www.w3.org/2000/svg">
<path d="M13.8127 7.69043C14.9312 7.88223 15.9536 8.4108 16.7685 9.2226C17.5789 10.0322 18.1102 11.0536 18.3022 12.1732C18.3759 12.6148 18.7554 12.9337 19.2041 12.9337C19.2622 12.9337 19.3135 12.927 19.3492 12.9203C19.3515 12.9203 19.3537 12.9203 19.3559 12.9181C19.5993 12.8779 19.8114 12.7463 19.952 12.5434C20.0926 12.3427 20.1462 12.1018 20.1038 11.8632C19.8493 10.3689 19.1438 9.00849 18.0611 7.92684C16.9739 6.84518 15.6098 6.14043 14.1163 5.88842H14.1141C13.6162 5.8059 13.1452 6.14266 13.0626 6.63777C12.9844 7.13734 13.3193 7.60792 13.8127 7.69043V7.69043Z" fill="url(#paint0_linear_2705_419)"/>
<path d="M19.4409 15.3468C18.9408 14.8272 18.3358 14.5529 17.6907 14.5529C17.0522 14.5529 16.4427 14.8227 15.9315 15.3357L14.6612 16.6047C14.6299 16.589 14.5987 16.5734 14.5697 16.5578L14.5049 16.5266C14.3687 16.4575 14.2125 16.3794 14.083 16.2991C12.7792 15.4717 11.5893 14.3878 10.4418 12.9828C9.95067 12.365 9.60687 11.8409 9.3546 11.319C9.67385 11.018 9.97076 10.7169 10.2498 10.4314C10.3123 10.369 10.3748 10.3043 10.4396 10.2396C10.5021 10.1749 10.5668 10.1103 10.6316 10.0456C11.1629 9.51479 11.4442 8.89925 11.442 8.26586C11.442 7.63471 11.1607 7.0214 10.6316 6.49507L9.39702 5.26176C9.32558 5.19039 9.25414 5.11902 9.18493 5.04766C9.11573 4.97629 9.04429 4.90492 8.97508 4.83578L8.87685 4.73542C8.63351 4.48787 8.38124 4.2314 8.12674 3.99722C7.63113 3.50434 7.03059 3.24341 6.39434 3.24341C5.76032 3.24341 5.15532 3.50434 4.63961 3.99722C4.63738 3.99945 4.63515 3.99945 4.63515 4.00168L3.08804 5.54499C2.45625 6.17615 2.09683 6.94557 2.01869 7.83097V7.8332C1.93609 8.8814 2.12585 9.98759 2.61699 11.3146C3.36041 13.3218 4.47664 15.1818 6.12644 17.1667C8.14013 19.5642 10.5579 21.4554 13.3105 22.7868H13.3128C14.3732 23.2931 15.7975 23.8863 17.4049 23.9911C17.4071 23.9911 17.4094 23.9911 17.4116 23.9911H17.4228C17.5143 23.9956 17.6103 24.0001 17.7108 24.0001C18.8382 24.0001 19.7892 23.5919 20.5348 22.7868L20.546 22.7757C20.5549 22.7667 20.5616 22.7601 20.5683 22.7511C20.7916 22.4835 21.0483 22.236 21.3363 21.9594C21.535 21.7698 21.7381 21.5758 21.9346 21.3662C22.4414 20.8376 22.7093 20.2221 22.707 19.5865C22.7048 18.9486 22.4324 18.3398 21.919 17.8268L19.4409 15.3468V15.3468ZM19.1953 21.5624C18.798 21.9862 18.3425 22.1757 17.7219 22.1757C17.6639 22.1757 17.5991 22.1713 17.5322 22.1668C16.2463 22.0843 15.0296 21.5758 14.1142 21.1409C11.5871 19.9255 9.37246 18.1948 7.53067 15.9958C6.02375 14.1826 5.00797 12.4921 4.336 10.6812C3.93415 9.60399 3.78234 8.76989 3.84485 7.98262C3.88504 7.5232 4.05694 7.15744 4.38511 6.83406L5.92105 5.29967C6.08179 5.14579 6.247 5.06327 6.40104 5.06327C6.54615 5.06327 6.70019 5.14356 6.86316 5.3019C6.86539 5.30413 6.86762 5.30636 6.86986 5.30859C7.13552 5.55838 7.39449 5.82154 7.66908 6.09809L7.67801 6.10701C7.80973 6.24305 7.96154 6.39917 8.11558 6.54859L9.3479 7.77967C9.70733 8.13874 9.70733 8.39075 9.3479 8.74982C9.21842 8.87917 9.0867 9.01076 8.95722 9.14457L8.86569 9.23824C8.51965 9.58838 8.19371 9.91846 7.83875 10.2329C7.83429 10.2374 7.82759 10.2418 7.82312 10.2485L7.8008 10.2708C7.42351 10.6477 7.32082 11.0982 7.49718 11.6067C7.50165 11.6201 7.50611 11.6313 7.51058 11.6424C7.51281 11.6491 7.51504 11.6558 7.51951 11.6625C7.84991 12.4587 8.31427 13.2147 9.02866 14.118C9.02866 14.1202 9.03089 14.1202 9.03089 14.1224C10.2989 15.6813 11.6362 16.899 13.1208 17.8402C13.315 17.9629 13.5159 18.0654 13.7035 18.1591C13.8419 18.2283 13.9981 18.3085 14.1276 18.3866C14.1366 18.3933 14.1455 18.3978 14.1544 18.4022L14.1611 18.4067C14.1745 18.4134 14.1879 18.4223 14.2035 18.429C14.3978 18.5271 14.5898 18.5739 14.7884 18.5739C15.1278 18.5739 15.4403 18.4334 15.6926 18.168L17.2375 16.6247C17.3491 16.5132 17.5232 16.3794 17.7063 16.3794C17.876 16.3794 18.0412 16.511 18.1483 16.6225C18.1506 16.6247 18.1506 16.6247 18.1528 16.627L20.6465 19.1181C20.892 19.3634 21.0595 19.6534 20.6264 20.1083L20.6241 20.1106C20.488 20.2578 20.3428 20.3983 20.1888 20.5477C20.1553 20.5789 20.1218 20.6124 20.0883 20.6458C19.7758 20.938 19.4766 21.2279 19.1953 21.5624V21.5624Z" fill="url(#paint1_linear_2705_419)"/>
<path d="M23.9861 11.6849C23.5753 9.26958 22.4323 7.06612 20.6798 5.3154C18.9206 3.56244 16.7149 2.42057 14.2949 2.01244C13.7971 1.92992 13.326 2.26669 13.2434 2.76179C13.1608 3.25913 13.4979 3.72971 13.9913 3.81223C16.0385 4.16014 17.9026 5.12806 19.385 6.60669C20.8673 8.08756 21.834 9.94979 22.1822 11.9927C22.2559 12.4343 22.6354 12.7532 23.0842 12.7532C23.0864 12.7532 23.0886 12.7532 23.0909 12.7532C23.1467 12.7532 23.1936 12.7465 23.2293 12.7398C23.2315 12.7398 23.2337 12.7398 23.236 12.7376C23.4793 12.6974 23.6914 12.5658 23.832 12.3629C23.9749 12.1644 24.0285 11.9235 23.9861 11.6849V11.6849Z" fill="url(#paint2_linear_2705_419)"/>
<defs>
<linearGradient id="paint0_linear_2705_419" x1="16.5846" y1="5.87598" x2="16.5846" y2="12.9337" gradientUnits="userSpaceOnUse">
<stop stop-color="#2C6941"/>
<stop offset="1" stop-color="#669F77"/>
</linearGradient>
<linearGradient id="paint1_linear_2705_419" x1="12.3535" y1="3.24341" x2="12.3535" y2="24.0001" gradientUnits="userSpaceOnUse">
<stop stop-color="#2C6941"/>
<stop offset="1" stop-color="#669F77"/>
</linearGradient>
<linearGradient id="paint2_linear_2705_419" x1="18.6156" y1="2" x2="18.6156" y2="12.7532" gradientUnits="userSpaceOnUse">
<stop stop-color="#2C6941"/>
<stop offset="1" stop-color="#669F77"/>
</linearGradient>
</defs>
</svg>
