<svg width="26" height="26" viewBox="0 0 26 26" fill="none" xmlns="http://www.w3.org/2000/svg">
<path d="M13 25C12.7415 25 12.5065 24.88 12.342 24.688C11.4961 23.704 4 14.992 4 10.192C4 5.128 8.04177 1 13 1C17.9582 1 22 5.128 22 10.192C22 14.968 14.5039 23.704 13.658 24.688C13.4935 24.88 13.2585 25 13 25ZM13 2.824C9.02872 2.824 5.7859 6.136 5.7859 10.192C5.7859 13.36 10.5091 19.672 13 22.696C15.4909 19.696 20.2141 13.36 20.2141 10.192C20.2141 6.136 16.9713 2.824 13 2.824Z" fill="url(#paint0_linear_2705_419)"/>
<path d="M13 14.9199C10.5092 14.9199 8.48828 12.8559 8.48828 10.3119C8.48828 7.76786 10.5092 5.70386 13 5.70386C15.4909 5.70386 17.5118 7.76786 17.5118 10.3119C17.5118 12.8559 15.4909 14.9199 13 14.9199ZM13 7.52786C11.4961 7.52786 10.2742 8.77586 10.2742 10.3119C10.2742 11.8479 11.4961 13.0959 13 13.0959C14.5039 13.0959 15.7259 11.8479 15.7259 10.3119C15.7259 8.77586 14.5039 7.52786 13 7.52786Z" fill="url(#paint1_linear_2705_419)"/>
<defs>
<linearGradient id="paint0_linear_2705_419" x1="13" y1="1" x2="13" y2="25" gradientUnits="userSpaceOnUse">
<stop stop-color="#2C6941"/>
<stop offset="1" stop-color="#669F77"/>
</linearGradient>
<linearGradient id="paint1_linear_2705_419" x1="13" y1="5.70386" x2="13" y2="14.9199" gradientUnits="userSpaceOnUse">
<stop stop-color="#2C6941"/>
<stop offset="1" stop-color="#669F77"/>
</linearGradient>
</defs>
</svg>
